<svg xmlns="http://www.w3.org/2000/svg" width="39" height="39" viewBox="0 0 39 39" fill="none">
  <g transform="translate(-122,0)">
    <path d="M158.1 9.11133C158.099 5.18393 154.916 2.00019 150.989 2H131.111C127.184 2 124 5.18381 124 9.11133V28.9883C124 32.9159 127.184 36.0996 131.111 36.0996H150.989C154.916 36.0994 158.1 32.9158 158.1 28.9883V9.11133ZM160.1 28.9883C160.1 34.0203 156.021 38.0994 150.989 38.0996H131.111C126.08 38.0996 122 34.0205 122 28.9883V9.11133C122 4.07928 126.08 0 131.111 0H150.989C156.021 0.00019072 160.099 4.0794 160.1 9.11133V28.9883Z" fill="#BBCE00"/>
    <path d="M145.988 18.1325H134.761V13.69H145.988C146.644 13.69 147.1 13.8043 147.329 14.0039C147.557 14.2035 147.699 14.5738 147.699 15.1145V16.7096C147.699 17.2795 147.557 17.6497 147.329 17.8493C147.1 18.0489 146.644 18.1342 145.988 18.1342V18.1325ZM146.758 9.50171H142.569H138.379H130V28.5H134.761V22.3191H143.536L147.699 28.5H153.031L148.44 22.29C150.132 22.0392 150.892 21.5206 151.519 20.6659C152.146 19.8112 152.46 18.4447 152.46 16.6209V15.1964C152.46 14.1148 152.346 13.2601 152.146 12.605C151.946 11.9499 151.605 11.38 151.119 10.8682C150.607 10.3837 150.037 10.0425 149.352 9.81388C148.668 9.61429 147.812 9.5 146.758 9.5V9.50171Z" fill="#BBCE00"/>
    <path d="M149 1C154.523 1 159 5.47715 159 11V18.9395C157.409 18.8139 155.873 18.4934 154.416 18C154.457 17.5485 154.476 17.0869 154.476 16.6211V15.1963C154.476 13.9869 154.349 12.921 154.073 12.0176C153.775 11.0432 153.266 10.2044 152.582 9.48242L152.544 9.44238L152.504 9.4043C151.774 8.71491 150.949 8.22242 149.989 7.90234L149.915 7.87891C149.003 7.61299 147.949 7.48438 146.758 7.48438H144.743V7.48633H143.047C142.185 5.47895 141.66 3.29324 141.541 1H149Z" fill="#BBCE00"/>
  </g>
</svg>
