<svg width="301" height="72" viewBox="0 0 301 72" fill="none" xmlns="http://www.w3.org/2000/svg">
<path d="M14.3 7.14996C14.3 11.1 11.1 14.3 7.15001 14.3C3.20001 14.3 0 11.1 0 7.14996C0 3.19996 3.20001 0 7.15001 0C11.1 0 14.3 3.19996 14.3 7.14996Z" fill="#000102"/>
<path d="M64.3399 14.3C68.2888 14.3 71.4899 11.0988 71.4899 7.14996C71.4899 3.20113 68.2888 0 64.3399 0C60.3911 0 57.1899 3.20113 57.1899 7.14996C57.1899 11.0988 60.3911 14.3 64.3399 14.3Z" fill="#000102"/>
<path d="M128.66 7.14996C128.66 11.1 125.46 14.3 121.51 14.3C117.56 14.3 114.36 11.1 114.36 7.14996C114.36 3.19996 117.56 0 121.51 0C125.46 0 128.66 3.19996 128.66 7.14996Z" fill="#000102"/>
<path d="M185.84 7.14996C185.84 11.1 182.64 14.3 178.69 14.3C174.74 14.3 171.54 11.1 171.54 7.14996C171.54 3.19996 174.74 0 178.69 0C182.64 0 185.84 3.19996 185.84 7.14996Z" fill="#000102"/>
<path d="M235.87 14.3C239.819 14.3 243.02 11.0988 243.02 7.14996C243.02 3.20113 239.819 0 235.87 0C231.921 0 228.72 3.20113 228.72 7.14996C228.72 11.0988 231.921 14.3 235.87 14.3Z" fill="#000102"/>
<path d="M300.2 7.14996C300.2 11.1 297 14.3 293.05 14.3C289.1 14.3 285.9 11.1 285.9 7.14996C285.9 3.19996 289.1 0 293.05 0C297 0 300.2 3.19996 300.2 7.14996Z" fill="#000102"/>
<path d="M7.15976 71.4799C11.1086 71.4799 14.3098 68.2787 14.3098 64.3299C14.3098 60.3811 11.1086 57.1799 7.15976 57.1799C3.21092 57.1799 0.00976562 60.3811 0.00976562 64.3299C0.00976562 68.2787 3.21092 71.4799 7.15976 71.4799Z" fill="#000102"/>
<path d="M64.3399 71.4799C68.2888 71.4799 71.4899 68.2787 71.4899 64.3299C71.4899 60.3811 68.2888 57.1799 64.3399 57.1799C60.3911 57.1799 57.1899 60.3811 57.1899 64.3299C57.1899 68.2787 60.3911 71.4799 64.3399 71.4799Z" fill="#000102"/>
<path d="M121.51 71.4799C125.459 71.4799 128.66 68.2787 128.66 64.3299C128.66 60.3811 125.459 57.1799 121.51 57.1799C117.561 57.1799 114.36 60.3811 114.36 64.3299C114.36 68.2787 117.561 71.4799 121.51 71.4799Z" fill="#000102"/>
<path d="M178.69 71.4799C182.639 71.4799 185.84 68.2787 185.84 64.3299C185.84 60.3811 182.639 57.1799 178.69 57.1799C174.741 57.1799 171.54 60.3811 171.54 64.3299C171.54 68.2787 174.741 71.4799 178.69 71.4799Z" fill="#000102"/>
<path d="M235.87 71.4799C239.819 71.4799 243.02 68.2787 243.02 64.3299C243.02 60.3811 239.819 57.1799 235.87 57.1799C231.921 57.1799 228.72 60.3811 228.72 64.3299C228.72 68.2787 231.921 71.4799 235.87 71.4799Z" fill="#000102"/>
<path d="M293.05 71.4799C296.999 71.4799 300.2 68.2787 300.2 64.3299C300.2 60.3811 296.999 57.1799 293.05 57.1799C289.101 57.1799 285.9 60.3811 285.9 64.3299C285.9 68.2787 289.101 71.4799 293.05 71.4799Z" fill="#000102"/>
</svg>
