<svg width="565" height="346" viewBox="0 0 565 346" fill="none" xmlns="http://www.w3.org/2000/svg">
<path d="M20.4397 84.1752H31.4607V14.4223H25.1829L20.4397 84.1752ZM11.3719 0.47168H46.1088V84.1752H50.9915V110.96H36.3434V98.1257H14.72V110.96H0.0718833V84.1752H5.65211L11.3719 0.47168Z" fill="#EB3333"/>
<path d="M56.5554 98.1257V0.47168H92.8269V14.4223H71.2035V38.1382H92.1293V52.0888H71.2035V84.1752H92.8269V98.1257H56.5554Z" fill="#EB3333"/>
<path d="M131.251 0.47168H145.899V98.1257H131.251V52.0888H115.208V98.1257H100.56V0.47168H115.208V38.1382H131.251V0.47168Z" fill="#EB3333"/>
<path d="M168.885 50.6938V84.1752H182.138V50.6938H168.885ZM190.369 98.1257H154.237V0.47168H168.885V36.7432H190.369C194.275 36.7432 196.786 39.3938 196.786 43.1605V91.7085C196.786 95.4751 194.275 98.1257 190.369 98.1257Z" fill="#EB3333"/>
<path d="M30.205 179.969L42.2025 124.167H60.0593V221.821H45.4112V179.969L47.7828 152.068H47.0852L36.9013 202.29H23.2297L12.7668 152.068H12.0693L14.7199 179.969V221.821H0.0717773V124.167H17.9285L29.7865 179.969H30.205Z" fill="#3B3393"/>
<path d="M83.1104 207.87H97.7585V138.117H83.1104V207.87ZM105.989 221.821H74.8796C70.9734 221.821 68.4623 219.17 68.4623 215.404V130.584C68.4623 126.817 70.9734 124.167 74.8796 124.167H105.989C109.896 124.167 112.407 126.817 112.407 130.584V215.404C112.407 219.17 109.896 221.821 105.989 221.821Z" fill="#3B3393"/>
<path d="M163.326 221.821H127.194C123.288 221.821 120.777 219.17 120.777 215.404V130.584C120.777 126.817 123.288 124.167 127.194 124.167H163.326V152.068H148.678V138.117H135.425V207.87H148.678V189.735H163.326V221.821Z" fill="#3B3393"/>
<path d="M202.716 168.809L217.783 221.821H202.297L189.463 175.784H185.696V221.821H171.048V124.167H185.696V161.833H189.881L202.297 124.167H217.783L202.716 168.809Z" fill="#3B3393"/>
<path d="M237.33 207.87H251.978V138.117H237.33V207.87ZM260.209 221.821H229.099C225.193 221.821 222.682 219.17 222.682 215.404V130.584C222.682 126.817 225.193 124.167 229.099 124.167H260.209C264.115 124.167 266.626 126.817 266.626 130.584V215.404C266.626 219.17 264.115 221.821 260.209 221.821Z" fill="#3B3393"/>
<path d="M302.897 161.833V138.117H289.644V161.833H302.897ZM302.897 175.784H289.644V207.87H302.897V175.784ZM317.546 130.584V157.927C317.546 163.507 314.616 167.274 310.291 168.809C314.616 170.343 317.546 173.97 317.546 179.69V215.404C317.546 219.17 315.034 221.821 311.128 221.821H274.996V124.167H311.128C315.034 124.167 317.546 126.817 317.546 130.584Z" fill="#3B3393"/>
<path d="M368.498 221.821H332.366C328.46 221.821 325.949 219.17 325.949 215.404V130.584C325.949 126.817 328.46 124.167 332.366 124.167H368.498V152.068H353.85V138.117H340.597V207.87H353.85V189.735H368.498V221.821Z" fill="#3B3393"/>
<path d="M407.887 168.809L422.954 221.821H407.469L394.634 175.784H390.868V221.821H376.22V124.167H390.868V161.833H395.053L407.469 124.167H422.954L407.887 168.809Z" fill="#3B3393"/>
<path d="M442.501 207.87H457.149V138.117H442.501V207.87ZM465.38 221.821H434.27C430.364 221.821 427.853 219.17 427.853 215.404V130.584C427.853 126.817 430.364 124.167 434.27 124.167H465.38C469.286 124.167 471.797 126.817 471.797 130.584V215.404C471.797 219.17 469.286 221.821 465.38 221.821Z" fill="#3B3393"/>
<path d="M480.168 124.167H515.044V138.117H494.816V221.821H480.168V124.167Z" fill="#3B3393"/>
<path d="M535.278 207.87H549.926V138.117H535.278V207.87ZM558.157 221.821H527.047C523.141 221.821 520.63 219.17 520.63 215.404V130.584C520.63 126.817 523.141 124.167 527.047 124.167H558.157C562.063 124.167 564.574 126.817 564.574 130.584V215.404C564.574 219.17 562.063 221.821 558.157 221.821Z" fill="#3B3393"/>
<path d="M42.621 345.516H6.48904C2.58288 345.516 0.0717773 342.865 0.0717773 339.099V254.279C0.0717773 250.513 2.58288 247.862 6.48904 247.862H42.621V275.763H27.9729V261.812H14.7199V331.565H27.9729V313.43H42.621V345.516Z" fill="#EB3333"/>
<path d="M50.3429 247.862H94.9847V345.516H80.3366V261.812H64.991V345.516H50.3429V247.862Z" fill="#EB3333"/>
<path d="M117.987 331.565H132.635V261.812H117.987V331.565ZM140.866 345.516H109.756C105.85 345.516 103.339 342.865 103.339 339.099V254.279C103.339 250.513 105.85 247.862 109.756 247.862H140.866C144.772 247.862 147.283 250.513 147.283 254.279V339.099C147.283 342.865 144.772 345.516 140.866 345.516Z" fill="#EB3333"/>
<path d="M170.301 261.812V299.479H184.252V261.812H170.301ZM192.483 313.43H170.301V345.516H155.653V247.862H192.483C196.389 247.862 198.9 250.513 198.9 254.279V307.012C198.9 310.779 196.389 313.43 192.483 313.43Z" fill="#EB3333"/>
<path d="M203.816 261.812V247.862H246.365V261.812H232.414V345.516H217.766V261.812H203.816Z" fill="#EB3333"/>
<path d="M251.972 247.862H295.219V345.516H280.571V313.43H266.62V345.516H251.972V247.862ZM280.571 299.479V261.812H266.62V299.479H280.571Z" fill="#EB3333"/>
</svg>
