<svg xmlns="http://www.w3.org/2000/svg" width="228" height="76" viewBox="0 0 228 76" fill="none">
  <rect width="228" height="76" fill="#BBCE00"/>
  <path d="M90.6638 24.6627C90.6471 29.6868 90.0094 34.5668 87.392 38.992C85.5121 42.1695 82.8947 44.5707 79.5452 46.1123C78.1866 46.7389 77.4103 47.0938 78.6746 48.7519C80.5767 51.2418 81.0425 54.264 80.9371 57.3805C80.8928 58.7724 80.4436 59.7817 78.9907 59.8926C77.4713 60.0091 76.5951 59.1717 76.4343 57.6301C76.3566 56.8981 76.2624 56.1661 76.1459 55.4397C75.3308 50.41 72.8575 48.3582 67.8944 48.58C63.0699 48.7963 60.824 51.0033 60.3859 55.9554C60.3526 56.3214 60.3249 56.6874 60.3027 57.0589C60.1918 58.6837 59.6983 60.0922 57.7241 59.876C55.8941 59.6763 55.4006 58.2955 55.4949 56.6486C55.6612 53.6707 56.2213 50.776 58.1012 48.3748C58.9829 47.2491 58.8332 46.8665 57.5855 46.2565C49.8219 42.4745 46.5113 35.8866 46.0677 27.5851C45.9568 25.4723 46.0067 23.3485 46.0455 21.2357C46.0732 19.805 46.8718 19.012 48.3136 19.0341C49.7388 19.0563 50.4985 19.8493 50.5595 21.28C50.6648 23.8475 50.5761 26.4151 50.87 28.9937C52.2896 41.2434 62.4654 44.9034 71.2937 43.6391C80.793 42.2804 85.7228 36.3302 85.8504 26.6424C85.8725 25.0786 85.867 23.5148 85.8615 21.9455C85.8615 20.243 86.4825 19.0064 88.3735 19.0397C90.1591 19.073 90.6139 20.3761 90.6527 21.8956C90.6804 22.8161 90.6527 23.7366 90.6527 24.6572L90.6638 24.6627Z" fill="white"/>
  <path d="M127.99 34.5003C127.99 30.4522 128.034 26.3985 127.973 22.3503C127.935 19.9991 128.955 19.0342 131.306 19.0897C134.617 19.1728 137.95 18.951 141.177 19.8549C148.608 21.9344 152.551 28.5889 151.597 37.3007C150.859 44.0384 144.831 49.5616 137.7 49.9553C135.499 50.0773 133.28 49.911 131.079 50.044C128.75 50.1882 127.962 49.0736 127.985 46.9164C128.034 42.774 128.001 38.6316 127.996 34.4948L127.99 34.5003ZM146.828 34.7166C146.844 27.8902 142.33 23.4317 135.565 23.587C133.818 23.6258 132.815 24.319 132.826 26.2321C132.859 31.8441 132.842 37.456 132.837 43.0679C132.837 44.7648 133.624 45.5024 135.354 45.5911C142.064 45.9294 146.806 41.4764 146.828 34.7221V34.7166Z" fill="white"/>
  <path d="M98.7048 34.7057C98.7048 30.5633 98.7491 26.4265 98.6881 22.2841C98.6549 20.0936 99.5421 19.0234 101.788 19.1066C104.45 19.2064 107.106 19.0566 109.768 19.4615C117.803 20.6814 122.833 26.9644 122.428 35.4433C122.04 43.5174 116.212 49.5397 108.326 49.9556C106.213 50.0665 104.089 49.9001 101.982 50.0443C99.5865 50.2107 98.6382 49.207 98.6881 46.8446C98.7713 42.7965 98.7103 38.7483 98.7103 34.7002L98.7048 34.7057ZM103.574 34.3231C103.574 37.1734 103.612 40.0238 103.557 42.8741C103.524 44.7096 104.267 45.5137 106.152 45.5858C112.901 45.852 117.52 41.4489 117.47 34.617C117.415 26.92 112.712 23.8201 106.169 23.5817C104.405 23.5151 103.496 24.4301 103.551 26.3211C103.635 28.9829 103.574 31.6558 103.568 34.3231H103.574Z" fill="white"/>
  <path d="M176.983 47.8813C176.723 48.9682 176.368 49.7723 175.353 50.105C174.105 50.5154 173.163 50.0606 172.542 49.007C171.094 46.5615 169.702 44.0772 168.283 41.6095C166.658 38.7813 166.453 38.7702 164.85 41.4708C163.442 43.8387 162.022 46.201 160.652 48.5911C159.859 49.9719 158.772 50.7372 157.27 49.9165C155.55 48.9793 155.878 47.5874 156.748 46.1567C158.612 43.1012 160.336 39.9569 162.31 36.968C163.575 35.0548 163.758 33.4411 162.438 31.4448C160.719 28.844 159.305 26.0491 157.741 23.3485C157.031 22.1229 156.671 20.8808 158.135 20.0157C159.626 19.134 160.885 19.3891 161.778 21.0804C162.893 23.1877 164.168 25.2117 165.327 27.3023C166.331 29.1101 167.235 29.0436 168.222 27.2913C169.347 25.2894 170.612 23.3651 171.676 21.3355C172.658 19.4556 174.089 19.7273 175.519 20.4316C177.36 21.341 176.257 22.5832 175.636 23.6479C174.017 26.4262 172.408 29.21 170.667 31.9106C169.641 33.5021 169.619 34.8552 170.617 36.48C172.536 39.6076 174.299 42.835 176.113 46.0291C176.468 46.6613 176.739 47.3434 177 47.8924L176.983 47.8813Z" fill="white"/>
  <path d="M68.3936 19.0068C71.3327 19.0068 74.2662 18.9957 77.2053 19.0068C79.5066 19.0179 80.7654 20.1547 80.9151 22.4948C81.4087 30.0976 76.7339 35.837 69.7744 36.1587C60.9905 36.5635 55.6725 31.8887 55.4895 23.5873C55.4119 20.3599 56.654 19.0456 59.8593 19.0123C62.7041 18.9846 65.5488 19.0123 68.3936 19.0123V19.0068ZM68.1774 23.5873C66.3363 23.5873 64.5008 23.5429 62.6597 23.5984C61.0959 23.6483 60.2696 24.408 60.5746 26.0827C61.168 29.3545 64.168 31.495 68.2162 31.5172C72.17 31.5394 75.1368 29.5818 75.8411 26.4764C76.2459 24.6853 75.708 23.5817 73.695 23.5762C71.8539 23.5762 70.0184 23.5762 68.1774 23.5762V23.5873Z" fill="white"/>
</svg>