<svg xmlns="http://www.w3.org/2000/svg" width="228" height="76" viewBox="0 0 228 76" fill="none">
  <rect width="228" height="76" fill="#BBCE00"/>
  <path fill-rule="evenodd" clip-rule="evenodd" d="M91.8248 33.7351C91.9855 33.8241 92.1488 33.9106 92.3068 34.0021L91.8248 33.7351ZM78.0932 46.3073C77.7965 46.7352 77.6383 47.1431 77.2453 47.5435C77.0821 47.7091 76.3875 48.5321 76.2219 48.5321C76.1329 48.5321 74.9612 47.4743 74.7906 47.3307C74.5484 47.115 74.2674 46.9474 73.9625 46.8365C73.2209 46.5893 73.5448 46.8808 73.6906 46.248L73.7895 46.1939V46.0949C73.8637 45.8181 74.4619 44.4164 75.201 44.0209C75.51 43.8553 75.379 43.6056 75.4605 43.5265L75.6608 43.5784L75.9574 43.744L75.7102 43.5265L75.5619 43.4672V43.22L75.7473 42.1397L75.7794 42.0829V42.0211L75.8585 41.4451L77.1365 41.7245C77.448 41.9074 78.3873 42.0062 78.9114 42.0062H79.2154L79.873 41.9543H80.1201L80.1745 41.8554H80.3278L80.6294 41.7541L80.7283 41.6972L80.9754 42.3128V42.4141L81.0768 42.5649C81.1693 42.9148 81.2419 43.2697 81.2943 43.6279C81.3364 43.7366 81.7418 43.8058 81.9494 44.4238C82.3058 44.9962 82.6222 45.5925 82.8962 46.2086L82.9975 46.4113L83.0568 46.5621C82.5303 46.6214 80.1424 48.3865 80.1152 48.3865C80.088 48.3865 79.1759 47.5015 79.0745 47.3976C78.9084 47.2253 78.7532 47.0429 78.6098 46.8513C78.4516 46.6487 78.3849 46.4139 78.2415 46.206V46.1047C78.061 46.1542 78.108 46.1047 78.0907 46.3073H78.0932ZM78.5875 17C70.1829 20.6066 62.9327 26.1462 57 32.9367C57.8429 42.12 60.4607 50.5912 65.2094 58.1877C74.1652 60.4544 83.0371 60.5262 91.815 58.1877C96.5586 50.8162 99.3643 42.4339 100.034 32.9391C94.0125 26.0523 86.9032 20.5176 78.5777 17H78.5875ZM78.5875 18.3596C70.6946 21.7387 63.9116 26.9199 58.3546 33.2852C59.1531 41.8925 61.6053 49.8226 66.0547 56.9342C74.4421 59.0576 82.7503 59.1245 90.972 56.9342C95.4215 50.0302 98.0419 42.1793 98.6695 33.2852C93.0285 26.8384 86.3717 21.6547 78.5752 18.3596H78.5875ZM70.398 27.9235L71.9627 27.9779C71.9823 28.369 71.9191 28.7599 71.7773 29.1249C71.6477 29.4492 71.4365 29.7344 71.1643 29.953C70.8311 30.2066 70.4476 30.3861 70.0396 30.4795C69.5598 30.6271 69.0541 30.6701 68.5564 30.6056C68.1027 30.5144 67.6864 30.2908 67.3599 29.9629C66.9428 29.5381 66.6518 29.0058 66.5195 28.4254C66.2723 27.533 66.3316 26.784 66.6752 26.1808C67.0188 25.5777 67.617 25.1599 68.4748 24.9275C69.0261 24.7486 69.6192 24.7442 70.173 24.9152C70.6728 25.1217 71.0924 25.4841 71.3694 25.9485L69.9951 26.6678C69.929 26.5498 69.8457 26.4423 69.7479 26.3489C69.6267 26.2492 69.4835 26.1797 69.3301 26.1462C69.172 26.1129 69.0082 26.1189 68.853 26.1635C68.6793 26.2005 68.5187 26.2836 68.3883 26.4041C68.2578 26.5246 68.1621 26.678 68.1114 26.8483C68.0244 27.2204 68.0449 27.6096 68.1707 27.9705C68.3356 28.5687 68.535 28.9544 68.769 29.1274C69.0111 29.2742 69.3007 29.3217 69.5771 29.26C69.8536 29.1982 70.0954 29.0321 70.2521 28.7961C70.3747 28.5226 70.4241 28.2219 70.3955 27.9235H70.398ZM88.6584 30.3955C88.7311 30.3965 88.8017 30.4191 88.8613 30.4605C88.9213 30.5019 88.9673 30.5601 88.9936 30.6278C89.0203 30.6954 89.0261 30.7694 89.0104 30.8404C88.9945 30.9113 88.958 30.976 88.9056 31.0261C88.8529 31.0763 88.7866 31.1096 88.7151 31.1219C88.6433 31.1342 88.5698 31.1249 88.5035 31.0951C88.4372 31.0654 88.3811 31.0166 88.3429 30.955C88.3044 30.8933 88.285 30.8216 88.2876 30.749C88.2902 30.6504 88.3316 30.5569 88.4028 30.4888C88.4743 30.4207 88.5695 30.3836 88.6682 30.3856L88.6584 30.3955ZM84.4411 29.3647C84.5126 29.3681 84.5816 29.3924 84.6394 29.4346C84.6973 29.4768 84.7415 29.535 84.7666 29.6021C84.7916 29.6692 84.7964 29.7421 84.7804 29.8119C84.7644 29.8817 84.7283 29.9453 84.6765 29.9947C84.6247 30.0442 84.5595 30.0773 84.4891 30.0901C84.4186 30.1029 84.346 30.0947 84.2801 30.0666C84.2143 30.0384 84.1581 29.9916 84.1186 29.9319C84.0791 29.8722 84.0581 29.8022 84.058 29.7305C84.0589 29.6813 84.0696 29.6327 84.0894 29.5877C84.1092 29.5426 84.1378 29.5019 84.1734 29.4679C84.209 29.4339 84.251 29.4072 84.2969 29.3895C84.3429 29.3718 84.3919 29.3634 84.4411 29.3647ZM78.595 28.7245C78.6666 28.7274 78.7358 28.7513 78.794 28.7932C78.8522 28.8351 78.8968 28.8932 78.9222 28.9603C78.9476 29.0273 78.9528 29.1004 78.9371 29.1703C78.9213 29.2403 78.8853 29.3041 78.8336 29.3538C78.7819 29.4035 78.7168 29.4369 78.6462 29.4498C78.5757 29.4628 78.5029 29.4547 78.4369 29.4267C78.3709 29.3986 78.3146 29.3517 78.2751 29.2919C78.2355 29.2321 78.2143 29.162 78.2143 29.0903C78.2169 28.9915 78.2583 28.8977 78.3295 28.8293C78.4008 28.7608 78.4961 28.7231 78.595 28.7245ZM72.4497 29.2881C72.5214 29.291 72.5906 29.3149 72.6488 29.3568C72.7069 29.3987 72.7515 29.4568 72.7769 29.5239C72.8024 29.5909 72.8075 29.664 72.7918 29.7339C72.776 29.8039 72.7401 29.8677 72.6884 29.9174C72.6367 29.9671 72.5715 30.0005 72.5009 30.0135C72.4304 30.0264 72.3576 30.0183 72.2916 29.9903C72.2257 29.9622 72.1694 29.9153 72.1298 29.8555C72.0902 29.7958 72.0691 29.7256 72.069 29.6539C72.07 29.6049 72.0806 29.5566 72.1002 29.5116C72.1199 29.4667 72.1482 29.4261 72.1835 29.3921C72.2189 29.3582 72.2606 29.3315 72.3063 29.3136C72.3519 29.2958 72.4007 29.2871 72.4497 29.2881ZM76.8596 27.2462L78.3774 27.6244C78.3153 28.011 78.1721 28.3799 77.9572 28.7072C77.7635 28.9972 77.4988 29.2329 77.1884 29.3919C76.8087 29.5689 76.396 29.6641 75.9772 29.6712C75.4752 29.7166 74.9693 29.6534 74.494 29.4858C74.0688 29.3023 73.7075 28.9969 73.4558 28.6083C73.1389 28.1053 72.9677 27.5243 72.9614 26.9298C72.9119 26.0078 73.1196 25.286 73.5794 24.7669C74.0391 24.2478 74.714 23.9635 75.6014 23.9165C76.1769 23.8539 76.7575 23.9723 77.2626 24.2552C77.7095 24.5608 78.0452 25.0032 78.2192 25.5159L76.736 25.9336C76.6914 25.7988 76.6255 25.6719 76.5408 25.5579C76.4413 25.4397 76.3162 25.3459 76.1749 25.2835C75.9376 25.1842 75.6724 25.1735 75.4279 25.2534C75.1833 25.3332 74.9756 25.4983 74.8425 25.7186C74.6798 26.0644 74.6181 26.4491 74.6646 26.8285C74.6959 27.4465 74.8112 27.8651 75.0106 28.0842C75.1113 28.1935 75.2362 28.2778 75.3753 28.3301C75.5144 28.3825 75.6638 28.4016 75.8116 28.3858C75.948 28.389 76.0836 28.3624 76.2087 28.3077C76.3338 28.2531 76.4454 28.1717 76.5358 28.0694C76.7133 27.8277 76.8249 27.544 76.8596 27.2462ZM83.173 27.5354L84.624 28.1213C84.5078 28.4948 84.315 28.8399 84.058 29.1348C83.8249 29.3946 83.5298 29.5911 83.2002 29.7058C82.8005 29.8288 82.3793 29.8659 81.9642 29.8146C81.4607 29.7889 80.9684 29.6558 80.5206 29.424C80.127 29.182 79.8132 28.8295 79.6183 28.4105C79.3709 27.8696 79.2793 27.2703 79.3538 26.6801C79.4363 25.7606 79.7403 25.0759 80.266 24.626C80.7917 24.1761 81.4987 23.989 82.3869 24.0648C82.9662 24.0815 83.5255 24.2795 83.9863 24.6309C84.3862 24.9958 84.6569 25.4807 84.7575 26.0127L83.2249 26.2179C83.2021 26.0828 83.157 25.9525 83.0914 25.8323C83.0136 25.6961 82.9032 25.5815 82.7701 25.4986C82.6334 25.4139 82.4781 25.3638 82.3177 25.3527C82.1424 25.3289 81.9639 25.3526 81.8008 25.4213C81.6378 25.49 81.4962 25.6012 81.3907 25.7433C81.1811 26.0633 81.0662 26.4361 81.0595 26.8186C81.0084 27.4333 81.0644 27.8634 81.2276 28.109C81.3112 28.23 81.4216 28.3303 81.5502 28.4018C81.6788 28.4734 81.8222 28.5145 81.9692 28.5218C82.1039 28.5433 82.2417 28.5354 82.3731 28.4987C82.5045 28.462 82.6264 28.3974 82.7305 28.3092C82.9431 28.0943 83.0956 27.8276 83.173 27.5354ZM86.7327 24.8163L89.4739 25.5579C90.0723 25.7186 90.4802 25.9806 90.71 26.3489C90.8218 26.5522 90.8901 26.7765 90.9106 27.0076C90.9309 27.2387 90.9031 27.4715 90.8287 27.6912C90.7789 27.9295 90.6793 28.1546 90.5366 28.3518C90.3939 28.549 90.2112 28.7139 90.0005 28.8357C89.5952 29.0532 89.0588 29.0829 88.3938 28.8975L87.4915 28.6503L86.9576 30.6476L85.2989 30.2052L86.7327 24.8163ZM87.7734 27.5577L88.0971 26.3563L88.5669 26.4824C88.7979 26.5165 89.0067 26.6399 89.1476 26.826C89.1879 26.8975 89.2134 26.9764 89.2223 27.058C89.231 27.1396 89.2235 27.2221 89.1997 27.3006C89.1804 27.3824 89.1427 27.4587 89.0897 27.5238C89.0365 27.5889 88.9693 27.6411 88.8932 27.6763C88.661 27.7562 88.408 27.7519 88.1787 27.664L87.7734 27.5577ZM92.5393 33.3544C92.5746 33.3559 92.6088 33.3677 92.6374 33.3884C92.6661 33.4091 92.6881 33.4377 92.7006 33.4708C92.713 33.5039 92.7156 33.5399 92.7078 33.5744C92.7 33.6089 92.6823 33.6404 92.6568 33.6649C92.6314 33.6894 92.5992 33.7058 92.5645 33.7122C92.5295 33.7186 92.4936 33.7146 92.4611 33.7008C92.4287 33.6869 92.4009 33.6638 92.3812 33.6343C92.3618 33.6048 92.3514 33.5702 92.3514 33.5349C92.3517 33.5106 92.3569 33.4867 92.3665 33.4645C92.376 33.4422 92.3902 33.4221 92.4076 33.4053C92.425 33.3886 92.4458 33.3754 92.4684 33.3667C92.491 33.3579 92.515 33.3538 92.5393 33.3544ZM64.134 33.263C64.1594 33.2623 64.1846 33.2667 64.2082 33.2757C64.2319 33.2848 64.2535 33.2985 64.2719 33.3159C64.2902 33.3334 64.305 33.3543 64.3153 33.3774C64.3255 33.4005 64.3312 33.4255 64.3318 33.4508C64.3315 33.4987 64.3129 33.5447 64.2799 33.5794V33.6016H64.2527C64.229 33.6207 64.201 33.6338 64.1712 33.6399C64.1413 33.6459 64.1104 33.6447 64.0811 33.6363C64.0519 33.628 64.025 33.6127 64.0028 33.5918C63.9807 33.5709 63.9638 33.545 63.9538 33.5162C63.9437 33.4875 63.9407 33.4568 63.9449 33.4266C63.9492 33.3964 63.9607 33.3677 63.9783 33.3429C63.996 33.3181 64.0194 33.2979 64.0465 33.284C64.0735 33.2701 64.1036 33.2629 64.134 33.263ZM88.2135 55.9778L87.6226 55.5502C86.9327 55.3672 86.7993 54.6774 86.4583 54.1855L85.3211 51.8768C85.1728 51.244 84.3052 50.5912 84.2285 50.2971C84.2285 50.0154 83.8429 49.6816 83.7539 49.3528C83.6921 49.1255 83.6427 48.4406 83.5759 48.2258C83.5092 48.0107 82.9431 46.8166 82.9431 46.8142C82.9431 46.7103 83.131 46.6733 83.2472 46.6634C83.2472 46.1171 81.8629 44.0184 81.5761 43.4227V43.3189L81.4698 43.1705L81.0669 42.0062V41.9024L80.9631 41.7516L80.9087 41.5044L80.7604 41.4426C80.7604 41.1213 80.6071 40.8988 80.6071 40.533C80.6071 39.6727 80.8172 39.4329 80.9631 38.8026L81.1633 38.3972L81.4674 37.7891L81.5687 37.5419C81.7071 36.9511 81.764 36.919 82.1966 36.6001C82.8838 36.1057 82.7108 35.8709 83.5438 35.8709H83.9467C84.4411 35.8709 85.991 35.4531 86.4756 35.2751C87.0416 35.29 87.0862 35.3987 87.7757 35.2751C88.4581 35.1314 89.1216 34.9099 89.7533 34.6151L90.1067 34.4643L91.4911 33.9922L91.5629 33.9675C91.5617 33.9765 91.5617 33.9856 91.5629 33.9947C91.6485 34.1946 91.8017 34.3582 91.9954 34.4569C92.185 34.5345 92.3891 34.5691 92.5937 34.5583C93.1423 34.541 93.3525 34.0639 93.4761 33.9675H93.7801L93.7233 33.8167L93.6715 33.6659V33.5695L93.5725 33.5126C93.4266 32.8872 93.1869 32.5016 92.4082 32.5016C92.2012 32.5013 92 32.5695 91.8358 32.6956C91.6717 32.8217 91.5539 32.9986 91.5009 33.1987C91.2818 33.199 91.0629 33.2155 90.8461 33.2481C90.4116 33.3333 89.9709 33.3838 89.5283 33.3989C88.8498 33.3622 88.1692 33.4137 87.5039 33.5522L87.3531 33.6535L87.0514 33.7846L84.9232 33.6016H84.1643C83.7857 33.5983 83.4102 33.6697 83.0593 33.8117C82.9623 33.8545 82.8586 33.8796 82.7528 33.8859H82.6935C82.4621 33.8257 82.2266 33.7827 81.989 33.7573C81.7117 33.7586 81.4358 33.796 81.1682 33.8686C81.0334 33.9041 80.9019 33.9512 80.7752 34.0095C80.5725 34.1108 80.3545 34.1785 80.1301 34.2097H79.7617C79.6159 34.2097 79.5145 34.0342 79.4552 33.8439C79.4253 33.7495 79.4095 33.6512 79.4082 33.5522V33.3495C79.3969 33.2584 79.405 33.166 79.4318 33.0783C79.4586 32.9905 79.5037 32.9094 79.564 32.8403C79.5887 32.818 79.6084 32.8996 79.6431 32.8749C79.8161 32.7463 79.7988 32.5609 79.8903 32.3805L80.0188 32.1333C79.9669 32.0641 79.9174 32.1333 79.8655 32.1333V32.0344C79.8655 31.451 79.8655 31.0704 79.7321 30.7811C79.603 30.5183 79.3849 30.3098 79.1165 30.1928L78.7853 30.1681C78.6815 30.1681 78.6271 30.0914 78.5381 30.089C78.024 30.089 77.626 30.089 77.2799 30.4004C77.1543 30.507 77.0437 30.63 76.9511 30.7663C76.7954 31.0135 76.788 31.2854 76.788 31.8811V32.0838C76.6669 31.9825 76.6718 32.0542 76.6273 32.0838L76.7113 32.2371L76.8423 32.7315C76.9561 32.907 76.9338 32.7315 77.0005 32.7513C77.0544 32.8093 77.1016 32.8732 77.1414 32.9416C77.2464 33.2226 77.2543 33.5307 77.1637 33.8167C77.1637 33.8463 77.1637 33.876 77.1439 33.9057C77.1093 34.0342 77.045 34.1529 76.8967 34.1529H76.474C76.3892 34.1504 76.3055 34.1328 76.2268 34.101L75.9796 33.9996C75.7537 33.902 75.5173 33.8307 75.2751 33.787C75.1571 33.7628 75.0371 33.7496 74.9167 33.7475C74.7975 33.7489 74.6785 33.7588 74.5608 33.7771C74.3614 33.8139 74.16 33.8378 73.9576 33.8488C73.7952 33.845 73.6344 33.8167 73.4805 33.7648C73.1973 33.645 72.897 33.5708 72.5906 33.5448C71.7214 33.5151 70.8515 33.5764 69.9951 33.7277L69.6514 33.8018L69.5007 33.7153L69.2856 33.5942C68.6305 33.3322 68.0125 33.347 67.308 33.347C66.8723 33.3339 66.4379 33.2918 66.0078 33.2209C65.8542 33.2049 65.6999 33.1975 65.5455 33.1987L65.2983 33.1468C65.0882 33.127 65.2983 33.174 65.1475 33.0973C64.7644 32.6549 64.6532 32.4373 64.0352 32.4373C63.6718 32.4373 63.17 32.8353 63.1972 33.2432C63.1972 33.2852 63.1131 33.2753 63.0909 33.3297C63.0327 33.55 62.9938 33.775 62.9747 34.0021C63.1057 34.0021 63.2466 33.9576 63.1947 33.9353C63.3925 34.1034 63.4889 34.4717 63.9833 34.5138C64.4776 34.5558 64.8509 34.4273 65.0462 34.0589L65.1475 34.007H65.2489L66.7172 34.5014C67.2486 34.7098 67.7958 34.8751 68.3537 34.9958C68.6948 35.0749 69.775 35.1491 69.9555 35.2158C70.9163 35.5584 71.9209 35.7632 72.9391 35.8239C73.4014 35.8239 73.6807 35.7745 73.834 35.9871C73.9452 36.1972 74.5064 36.4567 74.6917 36.5927C74.9389 36.7781 74.9389 37.5394 75.0996 37.7841C75.4226 38.3015 75.6503 38.8724 75.772 39.47L75.8733 39.7741L75.9277 40.3352V40.7406C75.9381 40.9461 75.913 41.1518 75.8536 41.3487L75.725 41.3981C75.725 41.3981 75.6682 41.8283 75.636 41.9988C75.636 42.0211 75.6756 42.0384 75.6707 42.0606C75.6657 42.0829 75.6237 42.0606 75.599 42.1916C75.5149 42.6415 75.4284 42.9481 75.4012 43.0494C75.3455 43.2859 75.2475 43.5103 75.112 43.7119C75.0477 43.8058 74.9637 43.8281 74.8895 43.922C74.8154 44.0159 74.761 44.1865 74.6819 44.3027C74.3852 44.7501 73.2951 46.3595 73.2951 46.9156H73.5992C73.572 47.2444 73.3001 47.7363 73.2037 48.0897C73.1443 48.3121 73.1221 48.6606 73.0627 48.8957C72.996 49.1724 72.8922 49.1429 72.8403 49.3455L72.7389 49.5482C72.6252 50.0426 72.0369 50.5617 71.7501 51.0312C71.4259 51.5567 71.148 52.109 70.9195 52.6825L70.4647 53.6442L70.3634 53.8468C70.0494 54.4475 69.6762 55.6515 68.9469 55.8243L68.6429 55.9259C68.0743 55.9381 67.4885 56.3807 67.2265 56.3807H66.7321V56.5339C66.7321 56.7811 67.7209 56.7365 67.9952 56.7365L68.2993 56.6352L68.9568 56.5834C69.3103 56.5463 69.5674 56.7365 69.869 56.7365H70.4252C70.6723 56.7365 70.6723 56.3781 70.6723 56.1286C70.6431 55.8542 70.6778 55.5765 70.7737 55.3177C71.0011 54.722 71.7625 54.1881 72.2025 53.7629C72.8526 53.1399 73.1048 53.0064 73.5744 52.1461C73.7447 51.8106 73.8853 51.4606 73.9947 51.1004C74.1113 50.736 74.2492 50.3787 74.4075 50.0302C74.5311 49.8423 75.7819 48.5891 75.9673 48.5891C75.9673 48.5891 76.2145 48.7645 76.2713 48.7917C76.6224 48.5445 78.0314 46.9848 78.1426 46.567H78.2439C78.4021 47.2444 79.8779 48.2629 79.9743 48.5914C80.3476 48.5914 80.1844 48.4927 80.2759 48.4927C80.7703 48.4927 81.5366 49.5259 81.8827 49.8721C82.2162 50.2441 82.4973 50.6598 82.7182 51.108L83.0099 51.9929C83.1705 52.6825 84.1222 53.7504 84.6636 54.1485C85.0492 54.4328 85.3805 54.9617 85.6524 55.3623C85.9465 55.8046 85.8996 56.8008 86.253 56.8008H86.8612C87.1612 56.7327 87.4648 56.6824 87.7708 56.65H88.0748C88.3741 56.65 88.4902 56.8008 88.7325 56.8008C88.9748 56.8008 89.9487 56.8428 89.9487 56.5981V56.5486C90.0054 56.4004 89.8844 56.6549 89.207 56.3286C88.8851 56.1957 88.5548 56.0834 88.2184 55.9925L88.2135 55.9778ZM64.3392 34.0985C63.8152 34.1677 63.4963 33.9279 63.4716 33.5003C63.4605 33.4047 63.4712 33.308 63.5028 33.2172C63.5344 33.1263 63.5861 33.0438 63.6541 32.9758C63.7221 32.9078 63.8046 32.8561 63.8954 32.8245C63.9862 32.7929 64.083 32.7822 64.1785 32.7933C64.7323 32.86 64.8633 33.1814 64.8361 33.5349C64.8217 33.6686 64.7666 33.7946 64.6781 33.8959C64.5897 33.9971 64.4722 34.0687 64.3417 34.101L64.3392 34.0985ZM80.2685 47.5238L80.3673 47.5805L80.3204 47.4222C80.3163 47.2687 80.2674 47.1197 80.1795 46.9934C80.0916 46.8675 79.9687 46.77 79.826 46.7129C79.7197 46.6214 79.4255 46.3791 79.3316 46.3073C79.2748 46.0923 79.2303 46.2208 79.2303 46.0601V45.7067C79.2311 45.5973 79.2666 45.4908 79.3316 45.4027L79.6357 44.9454C79.7716 44.8539 80.0979 44.676 80.1918 44.5919C80.0742 44.592 79.9582 44.6195 79.8531 44.6723C79.748 44.7251 79.6566 44.8017 79.5862 44.896L79.2921 45.2124V45.3014C79.0449 45.4769 79.0449 45.8476 78.6345 45.8575L79.2401 46.3644L79.7345 46.7697L80.2907 47.5287L80.2685 47.5238ZM75.7152 47.0638L75.6583 47.2123L75.7646 47.1133L76.3801 46.206V45.5436V45.4423H76.2787V45.5955C76.2367 46.1073 75.9178 46.6559 75.7226 47.0638H75.7152ZM78.4985 42.7132H79.915C80.0306 42.6837 80.1351 42.6213 80.2158 42.5336C80.2965 42.4458 80.3501 42.3364 80.3698 42.2188L80.0435 42.6044L79.9644 42.6218V42.2683L79.7691 42.6762H79.1561C79.1165 42.6193 79.0374 42.4735 78.9534 42.4735C78.8026 42.4735 78.8174 42.5748 78.5999 42.5748C78.454 42.5748 78.506 42.56 78.4466 42.4735V42.3672L78.3453 42.4685L78.2044 42.6317L77.9424 42.5699L77.8435 42.5105V42.3177H77.7916C77.7916 42.513 77.7916 42.4784 77.6408 42.5204L77.3936 42.4685L77.1909 42.4191V42.12H77.1513L77.092 42.3672H76.7385V42.2708L76.6372 42.3227H76.4221V42.424H76.5754C77.0203 42.6366 77.8113 42.7256 78.4985 42.7256V42.7132ZM91.8052 33.5003V33.6016C91.8052 33.6468 91.8118 33.6918 91.8248 33.7351C91.8549 33.8339 91.9073 33.9244 91.978 33.9996C92.0535 34.0798 92.1441 34.1443 92.2449 34.1893C92.3453 34.2343 92.4539 34.2589 92.5639 34.2616H92.6134C92.7825 34.2331 92.9365 34.1468 93.0494 34.0174C93.162 33.8881 93.2263 33.7237 93.2315 33.5522C93.2268 33.3654 93.1507 33.1875 93.0187 33.0554C92.8867 32.9233 92.7087 32.8471 92.5219 32.8427C92.3456 32.8547 92.1786 32.9263 92.0483 33.0458C91.9178 33.1653 91.8321 33.3256 91.8052 33.5003Z" fill="white"/>
  <path fill-rule="evenodd" clip-rule="evenodd" d="M115.531 22.1616V24.2825H113.909V23.6201H112.07V27.5134H113.909V26.8534H115.531V28.9743H110.456V22.1616H115.531ZM172 48.5473V41.7444H170.378L168.238 45.8108V41.7444H166.616V48.5473H168.238L170.378 44.4883V48.5473H172ZM170.656 41.1511V39.9349H167.956V41.1511H170.656ZM135.85 41.7444V44.5377H137.633V41.7444H139.262V48.5473H134.229V47.0889H137.633V45.9888H134.229V41.737L135.85 41.7444ZM115.689 41.7444V43.8653H114.067V43.2029H112.231V47.0961H114.067V46.4337H115.689V48.5473H110.609V41.7444H115.689ZM115.719 55.4687V50.6979H110.636V57.5131H112.258V55.4687H115.719ZM114.097 54.0054H112.258V52.1564H114.097V54.0054ZM121.61 57.5105V50.6979H116.52V57.5105H121.61ZM119.981 56.0494H118.149L118.151 52.1564H119.981V56.0494ZM127.554 50.6979V52.8187H125.933V52.1564H124.096V56.0494H125.933V55.3871H127.554V57.5105H122.475V50.6979H127.554ZM133.393 52.8187V50.6979H128.311V57.5105H133.393V55.3871H131.772V56.0494H129.933V52.1564H131.772V52.8187H133.393ZM139.534 50.6979V57.5105H137.912V53.4417L135.771 57.5105H134.15V50.6979H135.771V54.7667L137.912 50.6979H139.534ZM145.78 57.5105V50.6979H144.158L142.018 54.7667V50.6979H140.399V57.5105H142.018L144.158 53.4417V57.5105H145.78ZM121.528 48.5473V41.7444H116.446V48.5473H121.528ZM119.906 47.0961H118.067V43.2029H119.906V47.0961ZM127.473 41.7444V48.5473H122.391V41.7444H127.473ZM124.012 47.0961H125.851V43.2029H124.012V47.0961ZM133.418 46.5128V41.7444H128.336V48.5473H129.957V46.5128H133.418ZM131.794 45.0519H129.957V43.2029H131.794V45.0519ZM143.19 48.5473H144.811V45.8429H145.244L146.692 48.5473H148.423L146.539 45.0321L148.312 41.7444H146.658L145.241 44.3919H144.809V41.7444H143.187V44.3844H142.754L141.341 41.737H139.684L141.459 45.0247L139.578 48.5473H141.308L142.757 45.8504H143.19V48.5473ZM153.72 41.7444V43.2029H150.368V44.4191H152.076V45.88H150.368V47.0961H153.72V48.5473H148.747V41.7444H153.72ZM156.044 44.3919V41.7444H154.422V48.5473H156.044V45.8504H157.88V48.5473H159.502V41.7444H157.88V44.3919H156.044ZM165.751 41.7444V48.5473H164.13V44.4883L161.989 48.5473H160.367V41.7444H161.989V45.8108L164.13 41.7444H165.751ZM121.266 23.6201V22.1616H116.295V28.9768H121.266V27.5159H117.917V26.2997H119.624V24.8387H117.917V23.6201H121.266ZM126.672 22.1616V23.6201H124.942V28.9743H123.32V23.6201H121.59V22.1616H126.672ZM127.149 22.1616V23.6201V28.9743H132.12V24.6632H128.771V22.1616H127.149ZM130.501 27.5134H128.771V26.1217H130.501V27.5134ZM115.62 31.8838V34.0047H113.998V33.3447H112.159V37.238H113.998V36.5756H115.62V38.6965H110.54V31.8838H115.62ZM121.464 38.6965V31.8838H116.381V38.6965H118.003V33.3447H119.842V38.6965H121.464ZM127.396 31.8838V38.6965H122.321V31.8838H127.396ZM123.936 37.238H125.775V33.3447H123.936V37.238ZM133.349 36.6522V31.8838H128.266V38.6965H129.888V36.6522H133.349ZM131.727 35.1987H129.888V33.3447H131.727V35.1987ZM138.678 31.8838V33.3447H136.948V38.6965H135.326V33.3447H133.596V31.8838H138.678ZM144.547 38.6965V31.8838H142.925L140.787 35.9526V31.8838H139.165V38.6965H140.787L142.925 34.6276V38.6965H144.547ZM150.494 31.8838V34.6029L149.553 35.2827L150.494 35.965V38.6841H145.412V31.8838H150.494ZM147.033 33.3447V34.6104H148.289L148.873 34.116V33.3447H147.033ZM147.033 37.238H148.873V36.4668L148.289 35.9724H147.033V37.238ZM152.979 34.5312V31.8838H151.36V38.6965H152.979V35.9922H154.818V38.6965H156.439V31.8838H154.818V34.5312H152.979ZM157.307 33.3447V31.8838H158.929V34.3854H162.276V38.6965H157.307V33.3447ZM158.929 37.238H160.659V35.8463H158.929V37.238ZM164.97 31.8838V38.6965H163.349V31.8838H164.97ZM167.039 38.6965L168.028 35.9922H168.47L169.459 38.6965H171.189L169.795 35.2605L171.081 31.8838H169.35L168.465 34.5312H168.033L167.145 31.8838H165.415L165.976 33.3447L166.7 35.2605L165.309 38.6965H167.039Z" fill="white"/>
</svg>