<svg xmlns="http://www.w3.org/2000/svg" width="228" height="76" viewBox="0 0 228 76" fill="none">
  <rect width="228" height="76" fill="#BBCE00"/>
  <mask id="mask0_94_2870" style="mask-type:luminance" maskUnits="userSpaceOnUse" x="58" y="17" width="116" height="41">
    <path d="M173.218 17.9326H58.3481V57.7421H173.218V17.9326Z" fill="white"/>
  </mask>
  <g mask="url(#mask0_94_2870)">
    <path d="M89.3516 44.4905L96.2456 57.4583H86.4987C82.6753 50.2315 89.3516 44.4905 89.3516 44.4905ZM110.43 17.9326C105.398 17.9326 99.6331 18.6352 90.0052 28.1302C88.9355 29.1941 86.6176 31.4826 83.8838 34.1725L79.4463 25.8217H69.6996L77.4849 40.4757C72.6513 45.2534 68.3326 49.5089 68.3326 49.5089C63.2215 54.5477 61.1018 56.1935 58.467 57.097C58.4274 57.2173 58.3878 57.3179 58.3481 57.4383H61.0622C64.0337 57.4383 72.4532 57.4383 82.2395 47.5217C90.0447 39.6126 96.3842 33.1888 103.654 25.8418C108.666 20.7631 112.391 18.9162 114.214 18.2739L114.332 17.9326H110.43Z" fill="white"/>
    <path d="M100.128 57.4378L110.053 29.7759H132.241L129.765 36.6814H116.115L114.095 42.282H125.822L123.465 48.8463H111.737L108.667 57.4178H100.128V57.4378Z" fill="white"/>
    <path d="M126.218 57.4378L136.143 29.7759H144.662L134.737 57.4378H126.218Z" fill="white"/>
    <path d="M146.088 36.7014L148.565 29.7959H173.011L170.534 36.7014H162.907L155.459 57.4378H146.92L154.369 36.7014H146.088Z" fill="white"/>
  </g>
</svg>