<svg width="200" height="206" viewBox="0 0 200 206" fill="none" xmlns="http://www.w3.org/2000/svg">
<path d="M24.9026 42.4415V25.2924H42.0653V17.5484H24.9026V0.409668H17.1627V17.5484H0V25.2924H17.1627V42.4415H24.9026Z" fill="#BBCE00"/>
<path d="M103.87 42.4415V25.2924H121.033V17.5484H103.87V0.409668H96.13V17.5484H78.9673V25.2924H96.13V42.4415H103.87Z" fill="#BBCE00"/>
<path d="M182.837 42.4415V25.2924H200V17.5484H182.837V0.409668H175.098V17.5484H157.935V25.2924H175.098V42.4415H182.837Z" fill="#BBCE00"/>
<path d="M24.9026 123.92V106.782H42.0653V99.0375H24.9026V81.8884H17.1627V99.0375H0V106.782H17.1627V123.92H24.9026Z" fill="#BBCE00"/>
<path d="M103.87 123.92V106.782H121.033V99.0375H103.87V81.8884H96.13V99.0375H78.9673V106.782H96.13V123.92H103.87Z" fill="#BBCE00"/>
<path d="M182.837 123.92V106.782H200V99.0375H182.837V81.8884H175.098V99.0375H157.935V106.782H175.098V123.92H182.837Z" fill="#BBCE00"/>
<path d="M24.9026 205.41V188.261H42.0653V180.517H24.9026V163.367H17.1627V180.517H0V188.261H17.1627V205.41H24.9026Z" fill="#BBCE00"/>
<path d="M103.87 205.41V188.261H121.033V180.517H103.87V163.367H96.13V180.517H78.9673V188.261H96.13V205.41H103.87Z" fill="#BBCE00"/>
<path d="M182.837 205.41V188.261H200V180.517H182.837V163.367H175.098V180.517H157.935V188.261H175.098V205.41H182.837Z" fill="#BBCE00"/>
</svg>
