<svg width="192" height="57" viewBox="0 0 192 57" fill="none" xmlns="http://www.w3.org/2000/svg">
<path d="M6.27504 11.6014C9.37457 11.6014 11.8872 9.1034 11.8872 6.022C11.8872 2.9406 9.37457 0.442627 6.27504 0.442627C3.1755 0.442627 0.662842 2.9406 0.662842 6.022C0.662842 9.1034 3.1755 11.6014 6.27504 11.6014Z" fill="#000102"/>
<path d="M51.1726 11.6014C54.2722 11.6014 56.7848 9.1034 56.7848 6.022C56.7848 2.9406 54.2722 0.442627 51.1726 0.442627C48.0731 0.442627 45.5604 2.9406 45.5604 6.022C45.5604 9.1034 48.0731 11.6014 51.1726 11.6014Z" fill="#000102"/>
<path d="M96.0617 11.6014C99.1612 11.6014 101.674 9.1034 101.674 6.022C101.674 2.9406 99.1612 0.442627 96.0617 0.442627C92.9621 0.442627 90.4495 2.9406 90.4495 6.022C90.4495 9.1034 92.9621 11.6014 96.0617 11.6014Z" fill="#000102"/>
<path d="M140.959 11.6014C144.059 11.6014 146.571 9.1034 146.571 6.022C146.571 2.9406 144.059 0.442627 140.959 0.442627C137.86 0.442627 135.347 2.9406 135.347 6.022C135.347 9.1034 137.86 11.6014 140.959 11.6014Z" fill="#000102"/>
<path d="M185.848 11.6014C188.948 11.6014 191.46 9.1034 191.46 6.022C191.46 2.9406 188.948 0.442627 185.848 0.442627C182.749 0.442627 180.236 2.9406 180.236 6.022C180.236 9.1034 182.749 11.6014 185.848 11.6014Z" fill="#000102"/>
<path d="M6.27504 56.2361C9.37457 56.2361 11.8872 53.7382 11.8872 50.6568C11.8872 47.5754 9.37457 45.0774 6.27504 45.0774C3.1755 45.0774 0.662842 47.5754 0.662842 50.6568C0.662842 53.7382 3.1755 56.2361 6.27504 56.2361Z" fill="#000102"/>
<path d="M51.1727 56.2361C54.2723 56.2361 56.785 53.7382 56.785 50.6568C56.785 47.5754 54.2723 45.0774 51.1727 45.0774C48.0732 45.0774 45.5605 47.5754 45.5605 50.6568C45.5605 53.7382 48.0732 56.2361 51.1727 56.2361Z" fill="#000102"/>
<path d="M96.0617 56.2361C99.1612 56.2361 101.674 53.7382 101.674 50.6568C101.674 47.5754 99.1612 45.0774 96.0617 45.0774C92.9621 45.0774 90.4495 47.5754 90.4495 50.6568C90.4495 53.7382 92.9621 56.2361 96.0617 56.2361Z" fill="#000102"/>
<path d="M140.959 56.2361C144.059 56.2361 146.571 53.7382 146.571 50.6568C146.571 47.5754 144.059 45.0774 140.959 45.0774C137.86 45.0774 135.347 47.5754 135.347 50.6568C135.347 53.7382 137.86 56.2361 140.959 56.2361Z" fill="#000102"/>
<path d="M185.848 56.2361C188.948 56.2361 191.46 53.7382 191.46 50.6568C191.46 47.5754 188.948 45.0774 185.848 45.0774C182.749 45.0774 180.236 47.5754 180.236 50.6568C180.236 53.7382 182.749 56.2361 185.848 56.2361Z" fill="#000102"/>
</svg>
