<svg xmlns="http://www.w3.org/2000/svg" width="225" height="64" viewBox="0 0 225 64" fill="none">
  <path d="M12.7105 25.3186V21.4971H17.5335V25.3186V25.5574V26.0351C17.5335 32.4838 14.6397 38.4548 9.81668 42.7539C7.16402 45.1423 4.02906 47.0531 0.652954 48.2473V43.4705C2.82331 42.5151 4.75252 41.3209 6.44057 39.649C10.299 36.3053 12.7105 31.2896 12.7105 26.0351V25.5574V25.3186ZM36.8256 25.3186V21.4971H41.6486V25.3186V25.5574V26.0351C41.6486 31.2896 44.0601 36.0664 47.9185 39.649C49.6065 41.0821 51.5357 42.5151 53.7061 43.4705V48.2473C50.0888 47.0531 46.9539 45.1423 44.5424 42.7539C39.7194 38.4548 36.8256 32.4838 36.8256 26.0351V25.5574V25.3186ZM0.652954 56.3678C6.19942 54.9348 11.2636 52.0687 15.3631 48.4861C18.4981 45.62 20.9096 42.5151 22.5977 38.6936C23.8034 41.7986 25.2503 44.4258 27.1795 47.0531C28.8676 44.6647 30.3145 41.7986 31.7614 38.6936C33.4494 42.2763 35.861 45.62 38.9959 48.4861C43.0955 52.0687 48.1596 54.9348 53.7061 56.3678V51.591C49.3654 50.158 45.507 48.0084 42.372 45.1423C37.0667 40.3655 33.9317 33.678 33.9317 26.5128V6.4502H29.1087V26.5128C29.1087 30.0954 28.3853 34.1557 27.4207 37.4994C26.2149 34.3945 25.7326 30.0954 25.7326 26.5128V6.4502H20.9096V26.5128C20.9096 33.678 17.5335 40.3655 12.4693 45.1423C9.33438 48.0084 5.47597 50.158 1.13526 51.591V56.3678H0.652954ZM22.3565 45.62C21.1508 47.2919 19.7039 48.7249 18.0158 50.158C13.1928 54.4571 7.40517 57.562 0.652954 58.9951V63.5331C8.61093 61.8612 15.8454 58.2786 21.6331 53.2629C22.8388 52.0687 24.0446 51.1134 25.0092 49.6803H24.768C23.8034 48.4861 23.08 47.0531 22.3565 45.62ZM29.591 50.158C30.5556 51.3522 31.7614 52.3076 32.726 53.5018C38.2725 58.5174 45.507 62.3389 53.7061 63.7719V59.2339C46.9539 57.8009 40.9251 54.696 36.3433 50.3968C34.8964 48.9638 33.4494 47.5308 32.2437 46.0977C31.5202 47.5308 30.7968 48.7249 29.8322 49.9192C29.8322 49.9192 29.591 49.9191 29.591 50.158Z" fill="#E72F39"/>
  <path d="M75.4068 24.1229C76.6126 18.3907 78.0595 12.1809 78.5418 6.44868H84.3294V32.96H80.7121V22.451L81.1945 12.8974C80.7121 16.0023 78.5418 27.2278 75.8891 32.7211H75.4068H74.9245C72.2719 27.2278 70.1015 16.0023 69.6192 12.8974L70.1015 22.451V32.96H66.4843V6.44868H72.2719C72.9953 12.1809 74.4422 18.3907 75.4068 24.1229ZM161.739 10.9867V12.1809V14.3304C161.739 16.48 160.774 17.913 159.327 18.8684C160.774 20.0626 161.739 21.9733 161.739 24.1229V32.7211C159.086 32.7211 156.675 32.7211 154.022 32.7211H149.681V6.20985H154.022C156.675 6.20985 159.086 6.20985 161.739 6.20985V10.9867ZM153.781 21.0179V29.1385H157.398C157.398 27.4666 157.398 25.7947 157.398 23.884C157.398 21.2568 155.469 21.0179 153.781 21.0179ZM153.781 10.0313V17.1965C155.469 17.1965 157.398 17.1965 157.398 14.5693V12.1809V10.2701H153.781V10.0313ZM138.347 32.96H134.006V6.20985H138.347H142.447H146.787V32.7211H142.447H138.347V32.96ZM142.206 10.0313H138.347V29.1385H142.206V10.0313ZM91.8051 32.96H87.4644V6.20985H91.8051H95.9046H100.245V32.7211H95.9046H91.8051V32.96ZM95.6635 10.0313H91.8051V29.1385H95.6635V10.0313ZM168.732 32.96H164.391V6.20985H168.732H172.832H177.172V16.9577H172.832V10.0313H168.732V29.1385H172.832V22.2121H177.172V32.96H172.832H168.732ZM107.239 32.96H102.898V6.20985H107.239H111.338H115.679V16.9577H111.338V10.0313H107.239V29.1385H111.338V22.2121H115.679V32.96H111.338H107.239ZM184.407 32.96H180.066V6.44868H184.407V16.9577H185.13C187.542 16.9577 188.265 14.5693 188.265 12.8974V6.68753H192.606V12.6585C192.606 15.5246 191.641 17.4353 189.471 18.8684C191.641 20.3014 192.606 22.451 192.606 25.0782V32.96H188.265V24.8394C188.265 23.1675 187.301 21.0179 185.13 21.0179H184.407V32.96ZM222.268 3.10492H212.863V0H222.268V3.10492ZM211.175 32.96V6.44868H215.033V21.9733L219.374 6.44868H224.197V32.96H220.097V14.5693L214.792 33.1988L211.175 32.96ZM195.259 32.96V6.44868H199.117V21.9733L203.458 6.44868H208.281V32.96H204.422V14.5693L199.117 33.1988L195.259 32.96ZM122.914 32.96H118.814V6.44868H123.155V16.9577H123.878C126.29 16.9577 127.013 14.5693 127.013 12.8974V6.68753H131.354V12.6585C131.354 15.5246 130.389 17.4353 128.219 18.8684C130.389 20.3014 131.354 22.451 131.354 25.0782V32.96H127.013V24.8394C127.013 23.1675 126.048 21.0179 123.878 21.0179H123.155V32.96H122.914Z" fill="#E72F39"/>
  <path d="M86.4998 63.7691H82.159V37.2578H94.6989V63.7691H90.3582V41.0793H86.2586V63.7691H86.4998ZM70.825 63.7691H66.4843V37.2578H70.825H74.9245H79.2652V48.0056H74.9245V41.0793H70.825V60.1865H74.9245V53.2601H79.2652V64.0079H74.9245H70.825V63.7691ZM101.933 63.7691H97.5927V37.2578H101.933H106.033H110.374V63.7691H106.033H101.933ZM106.033 40.8404H102.175V59.9476H106.033V40.8404ZM126.531 37.2578H139.794V41.0793H135.453V63.7691H130.871V41.0793H126.531V37.2578ZM125.325 46.3337V47.5279V49.6775C125.325 53.7378 123.155 56.6039 119.055 56.6039H117.608V63.7691H113.267V37.2578C117.367 37.2578 121.225 37.2578 125.325 37.2578V46.3337ZM117.608 40.8404V52.7824C119.296 52.7824 121.225 52.5436 121.225 49.9163V47.5279V41.0793H117.608V40.8404Z" fill="#E72F39"/>
</svg>