<svg xmlns="http://www.w3.org/2000/svg" version="1.1" xmlns:xlink="http://www.w3.org/1999/xlink" width="1000" height="1000"><style>
    #light-icon {
      display: inline;
    }
    #dark-icon {
      display: none;
    }

    @media (prefers-color-scheme: dark) {
      #light-icon {
        display: none;
      }
      #dark-icon {
        display: inline;
      }
    }
  </style><g id="light-icon"><svg xmlns="http://www.w3.org/2000/svg" version="1.1" xmlns:xlink="http://www.w3.org/1999/xlink" width="1000" height="1000"><g clip-path="url(#SvgjsClipPath1026)"><rect width="1000" height="1000" fill="#ffffff"></rect><g transform="matrix(20,0,0,20,170,150)"><svg xmlns="http://www.w3.org/2000/svg" version="1.1" xmlns:xlink="http://www.w3.org/1999/xlink" width="33" height="35"><svg width="33" height="35" viewBox="0 0 33 35" fill="none" xmlns="http://www.w3.org/2000/svg">
<path d="M7.82214 11.5778V9.29844H10.6988V11.5778V11.7202V12.0051C10.6988 15.8515 8.97282 19.4129 6.09611 21.9771C4.51393 23.4017 2.64407 24.5414 0.630371 25.2537V22.4045C1.92489 21.8347 3.07557 21.1224 4.08242 20.1252C6.38378 18.1308 7.82214 15.1392 7.82214 12.0051V11.7202V11.5778ZM22.2057 11.5778V9.29844H25.0824V11.5778V11.7202V12.0051C25.0824 15.1392 26.5207 17.9883 28.8221 20.1252C29.8289 20.9799 30.9796 21.8347 32.2741 22.4045V25.2537C30.1166 24.5414 28.2468 23.4017 26.8084 21.9771C23.9317 19.4129 22.2057 15.8515 22.2057 12.0051V11.7202V11.5778ZM0.630371 30.0972C3.93858 29.2425 6.95913 27.533 9.40433 25.3961C11.2742 23.6866 12.7125 21.8347 13.7194 19.5554C14.4386 21.4073 15.3016 22.9743 16.4523 24.5414C17.4591 23.1168 18.3221 21.4073 19.1851 19.5554C20.192 21.6922 21.6303 23.6866 23.5002 25.3961C25.9454 27.533 28.9659 29.2425 32.2741 30.0972V27.2481C29.6851 26.3933 27.3837 25.1112 25.5139 23.4017C22.3495 20.5526 20.4796 16.5638 20.4796 12.29V0.323624H17.6029V12.29C17.6029 14.4269 17.1714 16.8487 16.5961 18.8431C15.8769 16.9911 15.5892 14.4269 15.5892 12.29V0.323624H12.7125V12.29C12.7125 16.5638 10.6988 20.5526 7.6783 23.4017C5.80844 25.1112 3.50708 26.3933 0.918042 27.2481V30.0972H0.630371ZM13.5756 23.6866C12.8564 24.6838 11.9934 25.5386 10.9865 26.3933C8.10981 28.9576 4.65776 30.8095 0.630371 31.6642V34.3709C5.37694 33.3737 9.692 31.2369 13.144 28.2453C13.8632 27.533 14.5824 26.9632 15.1577 26.1084H15.0139C14.4386 25.3961 14.0071 24.5414 13.5756 23.6866ZM17.8906 26.3933C18.466 27.1056 19.1851 27.6754 19.7605 28.3877C23.0687 31.3793 27.3837 33.6586 32.2741 34.5134V31.8067C28.2468 30.952 24.6509 29.1 21.918 26.5358C21.055 25.681 20.192 24.8263 19.4728 23.9716C19.0413 24.8263 18.6098 25.5386 18.0344 26.2509C18.0344 26.2509 17.8906 26.2509 17.8906 26.3933Z" fill="#E72F39"></path>
</svg></svg></g></g><defs><clipPath id="SvgjsClipPath1026"><rect width="1000" height="1000" x="0" y="0" rx="350" ry="350"></rect></clipPath></defs></svg></g><g id="dark-icon"><svg xmlns="http://www.w3.org/2000/svg" version="1.1" xmlns:xlink="http://www.w3.org/1999/xlink" width="1000" height="1000"><g clip-path="url(#SvgjsClipPath1027)"><rect width="1000" height="1000" fill="#ffffff"></rect><g transform="matrix(20,0,0,20,170,150)"><svg xmlns="http://www.w3.org/2000/svg" version="1.1" xmlns:xlink="http://www.w3.org/1999/xlink" width="33" height="35"><svg width="33" height="35" viewBox="0 0 33 35" fill="none" xmlns="http://www.w3.org/2000/svg">
<path d="M7.82214 11.5778V9.29844H10.6988V11.5778V11.7202V12.0051C10.6988 15.8515 8.97282 19.4129 6.09611 21.9771C4.51393 23.4017 2.64407 24.5414 0.630371 25.2537V22.4045C1.92489 21.8347 3.07557 21.1224 4.08242 20.1252C6.38378 18.1308 7.82214 15.1392 7.82214 12.0051V11.7202V11.5778ZM22.2057 11.5778V9.29844H25.0824V11.5778V11.7202V12.0051C25.0824 15.1392 26.5207 17.9883 28.8221 20.1252C29.8289 20.9799 30.9796 21.8347 32.2741 22.4045V25.2537C30.1166 24.5414 28.2468 23.4017 26.8084 21.9771C23.9317 19.4129 22.2057 15.8515 22.2057 12.0051V11.7202V11.5778ZM0.630371 30.0972C3.93858 29.2425 6.95913 27.533 9.40433 25.3961C11.2742 23.6866 12.7125 21.8347 13.7194 19.5554C14.4386 21.4073 15.3016 22.9743 16.4523 24.5414C17.4591 23.1168 18.3221 21.4073 19.1851 19.5554C20.192 21.6922 21.6303 23.6866 23.5002 25.3961C25.9454 27.533 28.9659 29.2425 32.2741 30.0972V27.2481C29.6851 26.3933 27.3837 25.1112 25.5139 23.4017C22.3495 20.5526 20.4796 16.5638 20.4796 12.29V0.323624H17.6029V12.29C17.6029 14.4269 17.1714 16.8487 16.5961 18.8431C15.8769 16.9911 15.5892 14.4269 15.5892 12.29V0.323624H12.7125V12.29C12.7125 16.5638 10.6988 20.5526 7.6783 23.4017C5.80844 25.1112 3.50708 26.3933 0.918042 27.2481V30.0972H0.630371ZM13.5756 23.6866C12.8564 24.6838 11.9934 25.5386 10.9865 26.3933C8.10981 28.9576 4.65776 30.8095 0.630371 31.6642V34.3709C5.37694 33.3737 9.692 31.2369 13.144 28.2453C13.8632 27.533 14.5824 26.9632 15.1577 26.1084H15.0139C14.4386 25.3961 14.0071 24.5414 13.5756 23.6866ZM17.8906 26.3933C18.466 27.1056 19.1851 27.6754 19.7605 28.3877C23.0687 31.3793 27.3837 33.6586 32.2741 34.5134V31.8067C28.2468 30.952 24.6509 29.1 21.918 26.5358C21.055 25.681 20.192 24.8263 19.4728 23.9716C19.0413 24.8263 18.6098 25.5386 18.0344 26.2509C18.0344 26.2509 17.8906 26.2509 17.8906 26.3933Z" fill="#E72F39"></path>
</svg></svg></g></g><defs><clipPath id="SvgjsClipPath1027"><rect width="1000" height="1000" x="0" y="0" rx="350" ry="350"></rect></clipPath></defs></svg></g></svg>