<svg width="95" height="385" viewBox="0 0 95 385" fill="none" xmlns="http://www.w3.org/2000/svg">
<path d="M1.86919e-05 288.023L48.0059 240.029L96 288.023L96 240.029L48.0059 192.023L2.07898e-05 240.029L1.86919e-05 288.023Z" fill="#70B42D"/>
<path d="M1.86914e-05 384.036L48.0059 336.03L96 384.036L96 336.03L48.0059 288.024L2.07898e-05 336.03L1.86914e-05 384.036Z" fill="#70B42D"/>
<path d="M1.86914e-05 192.024L48.0059 144.018L96 192.024L96 144.018L48.0059 96.0117L2.07898e-05 144.018L1.86914e-05 192.024Z" fill="#70B42D"/>
<path d="M1.86914e-05 96.0118L48.0059 48.0059L96 96.0118L96 48.0059L48.0059 1.71681e-06L2.07898e-05 48.0059L1.86914e-05 96.0118Z" fill="#70B42D"/>
</svg>
