<svg xmlns="http://www.w3.org/2000/svg" width="32" height="32" viewBox="0 0 32 32" fill="none">
  <path d="M32 0H0V32H32V0Z" fill="#000102"/>
  <path d="M16 5.91309C20.6103 5.91309 24.3476 9.65044 24.3477 14.2607C24.3477 18.8711 16 26.2607 16 26.2607C15.9493 26.2158 7.65234 18.857 7.65234 14.2607C7.65244 9.6505 11.3898 5.91318 16 5.91309ZM16 10.7822C14.0791 10.7823 12.5215 12.3398 12.5215 14.2607C12.5215 16.1817 14.0791 17.7392 16 17.7393C17.921 17.7393 19.4785 16.1817 19.4785 14.2607C19.4785 12.3398 17.921 10.7822 16 10.7822Z" fill="#70B42D"/>
</svg>