<svg xmlns="http://www.w3.org/2000/svg" width="228" height="76" viewBox="0 0 228 76" fill="none">
  <rect width="228" height="76" fill="#BBCE00"/>
  <path d="M93.6422 27.1147C94.9941 28.6482 96.31 30.1385 97.7734 31.796C96.648 31.796 95.7329 31.7996 94.8179 31.7942C94.4997 31.7924 94.3864 31.5102 94.2138 31.3124C93.1909 30.1439 92.1716 28.9735 91.1469 27.8068C90.8467 27.4652 88.7865 27.147 88.4521 27.3933C88.2489 27.5425 88.3334 27.7781 88.3334 27.9776C88.3262 29.0527 88.3083 30.1277 88.3406 31.201C88.355 31.6702 88.2094 31.7978 87.7402 31.8122C85.804 31.8715 85.804 31.8895 85.804 29.9353C85.804 26.383 85.822 22.8307 85.7878 19.2783C85.7806 18.6132 85.9424 18.4172 86.6238 18.4352C88.5348 18.4891 90.4512 18.419 92.3622 18.4801C94.1761 18.5395 95.7024 19.2208 96.5203 20.952C97.2466 22.4909 97.1352 24.019 96.2165 25.4716C95.634 26.3938 94.6759 26.7462 93.6439 27.1129L93.6422 27.1147ZM90.3595 25.0689C91.1235 25.0689 91.724 25.0976 92.319 25.0635C93.6206 24.988 94.4116 24.1898 94.4296 22.9781C94.4475 21.7484 93.6152 20.8891 92.2938 20.8172C91.6682 20.783 91.0408 20.8082 90.4134 20.8082C88.3298 20.8082 88.319 20.8082 88.337 22.8648C88.3424 23.5731 88.0314 24.4882 88.4665 24.9322C88.9033 25.3781 89.8238 25.0113 90.3613 25.0689H90.3595Z" fill="white"/>
  <path d="M105.031 18.2031C109.034 18.2067 111.862 21.0795 111.86 25.1442C111.86 29.315 109.104 32.0979 104.984 32.0925C100.865 32.0853 98.1616 29.3527 98.1724 25.2071C98.1832 21.0543 100.977 18.1995 105.029 18.2031H105.031ZM109.358 25.182C109.358 23.9541 109.081 22.8107 108.245 21.8723C107.055 20.5384 104.948 20.1105 103.224 20.8224C101.577 21.502 100.529 23.3357 100.637 25.3438C100.758 27.5855 101.852 29.1244 103.67 29.6062C106.863 30.4529 109.342 28.524 109.358 25.182Z" fill="white"/>
  <path d="M146.113 32.1245C143.926 32.1048 141.962 31.6427 140.719 29.5861C140.405 29.0666 140.367 28.7502 140.991 28.5255C141.158 28.4643 141.323 28.3834 141.467 28.2792C142.078 27.8387 142.467 27.8171 142.984 28.5614C143.989 30.0068 147.166 30.3304 148.579 29.2643C149.579 28.5093 149.492 27.1394 148.399 26.521C147.79 26.1776 147.112 26.0518 146.427 25.9763C145.325 25.854 144.234 25.6653 143.202 25.2464C141.866 24.7053 141.081 23.7237 140.971 22.2693C140.863 20.8383 141.402 19.7111 142.634 18.9309C144.976 17.446 148.919 17.7822 150.659 19.6212C151.517 20.5273 151.491 20.5327 150.436 21.1547C149.798 21.5304 149.39 21.6437 148.703 21.0594C147.479 20.0203 145.965 19.9736 144.469 20.5471C143.829 20.7934 143.455 21.2913 143.464 21.9961C143.473 22.7026 143.966 23.0459 144.557 23.2617C145.523 23.6122 146.56 23.5889 147.549 23.8172C148.101 23.943 148.662 24.0563 149.188 24.2558C150.975 24.9354 151.745 25.9924 151.774 27.7237C151.804 29.5807 150.986 30.8409 149.273 31.578C148.264 32.0113 147.204 32.1407 146.114 32.1263L146.113 32.1245Z" fill="white"/>
  <path d="M146.132 49.0644C144.009 48.9817 142.037 48.5808 140.789 46.5745C140.438 46.01 140.403 45.6343 141.116 45.4078C141.285 45.3539 141.447 45.264 141.593 45.1633C142.164 44.766 142.513 44.7858 142.989 45.4492C144.032 46.9035 147.02 47.2775 148.491 46.2689C149.607 45.5031 149.539 44.0667 148.349 43.4267C147.651 43.051 146.882 42.9359 146.107 42.8514C145.064 42.7364 144.032 42.5584 143.07 42.1179C140.595 40.9836 140.237 37.7386 142.394 36.0883C144.607 34.393 148.843 34.6663 150.689 36.6204C151.541 37.5229 151.514 37.5067 150.484 38.0982C149.797 38.4919 149.35 38.5602 148.638 37.9741C147.432 36.9836 145.954 36.8901 144.491 37.5139C143.869 37.7782 143.462 38.2564 143.489 38.9683C143.516 39.6712 144.02 39.9822 144.613 40.2069C145.745 40.6348 146.966 40.5899 148.127 40.8721C149.562 41.2209 150.898 41.726 151.507 43.2253C152.39 45.3934 151.394 47.6658 149.215 48.5215C148.23 48.908 147.196 49.0482 146.134 49.0662L146.132 49.0644Z" fill="white"/>
  <path d="M133.621 34.9648C135.459 35.0314 137.14 35.4017 138.353 36.9262C138.736 37.408 138.747 37.6992 138.117 37.9815C137.364 38.3194 136.814 38.6808 135.942 37.9311C134.763 36.919 133.249 36.892 131.798 37.5464C131.209 37.8125 130.86 38.2727 130.876 38.9522C130.892 39.6264 131.336 39.932 131.896 40.1639C132.71 40.5019 133.58 40.5522 134.434 40.6763C135.175 40.7841 135.903 40.9351 136.607 41.1922C138.123 41.7441 139.043 42.7742 139.158 44.421C139.282 46.172 138.599 47.4987 137.023 48.3221C134.551 49.611 130.565 49.1652 128.856 47.4286C128.41 46.9755 127.777 46.3949 127.932 45.8825C128.113 45.2767 129.043 45.2084 129.616 44.8506C129.878 44.6852 129.956 44.9351 130.085 45.0987C131.329 46.6753 133.424 47.2632 135.309 46.5513C136.082 46.26 136.651 45.7765 136.67 44.8578C136.69 43.9895 136.124 43.5994 135.435 43.2884C134.544 42.8839 133.564 42.9306 132.636 42.7239C131.996 42.5819 131.344 42.4596 130.734 42.2277C129.294 41.6794 128.446 40.6511 128.385 39.0619C128.322 37.4403 129.114 36.3437 130.517 35.6354C131.498 35.1392 132.559 34.9954 133.623 34.9666L133.621 34.9648Z" fill="white"/>
  <path d="M117.496 42.0336C117.496 40.0903 117.512 38.1487 117.487 36.2054C117.48 35.6678 117.557 35.4143 118.201 35.4251C120.565 35.4665 122.929 35.4575 125.293 35.4287C125.848 35.4215 125.996 35.5815 125.998 36.1316C125.999 37.8611 126.026 37.8611 124.27 37.8611C123.042 37.8611 121.816 37.8791 120.59 37.8521C120.117 37.8431 119.993 38.0121 119.973 38.4723C119.871 40.8957 119.858 40.8957 122.253 40.8957C123.27 40.8957 124.288 40.9154 125.305 40.8867C125.787 40.8723 125.985 40.9855 125.998 41.5213C126.042 43.2507 126.066 43.2507 124.356 43.2507C123.128 43.2507 121.902 43.2759 120.676 43.2399C120.115 43.2237 119.981 43.4233 119.973 43.9608C119.941 46.2475 119.923 46.2475 122.208 46.2475C123.225 46.2475 124.243 46.2709 125.26 46.2367C125.776 46.2188 125.996 46.323 126.003 46.9109C126.023 48.7122 126.05 48.7122 124.239 48.7122C122.325 48.7122 120.407 48.6601 118.494 48.7356C117.622 48.7698 117.464 48.4641 117.485 47.6803C117.537 45.7999 117.501 43.9159 117.503 42.0318L117.496 42.0336Z" fill="white"/>
  <path d="M126.871 22.9905C126.871 21.7069 126.889 20.4215 126.862 19.1379C126.851 18.6453 126.986 18.4781 127.509 18.4691C129.397 18.4404 129.395 18.4188 129.397 20.319C129.4 22.3792 129.355 24.4412 129.425 26.4996C129.508 28.9014 131.434 30.2695 133.763 29.6673C135.23 29.2879 136.041 28.123 136.063 26.2426C136.09 23.9145 136.093 21.5846 136.056 19.2548C136.045 18.6166 136.237 18.4584 136.857 18.4673C138.59 18.4925 138.592 18.4637 138.592 20.1986C138.592 22.23 138.625 24.2597 138.581 26.2911C138.479 31.1522 133.645 33.7535 129.474 31.2151C127.896 30.2551 127.07 28.8133 126.941 27.0174C126.846 25.6817 126.921 24.3316 126.921 22.9887H126.869L126.871 22.9905Z" fill="white"/>
  <path d="M79.1107 32.0941C76.4411 32.0636 74.1849 31.1503 72.9571 28.673C71.6429 26.0231 71.767 23.3283 73.5072 20.8672C75.6986 17.7679 80.8438 17.2771 83.668 19.8191C83.9916 20.1104 84.1606 20.3387 83.7129 20.6389C83.6878 20.6551 83.6698 20.6803 83.6482 20.7C83.2797 21.0506 82.9669 21.5486 82.53 21.7068C82.095 21.8632 81.7516 21.2861 81.3381 21.0794C78.9238 19.8731 75.9593 20.896 75.0011 23.2888C73.9638 25.8811 75.1305 28.7575 77.5377 29.4802C79.1808 29.9746 80.7467 29.7642 82.1363 28.7341C82.5228 28.4483 82.7278 28.4447 82.9921 28.8096C83.0963 28.9535 83.2437 29.0649 83.3732 29.189C84.432 30.2101 84.4284 30.2047 83.2042 30.9831C81.9548 31.7777 80.5885 32.1283 79.1125 32.0941H79.1107Z" fill="white"/>
  <path d="M113.433 24.5113C113.482 22.5068 114.467 20.2687 116.96 19.0228C119.56 17.7249 122.156 17.8831 124.608 19.5496C125.25 19.9846 125.518 20.3801 124.719 20.9033C124.62 20.968 124.534 21.0579 124.462 21.1513C124.02 21.7302 123.646 21.8003 122.961 21.3293C121.066 20.0242 118.251 20.4952 116.874 22.2156C115.468 23.9738 115.635 27.0246 117.221 28.558C118.704 29.9926 121.44 30.1383 123.285 28.8295C123.713 28.5257 123.93 28.4394 124.358 28.869C125.776 30.2983 125.802 30.2767 124 31.2564C119.06 33.9423 113.44 30.7279 113.433 24.5113Z" fill="white"/>
  <path d="M72.1332 42.0304C72.1332 40.0888 72.1512 38.1473 72.1224 36.2075C72.1152 35.6592 72.2141 35.4327 72.8415 35.4417C75.5615 35.4794 78.2833 35.4722 81.0051 35.4453C81.5588 35.4399 81.7062 35.5927 81.7044 36.1446C81.7008 37.865 81.7277 37.865 79.9821 37.865C78.4271 37.865 76.8721 37.883 75.317 37.8542C74.8208 37.8452 74.6267 37.9765 74.6536 38.496C74.7058 39.4452 74.3552 40.6551 74.819 41.2735C75.2649 41.8668 76.5467 41.4281 77.4599 41.4551C78.5062 41.4875 79.5543 41.4965 80.5988 41.4497C81.2082 41.4227 81.343 41.6403 81.3376 42.2138C81.3215 43.7976 81.3484 43.7994 79.743 43.7994C78.2779 43.7994 76.8109 43.8245 75.3476 43.7868C74.7903 43.7724 74.6321 43.9432 74.65 44.4915C74.6914 45.6546 74.6285 46.8214 74.677 47.9845C74.7022 48.5939 74.4864 48.7306 73.913 48.7306C72.1332 48.7288 72.1332 48.7521 72.1332 46.9616C72.1332 45.3185 72.1332 43.6771 72.1332 42.034V42.0304Z" fill="white"/>
  <path d="M106.643 39.777C106.643 42.373 106.643 44.7154 106.643 47.0579C106.643 47.4156 106.623 47.7752 106.648 48.1329C106.675 48.5338 106.567 48.701 106.112 48.7262C104.133 48.8394 104.133 48.8574 104.133 46.8871C104.133 43.3635 104.151 39.8417 104.117 36.3182C104.11 35.6422 104.255 35.4121 104.982 35.4121C105.783 35.4121 106.337 35.5865 106.862 36.266C109.469 39.6458 112.122 42.9896 114.801 46.3136C115.353 46.9985 115.146 47.7176 115.173 48.4385C115.182 48.6669 114.982 48.7226 114.79 48.7064C114.254 48.6597 113.699 48.8772 113.253 48.2785C111.953 46.5311 110.587 44.8305 109.248 43.1136C108.432 42.0673 107.615 41.0211 106.643 39.7752V39.777Z" fill="white"/>
  <path d="M98.1756 43.2456C98.1756 44.8294 98.1576 46.4132 98.1863 47.997C98.1953 48.5183 98.0767 48.7251 97.4996 48.7305C95.6515 48.7502 95.6515 48.7772 95.6515 46.9471C95.6515 44.139 95.6336 41.3292 95.6659 38.5211C95.6731 37.8991 95.5041 37.678 94.8677 37.7139C93.9724 37.7625 93.07 37.6852 92.1765 37.7409C91.5203 37.7804 91.3837 37.5323 91.3963 36.9265C91.425 35.4434 91.3963 35.4434 92.91 35.4434C95.7828 35.4434 98.6556 35.4631 101.527 35.429C102.174 35.4218 102.402 35.5494 102.377 36.2506C102.323 37.7265 102.368 37.7283 100.843 37.7283C100.185 37.7283 99.5239 37.7625 98.8695 37.7175C98.3248 37.6816 98.1486 37.8452 98.163 38.4078C98.2025 40.0204 98.1774 41.6348 98.1774 43.2474L98.1756 43.2456Z" fill="white"/>
  <path d="M88.6375 41.0462C88.6375 42.5994 88.6752 44.1545 88.6213 45.7077C88.5961 46.4304 88.837 46.6659 89.5363 46.6012C89.8294 46.5742 90.3112 46.4088 90.4064 46.8079C90.5413 47.3778 90.57 48.0016 90.3705 48.5697C90.2878 48.8034 89.9408 48.7099 89.7089 48.7099C88.0927 48.7153 86.4766 48.6866 84.8622 48.7261C84.2654 48.7405 84.0352 48.5517 84.1054 47.9657C84.1305 47.7589 84.1287 47.545 84.1054 47.3383C84.0424 46.7684 84.2474 46.5509 84.8568 46.5706C86.1512 46.6138 86.0919 46.7756 86.0937 45.3158C86.0937 43.074 86.0703 40.8322 86.108 38.5923C86.1188 37.9181 85.8977 37.6952 85.2343 37.7257C84.8532 37.7437 84.242 37.981 84.1107 37.5136C83.9472 36.9347 84.028 36.2714 84.082 35.6512C84.1089 35.3455 84.4631 35.4318 84.6842 35.43C85.7916 35.4192 86.899 35.4462 88.0047 35.4157C88.544 35.4013 88.6518 35.6404 88.6464 36.115C88.6267 37.7581 88.6393 39.4012 88.6393 41.0462H88.6375Z" fill="white"/>
  <path d="M115.042 44.1064C114.285 43.1482 113.557 42.217 112.822 41.2929C112.635 41.0574 112.671 40.7878 112.671 40.5217C112.669 39.0601 112.699 37.5968 112.654 36.1352C112.636 35.5258 112.843 35.3928 113.418 35.3945C115.195 35.4017 115.195 35.3784 115.195 37.1725C115.195 39.1716 115.2 41.1707 115.189 43.1698C115.189 43.452 115.293 43.7576 115.042 44.1046V44.1064Z" fill="white"/>
  <path d="M80.6948 57.5137C78.0611 57.5137 75.4292 57.5137 72.7955 57.5119C72.4899 57.5119 72.1106 57.6377 72.1285 57.0804C72.1447 56.5879 72.4791 56.6957 72.7578 56.6939C78.0233 56.6921 83.2889 56.6903 88.5545 56.6939C88.8583 56.6939 89.2502 56.5717 89.2269 57.1308C89.2035 57.7061 88.7774 57.5029 88.5042 57.5047C85.901 57.5191 83.2979 57.5137 80.6948 57.5137Z" fill="white"/>
  <path d="M143.184 57.5155C140.614 57.5155 138.045 57.5227 135.474 57.5065C135.174 57.5065 134.683 57.7259 134.696 57.0967C134.708 56.4764 135.195 56.703 135.494 56.703C140.664 56.6904 145.834 56.6904 151.003 56.703C151.305 56.703 151.783 56.4854 151.772 57.1182C151.761 57.7546 151.273 57.5047 150.983 57.5065C148.384 57.5245 145.784 57.5173 143.183 57.5173L143.184 57.5155Z" fill="white"/>
  <path d="M116.759 59.1702C116.473 59.1702 116.216 59.2475 116.129 59.1576C115.425 58.4295 114.808 59.0281 114.134 59.2115C113.384 59.4165 112.663 59.2331 112.286 58.4942C111.905 57.7482 112.041 57.0183 112.742 56.5041C113.125 56.2219 113.213 56.0169 112.949 55.5747C112.579 54.9527 112.715 54.3253 113.354 53.9495C113.95 53.5972 114.601 53.6457 115.056 54.2084C115.493 54.7495 115.421 55.3697 114.887 55.803C114.395 56.2021 114.598 56.4502 114.901 56.8043C115.177 57.1261 115.39 57.4443 115.764 56.9284C115.903 56.736 116.066 56.754 116.205 56.923C116.295 57.0327 116.431 57.2682 116.417 57.2807C115.45 58.025 116.453 58.4816 116.76 59.172L116.759 59.1702ZM114.779 57.9315C114.483 57.4911 114.204 56.9068 113.724 56.8079C113.348 56.7306 112.974 57.2304 112.938 57.7284C112.902 58.2246 113.183 58.5302 113.654 58.5787C114.136 58.6273 114.484 58.3486 114.779 57.9315ZM113.99 55.5603C114.287 55.4452 114.522 55.2727 114.54 54.9311C114.558 54.5913 114.342 54.4493 114.033 54.4529C113.719 54.4565 113.51 54.6237 113.548 54.9491C113.578 55.2115 113.69 55.4614 113.99 55.5585V55.5603Z" fill="white"/>
  <path d="M120.838 53.7639C121.244 53.7513 121.623 53.8394 121.913 54.127C122.073 54.2852 122.441 54.438 122.114 54.7544C121.911 54.9504 121.702 55.0708 121.447 54.7598C121.332 54.6196 121.088 54.5513 120.892 54.5225C120.57 54.4776 120.293 54.6106 120.171 54.9252C120.041 55.2542 120.189 55.5184 120.482 55.673C120.875 55.8798 121.307 56.0218 121.688 56.2465C122.398 56.6672 122.603 57.327 122.394 58.0946C122.177 58.8928 121.566 59.247 120.787 59.2703C120.039 59.2937 119.462 58.9629 119.169 58.2384C119.087 58.0335 118.901 57.7926 119.272 57.6578C119.532 57.5625 119.784 57.4528 119.908 57.8501C120.081 58.3948 120.471 58.5962 121.019 58.4667C121.375 58.3822 121.575 58.1306 121.625 57.7728C121.706 57.176 121.301 56.9279 120.848 56.7211C120.631 56.6223 120.403 56.5485 120.192 56.4371C119.565 56.1027 119.132 55.6371 119.315 54.8641C119.502 54.0749 120.084 53.7836 120.841 53.7603L120.838 53.7639Z" fill="white"/>
  <path d="M94.9602 53.76C95.2065 53.7528 95.611 53.902 95.931 54.2616C96.0784 54.427 96.2096 54.6067 95.9615 54.7793C95.8087 54.8854 95.6577 55.0921 95.4312 54.8548C95.3126 54.729 95.158 54.6085 94.9962 54.56C94.6294 54.4485 94.2627 54.4809 94.0775 54.8746C93.8887 55.2755 94.0775 55.5613 94.4532 55.7375C94.829 55.9155 95.2335 56.0449 95.5822 56.2661C96.233 56.6759 96.4595 57.2818 96.2725 58.0404C96.082 58.8135 95.5499 59.1874 94.8056 59.2647C94.0595 59.342 93.4537 59.0562 93.1013 58.3712C92.9791 58.1321 92.7544 57.8337 93.202 57.6359C93.5652 57.4759 93.7252 57.6036 93.842 57.9613C93.9948 58.4287 94.3687 58.578 94.8397 58.4881C95.1957 58.4198 95.4258 58.2022 95.4977 57.8445C95.593 57.3645 95.3791 57.0391 94.9512 56.8395C94.6276 56.6885 94.2914 56.5609 93.9786 56.3919C93.3314 56.0395 92.9899 55.4948 93.2128 54.7632C93.4303 54.0477 94.011 53.7672 94.9638 53.7618L94.9602 53.76Z" fill="white"/>
  <path d="M98.0139 58.9365C98.0139 59.5513 98.0013 60.0583 98.0193 60.5652C98.0301 60.8654 97.9312 61.0039 97.6166 61.0003C97.3038 60.9967 97.2121 60.8564 97.2139 60.558C97.2247 59.1234 97.2175 57.6888 97.2211 56.256C97.2211 56.0439 97.2642 55.7239 97.5159 55.8246C98.1182 56.0673 98.6575 55.6826 99.2274 55.7491C99.8925 55.8282 100.333 56.2075 100.527 56.8241C100.746 57.5144 100.691 58.194 100.169 58.7531C99.7271 59.2277 99.1824 59.4111 98.5442 59.1702C98.4094 59.1198 98.2782 59.0551 98.0121 58.9401L98.0139 58.9365ZM99.844 57.4713C99.8152 56.9392 99.5815 56.4861 98.9146 56.4682C98.2907 56.452 98.0121 56.8655 97.9761 57.4353C97.9384 58.0484 98.2116 58.5248 98.8516 58.5607C99.4898 58.5967 99.8008 58.167 99.844 57.4713Z" fill="white"/>
  <path d="M124.108 58.9646C124.108 59.5992 124.094 60.1025 124.114 60.6041C124.126 60.9331 123.97 61.0014 123.682 60.9996C123.396 60.996 123.342 60.8558 123.344 60.6077C123.351 59.1497 123.348 57.6936 123.35 56.2356C123.35 56.0253 123.391 55.7017 123.643 55.8221C124.216 56.099 124.705 55.7053 125.236 55.7394C125.931 55.7844 126.413 56.1349 126.647 56.7857C126.895 57.476 126.832 58.1484 126.336 58.7111C125.886 59.2217 125.318 59.4158 124.646 59.1605C124.511 59.1084 124.374 59.0617 124.108 58.9646ZM124.076 57.494C124.099 58.1502 124.414 58.5799 125.049 58.5655C125.694 58.5511 125.985 58.0639 125.96 57.4617C125.937 56.9062 125.662 56.4675 125.034 56.4675C124.367 56.4675 124.11 56.908 124.074 57.494H124.076Z" fill="white"/>
  <path d="M105.724 57.4822C105.724 57.3923 105.714 57.3006 105.724 57.2143C105.793 56.7577 105.478 56.0889 105.901 55.8894C106.375 55.6646 107.085 55.6431 107.585 55.8264C108.347 56.1069 108.356 55.7114 108.41 55.2134C108.439 54.9455 108.281 54.577 108.784 54.568C109.289 54.559 109.07 54.9635 109.187 55.1882C109.527 55.839 109.757 56.3801 109.216 57.1154C108.958 57.4642 109.172 58.1581 109.171 58.6974C109.171 58.9365 109.203 59.1684 108.827 59.1792C108.428 59.19 108.401 58.9743 108.407 58.6741C108.416 58.1959 108.381 57.7159 108.416 57.2395C108.45 56.7649 108.081 56.1824 107.885 56.3208C107.436 56.639 106.49 56.2273 106.494 57.1999C106.496 57.7087 106.483 58.2156 106.487 58.7244C106.488 58.9923 106.454 59.1756 106.107 59.1792C105.762 59.1828 105.714 59.012 105.719 58.737C105.728 58.3181 105.721 57.901 105.721 57.4822H105.724Z" fill="white"/>
  <path d="M130.853 57.5157C130.853 57.7243 130.857 57.9328 130.853 58.1395C130.843 58.7382 131.035 59.5454 129.929 59.0294C129.838 58.9863 129.665 59.1355 129.525 59.1804C128.82 59.407 128.229 59.22 127.779 58.6447C127.316 58.0533 127.316 56.9998 127.761 56.3796C128.198 55.7719 128.8 55.6335 129.5 55.7989C129.556 55.8115 129.613 55.842 129.66 55.878C130.027 56.1459 130.553 55.4681 130.753 55.9409C130.947 56.4011 130.853 56.9854 130.886 57.5139C130.875 57.5139 130.866 57.5139 130.855 57.5139L130.853 57.5157ZM128.207 57.5014C128.259 58.127 128.538 58.5818 129.183 58.5656C129.845 58.5494 130.095 58.0551 130.073 57.4582C130.053 56.9045 129.807 56.4605 129.167 56.4623C128.491 56.4641 128.267 56.9261 128.205 57.4996L128.207 57.5014Z" fill="white"/>
  <path d="M104.876 57.4868C104.883 58.5331 104.13 59.2864 103.08 59.281C102.082 59.2756 101.313 58.5385 101.284 57.5587C101.254 56.5233 102 55.7538 103.055 55.7376C104.128 55.7197 104.869 56.4334 104.876 57.4886V57.4868ZM104.101 57.4563C104.038 56.8702 103.749 56.4603 103.087 56.4657C102.433 56.4711 102.116 56.8468 102.111 57.494C102.104 58.1862 102.454 58.5889 103.139 58.5655C103.778 58.5421 104.078 58.1125 104.101 57.4563Z" fill="white"/>
</svg>