<svg width="1160" height="260" viewBox="0 0 1160 260" fill="none" xmlns="http://www.w3.org/2000/svg">
<path d="M1160 212.114L981.753 212.114L1159.38 34.4877L1125.51 0.620731L947.886 178.247L947.886 -9.27179e-06L900 -1.1365e-05L900 212.114L900 260L947.886 260L1160 260L1160 212.114Z" fill="white"/>
<path d="M14.2905 176.102C14.2905 180.025 11.0926 183.204 7.14525 183.204C3.19788 183.204 0 180.025 0 176.102C0 172.178 3.19788 169 7.14525 169C11.0926 169 14.2905 172.178 14.2905 176.102Z" fill="#000102"/>
<path d="M64.2976 183.204C68.2438 183.204 71.4428 180.024 71.4428 176.102C71.4428 172.18 68.2438 169 64.2976 169C60.3514 169 57.1523 172.18 57.1523 176.102C57.1523 180.024 60.3514 183.204 64.2976 183.204Z" fill="#000102"/>
<path d="M128.576 176.102C128.576 180.025 125.378 183.204 121.43 183.204C117.483 183.204 114.285 180.025 114.285 176.102C114.285 172.178 117.483 169 121.43 169C125.378 169 128.576 172.178 128.576 176.102Z" fill="#000102"/>
<path d="M185.716 176.102C185.716 180.025 182.518 183.204 178.571 183.204C174.624 183.204 171.426 180.025 171.426 176.102C171.426 172.178 174.624 169 178.571 169C182.518 169 185.716 172.178 185.716 176.102Z" fill="#000102"/>
<path d="M235.716 183.204C239.662 183.204 242.861 180.024 242.861 176.102C242.861 172.18 239.662 169 235.716 169C231.769 169 228.57 172.18 228.57 176.102C228.57 180.024 231.769 183.204 235.716 183.204Z" fill="#000102"/>
<path d="M300.001 176.102C300.001 180.025 296.804 183.204 292.856 183.204C288.909 183.204 285.711 180.025 285.711 176.102C285.711 172.178 288.909 169 292.856 169C296.804 169 300.001 172.178 300.001 176.102Z" fill="#000102"/>
<path d="M7.15304 240C11.0992 240 14.2983 236.82 14.2983 232.898C14.2983 228.976 11.0992 225.796 7.15304 225.796C3.20684 225.796 0.0078125 228.976 0.0078125 232.898C0.0078125 236.82 3.20684 240 7.15304 240Z" fill="#000102"/>
<path d="M64.2976 240C68.2438 240 71.4428 236.82 71.4428 232.898C71.4428 228.976 68.2438 225.796 64.2976 225.796C60.3514 225.796 57.1523 228.976 57.1523 232.898C57.1523 236.82 60.3514 240 64.2976 240Z" fill="#000102"/>
<path d="M121.43 240C125.377 240 128.576 236.82 128.576 232.898C128.576 228.976 125.377 225.796 121.43 225.796C117.484 225.796 114.285 228.976 114.285 232.898C114.285 236.82 117.484 240 121.43 240Z" fill="#000102"/>
<path d="M178.571 240C182.517 240 185.716 236.82 185.716 232.898C185.716 228.976 182.517 225.796 178.571 225.796C174.625 225.796 171.426 228.976 171.426 232.898C171.426 236.82 174.625 240 178.571 240Z" fill="#000102"/>
<path d="M235.712 240C239.658 240 242.857 236.82 242.857 232.898C242.857 228.976 239.658 225.796 235.712 225.796C231.765 225.796 228.566 228.976 228.566 232.898C228.566 236.82 231.765 240 235.712 240Z" fill="#000102"/>
<path d="M292.856 240C296.802 240 300.001 236.82 300.001 232.898C300.001 228.976 296.802 225.796 292.856 225.796C288.91 225.796 285.711 228.976 285.711 232.898C285.711 236.82 288.91 240 292.856 240Z" fill="#000102"/>
</svg>
