<svg xmlns="http://www.w3.org/2000/svg" width="228" height="76" viewBox="0 0 228 76" fill="none">
  <rect width="228" height="76" fill="white"/>
  <path d="M64.0299 28.2828C60.9878 29.8242 58.0756 31.3998 55.1623 32.9731C53.5846 33.8253 51.9991 34.6577 50.3608 35.392C48.0311 36.4369 45.7354 36.4435 43.4002 35.403C41.5252 34.5674 39.7283 33.5864 37.9204 32.6219C35.2097 31.1752 32.4968 29.7306 29.7773 28.2806C29.872 28.122 30.0526 28.0725 30.2012 27.9866C35.005 25.2132 39.8142 22.4496 44.6102 19.6629C46.134 18.7777 47.605 18.7799 49.1277 19.664C53.9072 22.4408 58.701 25.1955 63.4882 27.9591C63.6456 28.0494 63.7998 28.1452 64.0299 28.2828ZM46.8805 23.9272C46.526 23.8919 46.1803 23.9569 45.8444 24.0417C44.3173 24.4281 43.191 25.2825 42.7836 26.8625C42.4203 28.2762 42.8772 29.4664 43.9529 30.4155C45.6474 31.9106 48.4219 31.806 50.0063 30.2063C51.4816 28.7177 51.4123 26.4265 49.8444 25.0337C49 24.2828 47.9958 23.947 46.8794 23.9261L46.8805 23.9272Z" fill="#343434"/>
  <path d="M64.445 29.7383C64.2391 31.0199 64.0553 32.1561 63.8736 33.2913C63.0974 38.1544 62.3113 43.0154 61.5527 47.8808C61.3677 49.0633 60.8293 50.0091 59.8109 50.608C55.7239 53.0148 51.6193 55.3919 47.5191 57.7767C47.474 57.8031 47.4157 57.8053 47.3022 57.8351C47.5291 56.6427 47.7471 55.4822 47.9706 54.3228C48.6521 50.7831 49.1762 47.2136 49.948 43.6903C50.0922 43.0308 50.2904 42.3812 50.482 41.7327C50.9895 40.0096 51.9794 38.6081 53.3556 37.4696C55.224 35.9238 57.2873 34.6543 59.278 33.2824C60.7864 32.2431 62.2948 31.2026 63.8042 30.1633C63.9661 30.051 64.1323 29.9453 64.445 29.7383Z" fill="#047CDF"/>
  <path d="M29.0343 29.8696C29.1015 29.8939 29.1774 29.9038 29.2347 29.9434C32.4067 32.1223 35.5512 34.3409 38.7541 36.4746C41.5154 38.3144 42.9621 40.9128 43.5347 44.108C44.3505 48.6618 45.2049 53.2078 46.0439 57.766C45.8479 57.8112 45.7345 57.6692 45.6035 57.5932C41.6761 55.3108 37.7521 53.0229 33.8237 50.7416C32.6643 50.0689 32.0335 49.0812 31.8331 47.7534C31.3112 44.2984 30.7519 40.849 30.2003 37.3973C29.8248 35.0477 29.4373 32.7015 29.0596 30.353C29.0343 30.1922 29.0464 30.0249 29.0409 29.8608L29.0332 29.8685L29.0343 29.8696Z" fill="#047CDF"/>
  <path d="M141.357 31.4624C141.088 33.3319 140.821 35.1893 140.551 37.0456C140.381 38.2237 140.224 39.404 140.027 40.5777C139.857 41.5939 138.885 42.2413 137.88 42.0828C137.558 42.0321 137.676 41.8262 137.695 41.6754C137.848 40.5314 138.014 39.3897 138.177 38.2468C138.566 35.5273 138.972 32.81 139.344 30.0883C139.575 28.3917 141.011 27.4118 142.595 27.905C142.829 27.9777 142.807 28.1836 142.85 28.3432C143.738 31.6485 144.618 34.9548 145.499 38.2611C145.542 38.4197 145.587 38.5782 145.635 38.7467C145.858 38.6983 145.878 38.4913 145.959 38.347C147.614 35.3919 149.292 32.4478 150.901 29.4662C151.501 28.3542 152.376 27.9061 153.573 27.8995C154.884 27.8929 154.867 27.8852 154.682 29.1569C154.145 32.8541 153.618 36.5535 153.099 40.254C152.94 41.3836 152.232 42.0178 151.061 42.0828C150.671 42.1037 150.642 41.9451 150.687 41.6358C150.93 40.0052 151.164 38.3735 151.399 36.7417C151.649 35.0032 151.897 33.2647 152.041 31.4745C151.951 31.6308 151.862 31.7872 151.774 31.9457C149.997 35.1486 148.215 38.3481 146.454 41.5598C146.244 41.944 146.021 42.1037 145.571 42.0905C144.383 42.0552 144.386 42.0784 144.077 40.9465C143.245 37.911 142.409 34.8777 141.571 31.8444C141.536 31.7156 141.575 31.5395 141.357 31.4635V31.4624Z" fill="#047CDF"/>
  <path d="M81.9717 40.0979C81.8616 40.0979 81.7493 40.1122 81.6414 40.0957C81.0414 40.001 80.71 40.1298 80.5922 40.8466C80.4578 41.6602 79.2544 42.2569 78.443 42.083C78.1941 42.029 78.2888 41.8936 78.3064 41.7615C78.3648 41.3255 78.4011 40.8851 78.4914 40.4568C78.5586 40.1397 78.4463 40.0902 78.1655 40.0935C77.2869 40.1034 76.4061 40.1342 75.5407 39.914C73.9971 39.5231 73.1262 38.5862 72.983 37.0073C72.8333 35.358 73.0909 33.7527 73.7769 32.2377C74.6136 30.388 76.1727 29.6602 78.0984 29.5479C78.6103 29.5182 79.1256 29.5204 79.6387 29.5391C79.9359 29.5501 80.0725 29.4819 80.1639 29.1604C80.4567 28.121 81.2451 27.9063 82.2272 27.9184C82.4595 27.9217 82.4958 28.0352 82.4573 28.2399C82.4 28.546 82.378 28.8576 82.3218 29.1637C82.2701 29.4433 82.3439 29.5468 82.6521 29.5402C83.5131 29.5215 84.3763 29.4918 85.2241 29.6999C87.0474 30.1469 87.9216 31.3283 87.8831 33.3883C87.8588 34.7117 87.6651 36.0175 87.1366 37.2473C86.2888 39.2226 84.6725 39.9966 82.6323 40.0902C82.4132 40.1001 82.1919 40.0913 81.9717 40.0913C81.9717 40.0935 81.9717 40.0957 81.9717 40.0968V40.0979ZM77.7901 38.1193C78.0092 38.1193 78.2316 38.1017 78.4485 38.1237C78.748 38.1546 78.8581 38.039 78.8999 37.7395C79.1696 35.7665 79.4548 33.7946 79.7422 31.8237C79.7697 31.6377 79.7917 31.5033 79.533 31.5155C78.9307 31.543 78.3285 31.4901 77.7262 31.5815C76.6362 31.7489 75.9426 32.3566 75.598 33.3872C75.2765 34.3495 75.1135 35.3371 75.1653 36.3533C75.2159 37.3453 75.6585 37.8287 76.6439 38.0368C77.026 38.1171 77.4069 38.1083 77.7912 38.1182L77.7901 38.1193ZM82.0191 38.1061C82.2393 38.1061 82.4606 38.1226 82.6786 38.1039C83.7278 38.0136 84.602 37.6239 85.0546 36.6021C85.5544 35.4747 85.724 34.2823 85.6095 33.0602C85.5346 32.2674 85.0865 31.8204 84.3081 31.6256C83.7477 31.4857 83.174 31.5705 82.6125 31.5066C82.0785 31.4461 81.9431 31.6674 81.8825 32.1474C81.6744 33.8188 81.4289 35.4857 81.1911 37.1526C81.0524 38.1248 81.0458 38.1237 82.018 38.1083L82.0191 38.1061Z" fill="#343434"/>
  <path d="M160.233 31.8425C160.93 31.8227 161.626 31.8282 162.314 31.9625C163.57 32.208 164.309 33.0547 164.328 34.3385C164.347 35.7379 163.997 37.0976 163.832 38.4772C163.756 39.1136 163.641 39.7445 163.562 40.3798C163.39 41.7835 162.578 42.3285 161.176 42.0159C160.929 41.9608 160.64 42.0973 160.369 42.1293C159.146 42.2757 157.922 42.3495 156.705 42.0764C155.44 41.7924 154.87 41.0943 154.847 39.7929C154.84 39.4274 154.847 39.0552 154.911 38.6974C155.26 36.7464 156.321 35.8172 158.395 35.7214C159.543 35.6685 160.707 35.554 161.828 35.9537C162.011 36.0186 162.06 35.946 162.088 35.8017C162.106 35.7126 162.117 35.6212 162.127 35.5298C162.319 33.7968 162.182 33.6283 160.447 33.5524C160.046 33.5347 159.641 33.5546 159.24 33.5887C158.329 33.6658 158.034 33.9388 157.956 34.8372C157.927 35.1698 157.826 35.281 157.495 35.2622C157.038 35.2358 156.578 35.238 156.121 35.2622C155.788 35.2799 155.725 35.1676 155.777 34.8516C156.104 32.8301 157.126 31.9185 159.19 31.8458C159.538 31.8337 159.887 31.8436 160.235 31.8436L160.233 31.8425ZM158.707 40.4106C159.11 40.4106 159.515 40.4414 159.914 40.4051C161.193 40.2884 161.681 39.7235 161.702 38.4442C161.71 37.9223 161.474 37.6514 160.987 37.5832C160.079 37.4555 159.168 37.4334 158.251 37.5259C156.965 37.6536 156.699 38.6148 156.673 39.7004C156.666 40.0384 156.876 40.2575 157.232 40.3511C157.722 40.4799 158.215 40.415 158.706 40.4106H158.707Z" fill="#047CDF"/>
  <path d="M122.785 37.648C121.796 37.648 120.805 37.6601 119.816 37.6414C119.507 37.6359 119.392 37.7306 119.399 38.0377C119.406 38.4033 119.344 38.771 119.371 39.1333C119.438 40.0196 119.692 40.2948 120.582 40.3939C121.367 40.4809 122.156 40.4545 122.937 40.3157C123.665 40.1858 123.861 39.6353 123.892 39.0265C123.915 38.5794 124.092 38.476 124.494 38.5079C124.895 38.5387 125.301 38.5299 125.703 38.5101C125.997 38.4947 126.066 38.5816 126.04 38.8844C125.875 40.7385 124.937 41.8285 123.109 42.1269C121.876 42.3284 120.625 42.3526 119.392 42.0829C118.145 41.8098 117.453 41.0622 117.314 39.7796C117.111 37.888 117.403 36.0504 118.117 34.2954C118.661 32.9599 119.676 32.1616 121.121 31.9326C122.107 31.7763 123.091 31.7609 124.071 31.9602C125.532 32.2563 126.325 33.157 126.45 34.6488C126.527 35.5693 126.393 36.4754 126.248 37.3815C126.199 37.6887 126.006 37.6491 125.809 37.6491C124.8 37.6502 123.792 37.6491 122.784 37.6491L122.785 37.648ZM122.025 35.839C122.684 35.839 123.344 35.8423 124.002 35.8368C124.136 35.8357 124.285 35.8809 124.361 35.6805C124.676 34.8492 124.13 33.8671 123.253 33.7064C122.745 33.6128 122.237 33.6007 121.724 33.6788C120.588 33.8517 120.001 34.4154 119.778 35.5285C119.726 35.7928 119.809 35.8456 120.046 35.8434C120.706 35.8346 121.365 35.8401 122.023 35.8401L122.025 35.839Z" fill="#343434"/>
  <path d="M95.4484 35.4969C94.0853 37.1693 92.7223 38.8417 91.3592 40.5142C91.2436 40.6562 91.128 40.7993 91.0124 40.9403C89.984 42.1976 89.9851 42.1921 88.3501 42.0831C88.1134 42.0677 88.0397 42.0237 88.0771 41.7682C88.4823 38.997 88.8632 36.2213 89.2794 33.4512C89.4467 32.3336 90.1888 31.8393 91.324 31.9549C91.7325 31.9967 91.5695 32.2555 91.5464 32.4261C91.3592 33.8046 91.1511 35.1809 90.954 36.5582C90.8803 37.0735 90.8164 37.591 90.7437 38.147C91.0201 38.0622 91.1027 37.8651 91.2227 37.7176C92.6804 35.9263 94.1371 34.1349 95.5772 32.3292C95.793 32.0595 96.0066 31.9318 96.3578 31.9549C96.8511 31.9868 97.3476 31.9758 97.8431 31.9582C98.1106 31.9483 98.1998 32.0221 98.1591 32.2984C97.7517 35.0697 97.3674 37.8453 96.9458 40.6144C96.7894 41.6405 95.9692 42.1789 94.8979 42.0853C94.5918 42.0589 94.6424 41.9026 94.6689 41.722C94.9375 39.8745 95.2095 38.0259 95.4781 36.1784C95.51 35.9626 95.531 35.7446 95.5563 35.5277C95.521 35.5167 95.4847 35.5068 95.4495 35.4958L95.4484 35.4969Z" fill="#343434"/>
  <path d="M177.989 38.1263C179.116 36.8997 180.102 35.5576 181.167 34.2793C181.717 33.6176 182.26 32.9482 182.79 32.27C182.963 32.0487 183.144 31.9408 183.435 31.954C183.966 31.9782 184.499 31.9727 185.029 31.9562C185.31 31.9474 185.361 32.0431 185.322 32.3096C184.922 35.0258 184.539 37.7442 184.142 40.4604C183.983 41.5427 183.38 42.0349 182.268 42.0778C181.898 42.0921 181.787 41.9886 181.844 41.6176C182.092 40.0079 182.32 38.3949 182.554 36.783C182.615 36.3679 182.672 35.9517 182.738 35.4893C182.472 35.5763 182.379 35.7822 182.25 35.9385C180.697 37.84 179.138 39.737 177.605 41.655C177.346 41.9787 177.088 42.124 176.684 42.08C176.215 42.0293 175.573 42.2804 175.314 41.9809C175.057 41.6847 175.36 41.0836 175.426 40.6167C175.758 38.2793 176.092 35.9418 176.429 33.6044C176.608 32.3657 177.155 31.9209 178.382 31.9485C178.714 31.9562 178.781 32.0586 178.734 32.3668C178.489 33.9776 178.258 35.5895 178.028 37.2025C177.986 37.491 177.967 37.7827 177.939 38.0734C177.931 38.1152 177.906 38.189 177.916 38.1945C177.982 38.2275 177.975 38.1626 177.988 38.1274L177.989 38.1263Z" fill="#047CDF"/>
  <path d="M184.871 42.0786C185.711 40.8047 186.484 39.6101 187.284 38.4342C187.5 38.1171 187.581 37.9454 187.172 37.6965C186.578 37.3365 186.31 36.732 186.206 36.045C185.885 33.9024 187.276 32.0869 189.433 31.99C191.189 31.9118 192.952 31.9724 194.713 31.9603C195.005 31.958 195.023 32.0637 194.986 32.3214C194.587 35.0563 194.209 37.7934 193.814 40.5294C193.67 41.5303 192.715 42.203 191.689 42.0841C191.417 42.0532 191.472 41.9222 191.498 41.7538C191.644 40.7574 191.773 39.7587 191.935 38.7656C191.992 38.4144 191.919 38.3285 191.542 38.2746C190.258 38.0885 189.354 38.4452 188.81 39.7114C188.504 40.4248 187.973 41.0414 187.567 41.7152C187.408 41.9795 187.234 42.1006 186.913 42.0863C186.273 42.0588 185.63 42.0775 184.871 42.0775V42.0786ZM191.001 33.821C190.708 33.821 190.414 33.8199 190.121 33.821C188.785 33.8276 188.311 34.3197 188.312 35.6575C188.312 36.1034 188.489 36.3357 188.937 36.3918C189.961 36.5196 190.988 36.4227 192.012 36.4546C192.24 36.4612 192.272 36.3225 192.297 36.1408C192.391 35.4703 192.489 34.7998 192.602 34.1326C192.644 33.8826 192.563 33.81 192.321 33.8166C191.882 33.8298 191.441 33.8199 191.001 33.8199V33.821Z" fill="#047CDF"/>
  <path d="M111.882 35.8117C112.432 35.8117 112.983 35.7952 113.532 35.8183C113.86 35.8315 114.016 35.7687 114.045 35.3889C114.094 34.7338 114.209 34.082 114.32 33.4324C114.481 32.4998 115.528 31.7985 116.454 31.9603C116.688 32.0011 116.642 32.1233 116.621 32.2697C116.219 35.0784 115.831 37.8882 115.412 40.6936C115.277 41.6019 114.17 42.2823 113.283 42.0819C112.998 42.0181 113.124 41.8309 113.141 41.7021C113.297 40.5229 113.442 39.3415 113.645 38.1689C113.721 37.7329 113.619 37.6471 113.2 37.6581C112.083 37.6867 110.964 37.6757 109.845 37.6625C109.555 37.6592 109.427 37.7296 109.393 38.0456C109.3 38.9 109.169 39.7511 109.048 40.6033C108.912 41.5667 107.826 42.2966 106.885 42.083C106.593 42.017 106.736 41.8276 106.753 41.701C106.945 40.2675 107.149 38.8362 107.353 37.4048C107.52 36.2268 107.701 35.0509 107.856 33.8717C108.003 32.752 108.79 32.0176 109.907 31.9647C110.202 31.9504 110.283 32.0187 110.232 32.3303C110.065 33.3597 109.952 34.398 109.776 35.4263C109.717 35.7731 109.815 35.8271 110.121 35.8172C110.706 35.7985 111.293 35.8117 111.88 35.8117H111.882Z" fill="#343434"/>
  <path d="M169.852 37.668C169.283 37.668 168.714 37.6845 168.147 37.6614C167.844 37.6493 167.742 37.7495 167.709 38.0489C167.626 38.7943 167.503 39.5353 167.4 40.2785C167.238 41.4323 166.502 42.0731 165.358 42.083C165.064 42.0852 164.989 42.017 165.035 41.7098C165.44 38.9573 165.824 36.2025 166.221 33.45C166.369 32.4294 167.25 31.8205 168.299 31.957C168.654 32.0033 168.535 32.2246 168.513 32.393C168.386 33.3542 168.261 34.3165 168.099 35.2733C168.026 35.7016 168.125 35.8359 168.579 35.8216C169.659 35.7874 170.742 35.793 171.823 35.8205C172.205 35.8304 172.33 35.6928 172.364 35.3349C172.422 34.7162 172.521 34.1007 172.603 33.4841C172.736 32.4756 173.686 31.7996 174.71 31.9614C175.071 32.0187 174.915 32.262 174.894 32.4194C174.749 33.5447 174.584 34.6677 174.424 35.7908C174.215 37.2584 173.996 38.7239 173.798 40.1937C173.64 41.3597 172.974 41.9994 171.816 42.0764C171.5 42.0974 171.36 42.0654 171.426 41.6702C171.626 40.48 171.762 39.2777 171.951 38.0853C172.01 37.7208 171.891 37.6482 171.559 37.6614C170.992 37.6845 170.423 37.668 169.855 37.668H169.852Z" fill="#047CDF"/>
  <path d="M132.559 31.8515C133.128 31.8173 133.694 31.8482 134.254 31.966C135.744 32.2808 136.419 33.1132 136.405 34.6249C136.398 35.3575 136.035 35.7234 135.314 35.7226C134.986 35.7226 134.566 35.8272 134.353 35.6665C134.105 35.4804 134.345 35.0598 134.349 34.7416C134.356 34.2087 134.129 33.8641 133.585 33.7727C132.82 33.6439 132.053 33.634 131.288 33.7661C130.715 33.8652 130.328 34.2175 130.135 34.7537C129.63 36.1465 129.437 37.5987 129.469 39.0697C129.488 39.9769 129.799 40.2346 130.708 40.3656C131.334 40.4559 131.955 40.4008 132.57 40.3028C133.193 40.2037 133.549 39.814 133.747 39.2161C134.075 38.2241 134.784 37.8322 135.832 37.9676C136.124 38.005 136.149 38.103 136.074 38.3529C135.951 38.7548 135.887 39.1743 135.758 39.5729C135.203 41.2684 134.195 42.0501 132.426 42.1955C131.417 42.2792 130.412 42.3133 129.417 42.0832C128.194 41.8002 127.459 41.0108 127.355 39.7567C127.195 37.8498 127.477 35.9913 128.159 34.2065C128.752 32.6596 129.99 31.9924 131.569 31.8559C131.896 31.8272 132.229 31.8515 132.558 31.8515H132.559Z" fill="#343434"/>
  <path d="M103.508 31.9647C104.699 31.9647 105.889 31.9757 107.081 31.9581C107.403 31.9537 107.466 32.0385 107.435 32.3578C107.298 33.8199 107.31 33.821 105.849 33.821H105.134C104.356 33.821 103.912 34.2005 103.803 34.9595C103.539 36.8059 103.277 38.6534 103.011 40.4998C102.866 41.5138 101.935 42.2008 100.916 42.083C100.504 42.0357 100.695 41.7582 100.717 41.5975C100.939 39.9669 101.183 38.3385 101.419 36.709C101.54 35.8766 101.653 35.042 101.79 34.2119C101.843 33.8904 101.747 33.8056 101.429 33.8133C100.606 33.8342 99.7798 33.8067 98.9563 33.8265C98.6513 33.8342 98.5797 33.734 98.6194 33.4489C98.7339 32.611 99.3857 31.8942 100.264 31.9471C101.341 32.0131 102.426 31.9625 103.506 31.9625L103.508 31.9647Z" fill="#343434"/>
  <path d="M89.6471 50.484C89.2189 50.5787 89.1198 50.4125 89.2211 49.9258C89.4005 49.0681 89.5018 48.1928 89.6163 47.3219C89.6967 46.7098 89.5238 46.4279 89.0746 46.364C88.5748 46.2925 87.9978 46.6789 87.9219 47.1502C87.7677 48.107 87.5882 49.0615 87.4848 50.0249C87.4055 50.7604 86.8847 50.4565 86.5368 50.4686C86.0589 50.4862 86.3045 50.0987 86.3298 49.9071C86.4575 48.9646 86.615 48.0266 86.7768 47.0896C86.8594 46.6096 86.6271 46.4059 86.1911 46.3629C85.6174 46.3079 85.1264 46.6822 85.0284 47.2636C84.8742 48.184 84.7421 49.1078 84.5814 50.026C84.5539 50.1835 84.6144 50.4477 84.3656 50.4708C84.0595 50.4984 83.7446 50.4851 83.4407 50.4378C83.3229 50.4191 83.4055 50.244 83.4209 50.1438C83.6499 48.6619 83.8833 47.1799 84.1201 45.699C84.1421 45.5625 84.1498 45.3819 84.3645 45.4073C84.5517 45.4293 84.8258 45.2817 84.9051 45.5218C85.0053 45.8268 85.1132 45.7585 85.3312 45.6616C86.1294 45.3049 86.9254 45.2641 87.6741 45.7948C87.825 45.9016 87.9219 45.8895 88.0529 45.786C88.3182 45.5757 88.6375 45.4854 88.9634 45.4315C90.2659 45.2146 90.9816 45.906 90.7955 47.2129C90.6667 48.118 90.5202 49.0208 90.3727 49.9236C90.2813 50.4851 90.2736 50.484 89.646 50.4829L89.6471 50.484Z" fill="#343434"/>
  <path d="M127.371 50.4774C126.802 50.6007 126.77 50.3365 126.858 49.8762C127.022 49.0141 127.133 48.1421 127.255 47.2723C127.317 46.8308 127.233 46.4543 126.706 46.3662C126.233 46.2869 125.641 46.6569 125.567 47.0929C125.407 48.0486 125.263 49.0075 125.115 49.9665C125.048 50.3981 124.299 50.7174 123.958 50.4576C123.817 50.3497 123.918 50.2187 123.935 50.1053C124.073 49.2013 124.224 48.2996 124.367 47.3957C124.481 46.6745 124.377 46.4499 123.905 46.3684C123.35 46.2726 122.766 46.6382 122.669 47.1799C122.492 48.1708 122.357 49.1683 122.174 50.157C122.055 50.8033 121.529 50.4234 121.203 50.462C120.819 50.5071 121.05 50.1757 121.072 50.0293C121.286 48.6002 121.518 47.1733 121.744 45.7452C121.769 45.5845 121.756 45.3852 122 45.4083C122.198 45.427 122.477 45.2707 122.564 45.5812C122.64 45.852 122.769 45.7529 122.922 45.6825C123.74 45.3048 124.546 45.2586 125.311 45.8058C125.47 45.9192 125.572 45.8719 125.697 45.7761C125.984 45.5592 126.32 45.4689 126.666 45.4226C127.906 45.2575 128.576 45.8873 128.432 47.1281C128.313 48.1454 128.121 49.1529 127.985 50.168C127.925 50.6216 127.597 50.44 127.371 50.4763V50.4774Z" fill="#343434"/>
  <path d="M179.329 46.0676C179.57 45.9862 179.808 45.8948 180.052 45.8265C181.796 45.3333 182.983 46.3869 182.692 48.1662C182.437 49.7307 181.24 50.6721 179.656 50.5554C178.709 50.4849 178.035 49.9058 177.895 48.9677C177.695 47.6179 177.988 46.3352 178.631 45.1582C179.134 44.2367 180.079 43.9867 181.051 43.8645C181.523 43.8051 182.001 43.7819 182.466 43.6861C182.817 43.6146 182.825 43.7203 182.765 44.012C182.609 44.7784 182.611 44.7828 181.809 44.8246C181.389 44.8466 180.966 44.8664 180.551 44.9336C179.924 45.036 179.398 45.2925 179.233 45.9862C179.229 46.0313 179.204 46.0985 179.225 46.1172C179.274 46.1623 179.309 46.1172 179.329 46.0676ZM178.966 48.219C178.963 49.0415 179.235 49.516 179.789 49.6569C180.395 49.81 181.042 49.4456 181.362 48.7497C181.565 48.3104 181.64 47.8491 181.542 47.3646C181.445 46.8846 181.141 46.5906 180.678 46.5994C179.45 46.6237 178.941 46.911 178.964 48.2201L178.966 48.219Z" fill="#343434"/>
  <path d="M120.406 47.5066C120.4 49.648 118.879 50.9208 116.848 50.4606C116.559 50.3956 116.49 50.4892 116.456 50.727C116.389 51.1983 116.332 51.6717 116.242 52.1385C116.119 52.7716 115.62 52.3774 115.307 52.4237C114.935 52.4787 115.13 52.1308 115.152 51.9899C115.476 49.9112 115.816 47.8347 116.162 45.7593C116.185 45.6205 116.155 45.3783 116.409 45.4157C116.615 45.4466 116.913 45.2506 117.005 45.6139C117.082 45.9134 117.229 45.7912 117.403 45.7042C119.032 44.8895 120.412 45.7196 120.406 47.5066ZM119.223 47.6596C119.23 46.8757 118.864 46.4276 118.181 46.3868C117.528 46.3483 117.087 46.7612 116.978 47.5033C116.906 47.9899 116.858 48.4843 116.738 48.9588C116.61 49.4598 116.87 49.5743 117.268 49.6139C118.431 49.7284 119.21 48.95 119.224 47.6585L119.223 47.6596Z" fill="#343434"/>
  <path d="M138.546 47.9823C139.113 48.2069 139.416 48.6099 139.332 49.2452C139.246 49.8959 138.801 50.2383 138.233 50.409C137.184 50.7239 136.137 50.5895 135.102 50.2912C134.857 50.2207 134.809 50.05 134.847 49.8265C135.007 48.9094 135.117 47.9812 135.335 47.0784C135.676 45.668 137.354 44.9413 138.674 45.5854C139.115 45.8001 139.4 46.1337 139.437 46.6402C139.475 47.1522 139.237 47.5155 138.805 47.7654C138.712 47.8194 138.595 47.837 138.544 47.9823H138.546ZM136.911 49.69C137.267 49.7065 137.567 49.7043 137.831 49.5601C138.161 49.3806 138.309 49.0999 138.144 48.7343C137.99 48.393 136.482 48.1409 136.207 48.3963C136.194 48.4084 136.173 48.4216 136.172 48.4348C136.14 48.7784 135.926 49.1307 136.063 49.4533C136.163 49.6911 136.498 49.6691 136.752 49.6878C136.825 49.6933 136.898 49.6878 136.911 49.6878V49.69ZM137.047 47.5584C137.297 47.5243 137.594 47.5166 137.871 47.4362C138.193 47.3426 138.413 47.1125 138.353 46.7448C138.298 46.4101 138.05 46.2725 137.728 46.2438C137.254 46.2031 136.858 46.3396 136.598 46.7514C136.465 46.9628 136.271 47.2182 136.395 47.4527C136.504 47.6586 136.799 47.5056 137.048 47.5584H137.047Z" fill="#343434"/>
  <path d="M192.434 47.9549C193.079 48.2104 193.383 48.632 193.276 49.2827C193.166 49.9533 192.688 50.2714 192.096 50.4344C191.096 50.7097 190.104 50.5786 189.119 50.3144C188.835 50.2384 188.751 50.0722 188.802 49.787C188.959 48.9249 189.073 48.054 189.253 47.1963C189.56 45.7221 191.246 44.9227 192.617 45.5811C193.078 45.8024 193.37 46.1493 193.389 46.6854C193.408 47.2018 193.155 47.5486 192.718 47.7854C192.641 47.8272 192.567 47.8745 192.435 47.9538L192.434 47.9549ZM190.947 48.3392C190.039 48.3381 190.017 48.3634 189.975 49.231C189.966 49.4171 189.994 49.5426 190.201 49.5965C190.723 49.7331 191.242 49.7628 191.754 49.5723C192.016 49.4743 192.165 49.2585 192.168 48.9833C192.171 48.6948 191.977 48.5351 191.724 48.4239C191.461 48.3061 191.188 48.3535 190.948 48.3392H190.947ZM190.957 47.5497C191.299 47.5101 191.633 47.542 191.939 47.3901C192.219 47.2514 192.352 47.0301 192.3 46.7251C192.251 46.4377 192.039 46.2935 191.766 46.2549C191.282 46.1867 190.852 46.2957 190.566 46.724C190.426 46.9332 190.236 47.1875 190.336 47.422C190.446 47.6786 190.76 47.4881 190.957 47.5508V47.5497Z" fill="#343434"/>
  <path d="M174.8 48.9544C175.2 48.0559 175.548 47.283 175.889 46.5068C176.198 45.8029 176.763 45.4799 177.585 45.5379C177.319 46.138 177.063 46.7182 176.804 47.2962C176.257 48.514 175.705 49.7295 175.162 50.9483C174.735 51.9073 173.955 52.329 172.952 52.4171C172.713 52.438 172.413 52.482 172.507 52.0989C172.572 51.8346 172.188 51.3689 172.847 51.3293C173.576 51.2852 174.068 50.8977 174.279 50.1732C174.325 50.0135 174.358 49.9178 174.185 49.8198C173.766 49.5831 173.618 49.1537 173.514 48.7276C173.279 47.7686 173.081 46.7997 172.86 45.8374C172.81 45.6205 172.811 45.517 173.092 45.4983C173.962 45.4432 173.943 45.4322 174.137 46.2877C174.328 47.1322 174.436 47.9998 174.8 48.9533V48.9544Z" fill="#343434"/>
  <path d="M185.282 50.5698C184.096 50.5389 183.462 49.9565 183.331 48.7773C183.102 46.7162 184.815 45.057 186.73 45.4765C187.512 45.6471 187.977 46.1106 188.149 46.8913C188.572 48.8136 187.169 50.6182 185.282 50.5698ZM187.022 47.586C187.009 47.0806 186.97 46.5973 186.421 46.3914C185.91 46.2009 185.32 46.4123 184.969 46.9001C184.604 47.4098 184.464 47.9934 184.506 48.611C184.536 49.0382 184.631 49.4511 185.13 49.6031C185.642 49.7583 186.075 49.6141 186.424 49.2397C186.858 48.774 186.976 48.1828 187.022 47.586Z" fill="#343434"/>
  <path d="M145.356 45.5427C145.114 47.0875 144.869 48.6058 144.638 50.1263C144.531 50.8265 144.007 50.4147 143.689 50.4632C143.254 50.5292 143.51 50.1758 143.526 50.0118C143.57 49.5747 143.627 49.1375 143.72 48.7082C143.787 48.3977 143.685 48.3228 143.394 48.3338C142.936 48.3514 142.476 48.3547 142.019 48.3338C141.73 48.3206 141.644 48.4329 141.618 48.7059C141.572 49.1794 141.483 49.6484 141.408 50.1186C141.3 50.8012 140.769 50.4323 140.441 50.4621C140.052 50.4973 140.248 50.1395 140.271 49.9732C140.466 48.6146 140.696 47.2603 140.892 45.9006C140.999 45.1607 141.549 45.5615 141.881 45.5317C142.273 45.4965 142.053 45.8576 142.026 46.0195C141.804 47.3979 141.797 47.3693 143.167 47.409C143.721 47.4255 144.056 47.3308 144.009 46.6999C144.004 46.6294 144.042 46.5579 144.055 46.4852C144.174 45.7967 144.607 45.4822 145.353 45.5416L145.356 45.5427Z" fill="#343434"/>
  <path d="M112.016 50.5696C110.669 50.5663 109.963 49.855 109.959 48.525C109.95 46.4254 111.616 45.004 113.497 45.506C114.022 45.6459 114.435 45.9442 114.638 46.4518C115.161 47.7631 114.615 49.964 112.801 50.4738C112.531 50.5498 112.259 50.5432 112.016 50.5696ZM113.626 47.7312C113.633 47.0662 113.596 46.585 113.036 46.3879C112.503 46.2008 111.906 46.4375 111.561 46.9561C111.247 47.4273 111.118 47.9492 111.137 48.5129C111.151 48.972 111.221 49.3937 111.718 49.5875C112.192 49.7725 112.749 49.6205 113.098 49.1922C113.484 48.7188 113.629 48.1617 113.626 47.7312Z" fill="#343434"/>
  <path d="M81.8297 49.2078C81.7647 50.4233 81.7075 50.4607 80.7584 50.5554C78.5619 50.7767 77.8958 49.0988 78.3109 47.4968C78.7138 45.9433 80.2475 45.09 81.8253 45.5039C82.3307 45.6361 82.7479 45.8893 82.8536 46.4475C82.9681 47.0531 82.8107 47.5783 82.291 47.9493C81.5071 48.5086 80.6197 48.5901 79.7179 48.393C79.2566 48.2917 79.3062 48.502 79.3634 48.7784C79.4889 49.3828 80.0681 49.7451 80.754 49.6482C81.1195 49.5964 81.4576 49.461 81.8286 49.2078H81.8297ZM80.2596 47.5937C80.7045 47.6058 81.0865 47.5683 81.4355 47.3812C81.6833 47.248 81.8242 47.0322 81.7625 46.747C81.7042 46.4761 81.4807 46.3837 81.2274 46.3561C80.7727 46.3066 80.3477 46.3704 79.9987 46.6963C79.7851 46.8956 79.4746 47.1268 79.5737 47.4109C79.6717 47.6917 80.0538 47.5661 80.2607 47.5948L80.2596 47.5937Z" fill="#343434"/>
  <path d="M108.074 50.4752C107.478 50.6249 107.478 50.3067 107.554 49.8806C107.7 49.0703 107.827 48.2577 107.95 47.4441C108.052 46.7824 107.88 46.4554 107.409 46.3684C106.799 46.2561 106.135 46.6216 106.038 47.1611C105.861 48.1509 105.713 49.1462 105.552 50.1393C105.441 50.8209 104.915 50.4267 104.598 50.4619C104.153 50.5104 104.441 50.1382 104.461 49.994C104.665 48.5825 104.898 47.1743 105.12 45.765C105.148 45.5811 105.144 45.3687 105.414 45.4061C105.616 45.4336 105.917 45.2486 105.977 45.6428C106.028 45.9698 106.195 45.8311 106.363 45.7342C106.802 45.4777 107.282 45.3764 107.787 45.4149C108.687 45.4843 109.214 45.9786 109.144 46.8715C109.056 47.999 108.846 49.1176 108.677 50.2384C108.615 50.6491 108.272 50.4223 108.074 50.4774V50.4752Z" fill="#343434"/>
  <path d="M131.11 50.5654C129.964 50.5952 129.363 50.0336 129.463 49.0526C129.575 47.9615 129.761 46.8759 129.963 45.7969C130.076 45.187 130.591 45.5756 130.91 45.5261C131.299 45.4655 131.08 45.8102 131.062 45.9478C130.943 46.8187 130.786 47.683 130.66 48.5528C130.61 48.8919 130.511 49.2872 130.873 49.5085C131.269 49.7496 131.697 49.6637 132.069 49.4204C132.474 49.1561 132.683 48.7576 132.748 48.2764C132.855 47.4782 132.983 46.6822 133.085 45.8828C133.177 45.1716 133.712 45.5657 134.034 45.525C134.446 45.4732 134.227 45.8234 134.203 45.9885C134.01 47.3108 133.802 48.631 133.59 49.9511C133.56 50.1349 133.612 50.4267 133.375 50.4564C133.063 50.495 132.637 50.6381 132.446 50.3761C132.274 50.1415 132.197 50.2616 132.076 50.3199C131.721 50.4895 131.348 50.5632 131.109 50.5621L131.11 50.5654Z" fill="#343434"/>
  <path d="M170.355 45.5071C170.813 45.5071 171.272 45.5182 171.73 45.5027C171.982 45.4939 172.044 45.5842 172.006 45.8242C171.782 47.271 171.582 48.7221 171.34 50.1655C171.236 50.7854 170.714 50.4331 170.393 50.4628C170 50.4991 170.193 50.1457 170.217 49.9784C170.362 48.9456 170.523 47.914 170.704 46.8867C170.77 46.5091 170.693 46.3868 170.28 46.367C169.717 46.3395 169.435 46.4573 169.354 47.0871C169.256 47.8446 168.996 48.579 168.624 49.2605C168.263 49.9222 167.737 50.378 166.972 50.4925C166.787 50.5201 166.46 50.683 166.432 50.4033C166.403 50.1215 166.316 49.6591 166.709 49.5479C167.385 49.3563 167.661 48.8542 167.897 48.285C168.215 47.5209 168.407 46.7216 168.538 45.9079C168.588 45.6029 168.703 45.473 169.035 45.4994C169.472 45.5336 169.914 45.5082 170.355 45.5082V45.5071Z" fill="#343434"/>
  <path d="M164.292 47.891C164.951 48.2422 165.331 48.6859 165.352 49.3443C165.361 49.6361 165.835 49.5117 165.752 49.832C165.687 50.0831 165.866 50.4574 165.43 50.5367C164.91 50.6303 164.472 50.4244 164.353 50.0115C164.293 49.8023 164.277 49.5788 164.25 49.3619C164.211 49.0591 164.092 48.7949 163.854 48.6033C163.62 48.4128 163.334 48.2818 163.041 48.3556C162.742 48.4305 162.864 48.7564 162.814 48.9644C162.72 49.3542 162.689 49.7583 162.64 50.1568C162.611 50.3969 162.505 50.4838 162.248 50.4927C161.422 50.5213 161.431 50.5356 161.56 49.712C161.76 48.4294 161.949 47.1456 162.139 45.8618C162.243 45.1693 162.771 45.5744 163.089 45.5304C163.513 45.4709 163.256 45.8189 163.246 45.9851C163.227 46.2758 163.162 46.5631 163.122 46.8538C163.044 47.4109 163.144 47.4869 163.701 47.3173C164.242 47.1522 164.547 46.7712 164.708 46.2493C164.883 45.679 165.276 45.4126 165.866 45.4676C166.017 45.4819 166.291 45.3575 166.291 45.6504C166.291 45.9003 166.345 46.2196 166.048 46.3583C165.909 46.4233 165.777 46.4673 165.721 46.6138C165.481 47.2414 165.061 47.6862 164.293 47.891H164.292Z" fill="#343434"/>
  <path d="M157.674 50.4838C157.234 50.4838 156.907 50.4673 156.581 50.4882C156.283 50.508 156.231 50.2735 156.115 50.0973C155.877 49.7351 155.772 49.0921 155.426 49.0514C155.058 49.0073 154.831 49.6162 154.542 49.9366C154.018 50.5168 154.028 50.5267 152.694 50.4585C153.297 49.7571 153.828 49.0723 154.433 48.459C154.826 48.0605 154.861 47.7522 154.548 47.2931C154.181 46.7525 153.893 46.1579 153.581 45.603C154.947 45.0029 155.169 46.1854 155.66 46.9561C156.198 46.5102 156.472 45.832 157.059 45.5391C157.366 45.3861 157.812 45.5127 158.304 45.5127C157.68 46.246 157.118 46.9308 156.526 47.5881C156.295 47.8447 156.252 48.0384 156.444 48.3456C156.861 49.0106 157.231 49.7043 157.674 50.4816V50.4838Z" fill="#343434"/>
  <path d="M93.6239 50.5683C93.0327 50.5705 92.4579 50.4648 91.8887 50.3161C91.6498 50.2534 91.5859 50.1521 91.6322 49.8889C91.8579 48.5908 92.0528 47.2872 92.262 45.9858C92.3258 45.5895 93.0635 45.29 93.3916 45.5234C93.5116 45.6093 93.44 45.7249 93.4257 45.8229C93.374 46.1851 93.3244 46.5485 93.2485 46.9063C93.178 47.2344 93.1505 47.4447 93.6173 47.3115C93.8915 47.2333 94.1997 47.2564 94.4926 47.2652C95.2611 47.2872 95.8017 47.7122 95.979 48.4114C96.1629 49.1392 95.8931 49.8207 95.2655 50.2192C94.7613 50.5396 94.1964 50.5716 93.625 50.5705L93.6239 50.5683ZM93.8397 48.1174C93.0084 48.135 92.8015 48.3497 92.8851 49.3076C92.9347 49.879 93.4632 49.6787 93.7935 49.6919C94.4508 49.7194 94.8758 49.3638 94.8802 48.8727C94.8846 48.3607 94.53 48.1031 93.8397 48.1174Z" fill="#343434"/>
  <path d="M147.875 50.5654C147.248 50.5654 146.729 50.4696 146.209 50.3441C145.871 50.2615 145.826 50.0996 145.878 49.7969C146.1 48.4988 146.319 47.1996 146.51 45.896C146.613 45.1891 147.134 45.5503 147.453 45.5304C147.91 45.5018 147.613 45.8563 147.602 46.0358C147.577 46.4366 147.351 46.9243 147.51 47.2073C147.66 47.4759 148.203 47.2304 148.574 47.2557C149.359 47.3075 149.892 47.7314 150.054 48.4801C150.215 49.2298 149.861 49.9686 149.173 50.3176C148.734 50.5401 148.26 50.5698 147.875 50.5676V50.5654ZM147.951 48.1134C147.305 48.1244 146.97 48.5615 147.074 49.3895C147.133 49.8585 147.594 49.7011 147.882 49.7132C148.578 49.7451 148.981 49.3906 148.964 48.839C148.949 48.3303 148.628 48.1013 147.951 48.1134Z" fill="#343434"/>
  <path d="M77.1176 49.1682C77.1033 50.3981 77.0207 50.4873 75.8713 50.5555C74.2396 50.6524 73.4579 49.8806 73.5162 48.2302C73.5768 46.4928 74.8991 45.2718 76.5594 45.4193C77.5933 45.5107 77.656 45.5999 77.3973 46.6238C77.122 46.5368 76.8523 46.4069 76.5715 46.3728C75.8889 46.2913 75.3428 46.5643 74.9971 47.1545C74.6271 47.7865 74.5137 48.4658 74.8782 49.1396C75.1281 49.6009 75.6214 49.7397 76.2302 49.5481C76.5231 49.4556 76.7983 49.3081 77.1187 49.1682H77.1176Z" fill="#343434"/>
  <path d="M103.316 49.1749C103.334 49.2101 103.35 49.2266 103.348 49.2398C103.272 49.5999 103.515 50.0997 103.149 50.3056C102.546 50.6436 101.838 50.6557 101.169 50.4994C100.435 50.3287 99.9546 49.8553 99.8015 49.0923C99.403 47.1083 100.806 44.9272 103.283 45.5052C103.797 45.6252 103.963 46.1207 103.665 46.5688C103.55 46.7405 103.472 46.5864 103.41 46.5545C102.751 46.2286 102.119 46.266 101.572 46.7515C100.976 47.28 100.802 47.9891 100.95 48.7521C101.074 49.3951 101.552 49.6769 102.213 49.5988C102.619 49.5503 102.955 49.3257 103.317 49.1749H103.316Z" fill="#343434"/>
  <path d="M151.268 50.4774C150.769 50.5853 150.691 50.408 150.776 49.9335C151.009 48.6376 151.176 47.3307 151.369 46.0282C151.434 45.5878 152.089 45.2839 152.461 45.5239C152.604 45.6164 152.539 45.7573 152.522 45.8718C152.309 47.301 152.077 48.7279 151.877 50.1581C151.815 50.6084 151.503 50.4499 151.27 50.4774H151.268Z" fill="#343434"/>
  <path d="M29.0418 29.8617C29.0275 29.8573 29.0143 29.8529 29 29.8496C29.011 29.8562 29.0231 29.8639 29.0341 29.8705L29.0418 29.8617Z" fill="#047CDF"/>
</svg>