<svg xmlns="http://www.w3.org/2000/svg" width="228" height="76" viewBox="0 0 228 76" fill="none">
  <rect width="228" height="76" fill="white"/>
  <path d="M128.474 18C135.548 18 142.624 18 149.699 18C149.399 19.826 149.099 21.6519 148.792 23.5212C149.422 23.5212 149.976 23.5133 150.531 23.5232C152.146 23.5517 153.714 23.8324 155.207 24.4617C155.731 24.6824 156.234 25.1403 156.749 25.1452C157.265 25.1502 157.778 24.705 158.306 24.4913C160.279 23.6916 162.345 23.4739 164.457 23.5163C166.582 23.5586 168.601 23.987 170.475 25.0231C170.614 25.0999 170.858 25.1226 170.995 25.0527C174.387 23.3321 177.96 23.0987 181.591 23.9358C185.116 24.7483 187.542 26.8944 188.626 30.4114C189.237 32.391 188.991 34.3814 188.653 36.3767C188.151 39.3363 187.704 42.3057 187.212 45.2672C186.87 47.3255 186.582 49.3997 186.108 51.4295C185.38 54.5476 183.509 56.7271 180.413 57.7524C178.96 58.234 177.456 58.4487 175.93 58.4497C159.605 58.4566 143.28 58.4556 126.955 58.4497C125.729 58.4497 124.5 58.4329 123.278 58.3522C121.211 58.2153 119.255 57.6923 117.525 56.4918C117.436 56.4307 117.332 56.3913 117.204 56.3263C117.079 57.0512 116.961 57.7356 116.837 58.4546C116.61 58.4546 116.416 58.4546 116.223 58.4546C102.304 58.4566 88.3867 58.4615 74.4682 58.4507C73.4741 58.4507 72.4712 58.3906 71.4879 58.2547C70.5941 58.1316 69.7209 57.8657 68.8084 57.6559C68.8065 57.6588 68.7514 57.713 68.7465 57.7711C68.7003 58.3857 68.3414 58.4723 67.7878 58.4713C59.4042 58.4536 51.0207 58.4585 42.6372 58.4595C42.4248 58.4595 42.2124 58.4713 42 58.4782C42 44.9855 42 31.4927 42 18C54.9372 18 67.8763 18 80.8144 18C80.252 19.885 79.6885 21.7701 79.1212 23.6729C79.2244 23.6926 79.2864 23.7142 79.3483 23.7142C83.308 23.7162 87.2677 23.7142 91.2274 23.7231C91.5352 23.7231 91.608 23.5842 91.6473 23.3183C91.7909 22.3344 91.9649 21.3545 92.1085 20.3706C92.2235 19.5817 92.3101 18.7899 92.4094 18C102.695 18 112.98 18 123.265 18C123.168 18.5555 123.071 19.1109 122.959 19.7511C123.173 19.6595 123.297 19.5994 123.428 19.5502C124.506 19.1454 125.573 18.7091 126.666 18.3526C127.245 18.1635 127.87 18.1133 128.474 18ZM120.627 20.2632C120.328 20.2632 120.102 20.2632 119.876 20.2632C111.899 20.2632 103.924 20.2632 95.9472 20.2632C95.5539 20.2632 95.1606 20.2731 94.7683 20.2603C94.491 20.2514 94.3799 20.3401 94.3356 20.6395C94.1016 22.2212 93.8037 23.795 93.5991 25.3806C93.5333 25.8898 93.3455 25.9716 92.8931 25.9706C87.489 25.9568 82.0838 25.9617 76.6797 25.9617H76.072C76.6502 24.0382 77.2087 22.1778 77.7751 20.2948H44.2714V56.1786C44.4277 56.1924 44.5546 56.213 44.6824 56.213C51.9381 56.215 59.1928 56.213 66.4485 56.2209C66.7691 56.2209 66.9077 56.1116 66.9903 55.8073C67.1634 55.1681 67.3748 54.5388 67.538 54.0118C68.3954 54.5033 69.2047 55.0588 70.0857 55.4537C71.4466 56.0633 72.9255 56.2061 74.4014 56.2091C82.5086 56.2229 90.6149 56.216 98.7221 56.216C103.946 56.216 109.171 56.214 114.396 56.2199C114.716 56.2199 114.962 56.213 115.016 55.7994C115.133 54.91 115.286 54.0247 115.426 53.1393C115.571 52.2292 115.719 51.3192 115.867 50.4092C116.018 50.6071 116.089 50.8041 116.165 51.0001C117.109 53.4584 118.719 55.2232 121.376 55.7807C122.536 56.0239 123.736 56.1963 124.919 56.1983C141.722 56.2249 158.526 56.2209 175.329 56.2052C176.386 56.2042 177.456 56.1146 178.496 55.9314C181.221 55.4507 183.121 53.9715 183.856 51.2099C184.028 50.5648 184.193 49.9138 184.299 49.2559C185.109 44.2291 185.937 39.2053 186.691 34.1706C187.149 31.1057 185.718 27.961 182.547 26.6304C179.519 25.3599 176.417 25.4614 173.352 26.4975C172.408 26.8166 171.551 27.3957 170.598 27.8852C168.675 26.1764 166.257 25.7096 163.695 25.75C161.14 25.7903 158.737 26.3419 156.717 28.0132C153.518 25.3806 149.892 25.4358 146.11 26.2257C146.421 24.2313 146.724 22.2871 147.039 20.2662C146.764 20.2662 146.556 20.2662 146.349 20.2662C140.78 20.2662 135.212 20.2662 129.644 20.2662C128.121 20.2662 126.663 20.5754 125.261 21.1683C123.245 22.0212 121.693 23.4463 120.341 25.1236C120.21 25.2861 120.06 25.4318 119.841 25.6702C120.113 23.8039 120.364 22.0793 120.628 20.2662L120.627 20.2632Z" fill="#EC1C24"/>
  <path d="M72.7196 23.8383C72.5082 24.5444 72.3233 25.1816 72.1277 25.8159C69.4443 34.5448 66.756 43.2718 64.0844 52.0046C63.9477 52.4517 63.7638 52.6192 63.28 52.6064C61.9221 52.5699 60.5622 52.5946 59.2023 52.5926C59.0273 52.5926 58.8523 52.5758 58.5956 52.5621C58.5956 51.4964 58.6084 50.4692 58.5937 49.443C58.5337 45.3695 58.4649 41.2951 58.397 37.2217C58.3931 36.9607 58.3813 36.6977 58.3449 36.4397C58.3301 36.3373 58.2357 36.2457 58.1777 36.1492C58.0951 36.2348 57.9693 36.3067 57.9368 36.4092C57.7215 37.0779 57.5268 37.7525 57.3252 38.4252C55.9604 42.996 54.5917 47.5648 53.2396 52.1386C53.1384 52.4813 52.9968 52.6064 52.6349 52.6014C51.1944 52.5817 49.7529 52.5837 48.3114 52.6005C47.9535 52.6044 47.8306 52.5089 47.8306 52.1336C47.8404 42.8502 47.8394 33.5668 47.8315 24.2834C47.8315 23.9417 47.9338 23.8274 48.2799 23.8324C49.5897 23.8491 50.9004 23.855 52.2101 23.8294C52.629 23.8215 52.7293 23.9614 52.7283 24.3602C52.7156 28.8296 52.7175 33.2999 52.7283 37.7703C52.7283 37.9958 52.8463 38.2213 52.9102 38.4469C53.0322 38.241 53.2023 38.049 53.2691 37.8264C54.6064 33.3502 55.9358 28.8719 57.2505 24.3888C57.3704 23.9811 57.5366 23.8166 57.986 23.8264C59.4265 23.858 60.868 23.8383 62.3085 23.8383H62.9093C62.9093 24.7601 62.9123 25.6366 62.9093 26.5132C62.9064 27.2006 62.8926 27.8881 62.8887 28.5755C62.872 31.6522 62.8572 34.73 62.8425 37.8067C62.8425 37.9544 62.8287 38.1051 62.8572 38.2469C62.872 38.3208 62.9585 38.4272 63.0214 38.4321C63.0902 38.438 63.1827 38.3582 63.2368 38.2932C63.2849 38.2332 63.2977 38.1435 63.3223 38.0657C64.7382 33.5117 66.1601 28.9586 67.5583 24.3987C67.692 23.9614 67.8749 23.8136 68.3371 23.8264C69.6134 23.8619 70.8917 23.8392 72.169 23.8392H72.7206L72.7196 23.8383Z" fill="#EC1C24"/>
  <path d="M111.854 52.7376C110.892 52.7376 110.01 52.7495 109.128 52.7258C108.987 52.7219 108.809 52.586 108.719 52.4599C108.473 52.1172 108.266 51.7478 108.019 51.349C107.815 51.541 107.646 51.7104 107.467 51.868C106.089 53.0735 103.424 53.3404 101.825 52.4343C100.804 51.8562 100.293 50.6497 100.516 49.2344C101.276 44.3928 102.048 39.5532 102.82 34.7145C102.938 33.9729 103.041 33.2263 103.22 32.4985C103.836 29.993 105.565 29.2218 107.884 29.3597C108.795 29.4139 109.647 29.6581 110.422 30.3151C110.554 29.5144 110.676 28.7954 110.791 28.0745C110.992 26.8158 111.181 25.5562 111.397 24.2995C111.419 24.1665 111.583 23.9538 111.683 23.9528C113.234 23.9301 114.785 23.937 116.416 23.937C114.89 33.5651 113.376 43.1253 111.854 52.7357V52.7376ZM110.006 33.4913C110.015 32.8176 109.536 32.4306 108.896 32.5497C108.284 32.664 107.972 33.0638 107.837 33.9079C107.059 38.7928 106.28 43.6778 105.5 48.5618C105.406 49.1527 105.547 49.5092 105.954 49.6845C106.434 49.8914 107.085 49.7279 107.337 49.266C107.503 48.9606 107.592 48.5972 107.649 48.2496C108.27 44.4302 108.879 40.6099 109.489 36.7886C109.667 35.6767 109.839 34.5638 110.008 33.4923L110.006 33.4913Z" fill="#EC1C24"/>
  <path d="M129.166 33.9894C129.418 32.452 129.665 30.954 129.911 29.457C129.977 29.0542 130.037 28.6494 130.109 28.2476C130.238 27.5178 130.038 27.0667 129.513 26.9327C128.831 26.7584 128.158 27.1278 127.99 27.8221C127.851 28.3923 127.776 28.9793 127.683 29.5594C126.767 35.2224 125.854 40.8854 124.94 46.5475C124.847 47.1285 124.764 47.7106 124.663 48.2907C124.52 49.1209 124.723 49.5592 125.331 49.6931C126.019 49.8448 126.668 49.4184 126.807 48.6689C126.997 47.6407 127.146 46.6046 127.309 45.5705C127.512 44.2951 127.71 43.0196 127.914 41.7452C127.935 41.6182 127.983 41.4951 128.024 41.3523H133.016C132.902 42.0584 132.796 42.7281 132.686 43.3978C132.414 45.0426 132.175 46.6932 131.862 48.3301C131.36 50.9528 129.542 52.5532 126.822 52.8634C125.444 53.02 124.077 53.0062 122.726 52.6694C120.29 52.0618 119.171 50.3481 119.571 47.8711C120.614 41.4173 121.64 34.9614 122.701 28.5105C123.099 26.0897 124.579 24.6173 126.93 24.0156C128.524 23.6078 130.138 23.5852 131.746 23.9259C134.306 24.4686 135.473 26.2709 135.014 28.9015C134.745 30.4468 134.493 31.996 134.261 33.5471C134.207 33.9116 134.084 34.0406 133.707 34.0347C132.348 34.013 130.988 34.0278 129.629 34.0248C129.486 34.0248 129.343 34.0041 129.164 33.9903L129.166 33.9894Z" fill="#EC1C24"/>
  <path d="M74.5357 53.0047C73.9644 52.916 73.1394 52.8668 72.3587 52.6541C69.9821 52.008 69.1375 50.3367 69.4698 48.1187C70.167 43.4662 70.9408 38.8245 71.6783 34.1779C72.0785 31.6536 73.4836 30.1251 75.988 29.5834C77.6233 29.2299 79.2693 29.2121 80.8878 29.6918C82.8721 30.2797 83.8789 31.7895 83.5781 33.8282C83.0569 37.3679 82.4846 40.8996 81.9301 44.4343C81.7246 45.7412 81.5289 47.0501 81.288 48.3502C80.7894 51.0448 79.0795 52.594 76.3469 52.8599C75.8268 52.9101 75.3047 52.9436 74.5347 53.0047H74.5357ZM78.7658 33.5968C78.7816 32.7843 78.2978 32.3903 77.6105 32.5587C77.0323 32.7005 76.7521 33.1034 76.6616 33.6766C76.1758 36.7434 75.6832 39.8094 75.1926 42.8753C74.8858 44.7958 74.576 46.7153 74.2751 48.6368C74.1414 49.4887 74.7658 49.9831 75.578 49.6797C76.1719 49.4581 76.3204 48.9529 76.4079 48.3974C76.9782 44.7977 77.5534 41.199 78.1267 37.6003C78.345 36.2284 78.5643 34.8574 78.7649 33.5968H78.7658Z" fill="#EC1C24"/>
  <path d="M142.838 37.0517C143.02 35.9231 143.152 34.8348 143.376 33.7662C143.861 31.4576 145.315 30.0857 147.603 29.5933C149.257 29.2368 150.916 29.2003 152.55 29.7016C154.567 30.3201 155.554 31.9146 155.223 34.0065C154.273 39.9945 153.315 45.9806 152.362 51.9676C152.341 52.0966 152.33 52.2276 152.315 52.3576C152.286 52.6196 152.181 52.7555 151.876 52.7466C151.124 52.724 150.368 52.7594 149.617 52.725C149.432 52.7161 149.203 52.5684 149.085 52.4138C148.839 52.0937 148.654 51.7263 148.451 51.3905C148.384 51.3993 148.342 51.3905 148.326 51.4082C146.838 53.0027 144.99 53.2243 142.997 52.7457C141.58 52.4059 140.732 51.2457 140.9 49.6748C141.091 47.8922 141.39 46.1106 141.792 44.3624C142.184 42.6576 143.353 41.4827 144.869 40.6623C146.306 39.8842 147.75 39.115 149.209 38.3783C149.596 38.1833 149.75 37.9263 149.808 37.5245C149.98 36.3111 150.172 35.1007 150.367 33.8913C150.495 33.1004 150.312 32.6887 149.745 32.5577C149.111 32.412 148.468 32.8306 148.329 33.5328C148.168 34.3502 148.046 35.1755 147.924 35.9999C147.769 37.0497 147.775 37.0507 146.7 37.0507H142.839L142.838 37.0517ZM149.035 42.2312C148.996 42.1918 148.956 42.1514 148.917 42.112C148.316 42.5109 147.681 42.8684 147.128 43.3263C146.877 43.5341 146.703 43.9232 146.641 44.258C146.359 45.7659 146.114 47.2806 145.89 48.7973C145.801 49.3941 146.174 49.7516 146.785 49.7536C147.499 49.7566 147.904 49.3272 148.038 48.4565C148.218 47.2954 148.414 46.1372 148.599 44.977C148.746 44.062 148.89 43.1461 149.034 42.2312H149.035Z" fill="#EC1C24"/>
  <path d="M169.592 44.5946H174.335C174.198 45.481 174.066 46.3457 173.932 47.2085C173.861 47.6605 173.795 48.1136 173.71 48.5627C173.627 48.997 173.662 49.386 174.084 49.6322C174.473 49.8597 175.091 49.7928 175.39 49.4215C175.595 49.1674 175.749 48.8315 175.811 48.5105C176.01 47.4685 176.165 46.4166 176.322 45.3668C176.43 44.6448 176.176 44.0569 175.627 43.5772C174.704 42.7687 173.821 41.9118 172.868 41.1407C171.118 39.7234 170.593 37.9004 170.961 35.7524C171.099 34.9478 171.237 34.1402 171.438 33.3503C171.955 31.3245 173.252 30.0697 175.294 29.6078C176.828 29.2611 178.372 29.2208 179.919 29.5172C182.309 29.9752 183.446 31.5549 183.112 33.9708C182.971 34.9882 182.789 35.9996 182.621 37.0495H177.795C177.885 36.4487 177.964 35.8933 178.05 35.3388C178.132 34.806 178.234 34.2761 178.303 33.7413C178.396 33.0391 178.216 32.6924 177.725 32.5595C177.157 32.4058 176.53 32.6983 176.339 33.2814C176.198 33.7118 176.156 34.1747 176.086 34.6257C175.989 35.2551 175.893 35.8854 175.82 36.5177C175.756 37.0672 176.002 37.5035 176.403 37.8561C177.521 38.84 178.639 39.8229 179.764 40.7979C180.763 41.6646 181.258 42.7844 181.309 44.0746C181.383 45.938 181.027 47.759 180.485 49.5259C179.995 51.1283 178.836 52.1309 177.221 52.5642C175.605 52.9985 173.965 53.0911 172.315 52.7671C169.831 52.2796 168.624 50.5925 168.989 48.0771C169.155 46.9298 169.381 45.7922 169.59 44.5917L169.592 44.5946Z" fill="#EC1C24"/>
  <path d="M160.402 44.5697C160.188 45.9446 159.986 47.2328 159.787 48.522C159.682 49.2006 159.856 49.5768 160.334 49.7176C160.895 49.8831 161.526 49.5916 161.736 49.0204C161.859 48.6875 161.909 48.325 161.969 47.9715C162.111 47.1343 162.245 46.2952 162.372 45.4551C162.487 44.7037 162.27 44.0793 161.68 43.5711C160.739 42.7585 159.847 41.8859 158.885 41.1C157.201 39.7281 156.681 37.9602 157.004 35.8871C157.134 35.048 157.282 34.2089 157.488 33.3865C157.975 31.4483 159.17 30.166 161.131 29.6686C162.837 29.2362 164.559 29.1781 166.276 29.5987C168.321 30.1 169.322 31.3537 169.214 33.4505C169.152 34.6481 168.881 35.8349 168.703 37.0335H163.857C163.973 36.2741 164.084 35.5414 164.197 34.8096C164.256 34.4216 164.311 34.0336 164.38 33.6475C164.456 33.224 164.392 32.8438 163.979 32.64C163.546 32.4253 163.082 32.4696 162.751 32.8133C162.528 33.0457 162.353 33.3826 162.289 33.6997C162.118 34.5477 162.019 35.4104 161.889 36.2663C161.788 36.9202 161.997 37.4521 162.494 37.8864C163.518 38.7797 164.505 39.7173 165.562 40.5672C166.87 41.619 167.496 42.989 167.368 44.6052C167.243 46.177 166.989 47.7538 166.617 49.2863C166.196 51.0285 164.986 52.1207 163.247 52.5767C161.546 53.0229 159.823 53.1332 158.103 52.7028C155.796 52.1266 154.719 50.538 155.036 48.1891C155.185 47.089 155.401 45.9968 155.61 44.9056C155.635 44.7785 155.812 44.5865 155.92 44.5855C157.391 44.5638 158.862 44.5707 160.402 44.5707V44.5697Z" fill="#EC1C24"/>
  <path d="M142.823 24.0075C141.31 33.5647 139.794 43.1248 138.277 52.7096H133.307C133.484 51.5731 133.655 50.4651 133.831 49.3571C134.507 45.0818 135.184 40.8064 135.863 36.5311C136.509 32.4656 137.159 28.401 137.801 24.3354C137.838 24.1079 137.855 23.9307 138.161 23.9326C139.65 23.9454 141.14 23.9415 142.629 23.9454C142.675 23.9454 142.721 23.973 142.823 24.0065V24.0075Z" fill="#EC1C24"/>
  <path d="M97.8665 52.6662H92.894C94.4142 43.0716 95.9275 33.5124 97.4447 23.9365H102.417C100.901 33.5105 99.3877 43.0608 97.8665 52.6662Z" fill="#EC1C24"/>
  <path d="M87.6461 52.7047H82.708C83.9283 45.0011 85.1416 37.3387 86.3658 29.6065C87.3118 29.6065 88.2557 29.5977 89.1997 29.6183C89.3088 29.6203 89.4426 29.7621 89.5173 29.8714C89.7552 30.2211 89.9716 30.5865 90.2371 31.01C91.5812 29.4795 93.2921 29.1239 95.2381 29.3416C94.9991 30.8317 94.7631 32.3051 94.5321 33.743C93.8398 33.6928 93.1899 33.5933 92.5439 33.61C91.3393 33.6415 90.6205 34.2758 90.4259 35.4557C89.9883 38.1001 89.5743 40.7494 89.1554 43.3967C88.6854 46.3671 88.2203 49.3374 87.7503 52.3078C87.7297 52.4359 87.6854 52.5599 87.6471 52.7037L87.6461 52.7047Z" fill="#EC1C24"/>
</svg>