<svg xmlns="http://www.w3.org/2000/svg" width="213" height="53" viewBox="0 0 213 53" fill="none">
  <path d="M160 53L186.501 26.5012L160 1.52588e-05L186.501 1.41004e-05L213 26.5012L186.501 53L160 53Z" fill="white"/>
  <path d="M107 53L133.501 26.5012L107 1.52588e-05L133.501 1.41004e-05L160 26.5012L133.501 53L107 53Z" fill="white"/>
  <path d="M53 53L79.5012 26.5012L53 1.52588e-05L79.5012 1.41004e-05L106 26.5012L79.5012 53L53 53Z" fill="white"/>
  <path d="M0 53L26.5012 26.5012L-2.3167e-06 1.52588e-05L26.5012 1.41004e-05L53 26.5012L26.5012 53L0 53Z" fill="white"/>
</svg>