<svg xmlns="http://www.w3.org/2000/svg" width="53" height="53" viewBox="0 0 53 53" fill="none">
  <path d="M53 0H0V53H53V0Z" fill="#000102"/>
  <path d="M26.4999 9.79346C34.1357 9.79354 40.326 15.9837 40.326 23.6196C40.326 31.2556 26.4999 43.4946 26.4999 43.4946C26.4999 43.4946 12.6738 31.2556 12.6737 23.6196C12.6737 15.9837 18.8639 9.79346 26.4999 9.79346ZM26.4999 17.8589C23.3182 17.8589 20.7391 20.438 20.7391 23.6196C20.7392 26.8012 23.3183 29.3804 26.4999 29.3804C29.6814 29.3803 32.2606 26.8012 32.2606 23.6196C32.2606 20.4381 29.6814 17.859 26.4999 17.8589Z" fill="#B4CF50"/>
</svg>