<svg xmlns="http://www.w3.org/2000/svg" width="109" height="31" viewBox="0 0 109 31" fill="none">
  <path d="M5.83954 12.2612V10.4104H8.17535V12.2612V12.3768V12.6082C8.17535 15.7313 6.77386 18.6231 4.43805 20.7052C3.15335 21.8619 1.63507 22.7873 0 23.3657V21.0522C1.05112 20.5895 1.98544 20.0112 2.80298 19.2015C4.67163 17.5821 5.83954 15.153 5.83954 12.6082V12.3768V12.2612ZM17.5186 12.2612V10.4104H19.8544V12.2612V12.3768V12.6082C19.8544 15.153 21.0223 17.4664 22.891 19.2015C23.7085 19.8955 24.6428 20.5895 25.694 21.0522V23.3657C23.9421 22.7873 22.4238 21.8619 21.2559 20.7052C18.9201 18.6231 17.5186 15.7313 17.5186 12.6082V12.3768V12.2612ZM0 27.2985C2.68619 26.6045 5.13879 25.2164 7.12423 23.4813C8.64251 22.0933 9.81042 20.5895 10.628 18.7388C11.2119 20.2425 11.9127 21.5149 12.847 22.7873C13.6645 21.6306 14.3653 20.2425 15.066 18.7388C15.8835 20.4739 17.0514 22.0933 18.5697 23.4813C20.5552 25.2164 23.0078 26.6045 25.694 27.2985V24.9851C23.5917 24.291 21.7231 23.25 20.2048 21.8619C17.6354 19.5485 16.1171 16.3097 16.1171 12.8395V3.12309H13.7813V12.8395C13.7813 14.5746 13.4309 16.541 12.9638 18.1604C12.3798 16.6567 12.1462 14.5746 12.1462 12.8395V3.12309H9.81042V12.8395C9.81042 16.3097 8.17535 19.5485 5.72275 21.8619C4.20447 23.25 2.33581 24.291 0.233581 24.9851V27.2985H0ZM10.5112 22.0933C9.92721 22.903 9.22647 23.597 8.40893 24.291C6.07312 26.3731 3.27014 27.8769 0 28.5709V30.7687C3.85409 29.959 7.35782 28.2239 10.1608 25.7948C10.7447 25.2164 11.3287 24.7537 11.7959 24.0597H11.6791C11.2119 23.4813 10.8615 22.7873 10.5112 22.0933ZM14.0149 24.291C14.482 24.8694 15.066 25.3321 15.5332 25.9104C18.2194 28.3396 21.7231 30.1903 25.694 30.8843V28.6866C22.4238 27.9925 19.5041 26.4888 17.285 24.4067C16.5843 23.7127 15.8835 23.0187 15.2996 22.3246C14.9492 23.0187 14.5988 23.597 14.1317 24.1754C14.1317 24.1754 14.0149 24.1754 14.0149 24.291Z" fill="#E72F39"/>
  <path d="M36.2039 11.6829C36.7878 8.90673 37.4886 5.89926 37.7222 3.12314H40.5251V15.9627H38.7733V10.8731L39.0069 6.24628C38.7733 7.75001 37.7222 13.1866 36.4375 15.847H36.2039H35.9703C34.6856 13.1866 33.6345 7.75001 33.4009 6.24628L33.6345 10.8731V15.9627H31.8826V3.12314H34.6856C35.036 5.89926 35.7367 8.90673 36.2039 11.6829ZM78.015 5.3209V5.89926V6.94031C78.015 7.98135 77.5478 8.67538 76.8471 9.13807C77.5478 9.71643 78.015 10.6418 78.015 11.6829V15.847C76.7303 15.847 75.5624 15.847 74.2777 15.847H72.1754V3.00747H74.2777C75.5624 3.00747 76.7303 3.00747 78.015 3.00747V5.3209ZM74.1609 10.1791V14.112H75.9127C75.9127 13.3023 75.9127 12.4926 75.9127 11.5672C75.9127 10.2948 74.9784 10.1791 74.1609 10.1791ZM74.1609 4.85821V8.32837C74.9784 8.32837 75.9127 8.32837 75.9127 7.05598V5.89926V4.97389H74.1609V4.85821ZM66.6863 15.9627H64.584V3.00747H66.6863H68.6717H70.7739V15.847H68.6717H66.6863V15.9627ZM68.5549 4.85821H66.6863V14.112H68.5549V4.85821ZM44.1457 15.9627H42.0434V3.00747H44.1457H46.1311H48.2333V15.847H46.1311H44.1457V15.9627ZM46.0143 4.85821H44.1457V14.112H46.0143V4.85821ZM81.4019 15.9627H79.2997V3.00747H81.4019H83.3874H85.4896V8.2127H83.3874V4.85821H81.4019V14.112H83.3874V10.7575H85.4896V15.9627H83.3874H81.4019ZM51.6203 15.9627H49.518V3.00747H51.6203H53.6057H55.7079V8.2127H53.6057V4.85821H51.6203V14.112H53.6057V10.7575H55.7079V15.9627H53.6057H51.6203ZM88.9933 15.9627H86.8911V3.12314H88.9933V8.2127H89.3437C90.5116 8.2127 90.862 7.05598 90.862 6.24628V3.23881H92.9642V6.1306C92.9642 7.51867 92.497 8.44404 91.4459 9.13807C92.497 9.8321 92.9642 10.8731 92.9642 12.1455V15.9627H90.862V12.0299C90.862 11.2202 90.3948 10.1791 89.3437 10.1791H88.9933V15.9627ZM107.329 1.50373H102.775V0H107.329V1.50373ZM101.957 15.9627V3.12314H103.826V10.6418L105.928 3.12314H108.264V15.9627H106.278V7.05598L103.709 16.0784L101.957 15.9627ZM94.2489 15.9627V3.12314H96.1175V10.6418L98.2198 3.12314H100.556V15.9627H98.6869V7.05598L96.1175 16.0784L94.2489 15.9627ZM59.2117 15.9627H57.2262V3.12314H59.3285V8.2127H59.6788C60.8467 8.2127 61.1971 7.05598 61.1971 6.24628V3.23881H63.2993V6.1306C63.2993 7.51867 62.8322 8.44404 61.7811 9.13807C62.8322 9.8321 63.2993 10.8731 63.2993 12.1455V15.9627H61.1971V12.0299C61.1971 11.2202 60.7299 10.1791 59.6788 10.1791H59.3285V15.9627H59.2117Z" fill="#E72F39"/>
  <path d="M41.5763 30.8842H39.474V18.0446H45.5471V30.8842H43.4449V19.8953H41.4595V30.8842H41.5763ZM33.9849 30.8842H31.8826V18.0446H33.9849H35.9703H38.0725V23.2498H35.9703V19.8953H33.9849V29.1491H35.9703V25.7946H38.0725V30.9998H35.9703H33.9849V30.8842ZM49.0509 30.8842H46.9486V18.0446H49.0509H51.0363H53.1385V30.8842H51.0363H49.0509ZM51.0363 19.7797H49.1677V29.0334H51.0363V19.7797ZM60.9635 18.0446H67.387V19.8953H65.2848V30.8842H63.0658V19.8953H60.9635V18.0446ZM60.3796 22.4401V23.0185V24.0595C60.3796 26.026 59.3285 27.414 57.343 27.414H56.6423V30.8842H54.54V18.0446C56.5255 18.0446 58.3941 18.0446 60.3796 18.0446V22.4401ZM56.6423 19.7797V25.5633C57.4598 25.5633 58.3941 25.4476 58.3941 24.1752V23.0185V19.8953H56.6423V19.7797Z" fill="#E72F39"/>
</svg>