<svg xmlns="http://www.w3.org/2000/svg" xmlns:xlink="http://www.w3.org/1999/xlink"><symbol id="arrow-left" viewBox="0 0 40 40">
  <path d="M0 40L40 40L40 0L3.49691e-06 -3.49691e-06L0 40Z" fill="#000102"/>
  <path d="M31.8633 8.13684L19.9999 20.0002L31.8633 31.8635L19.9999 31.8635L8.1366 20.0002L19.9999 8.13684L31.8633 8.13684Z" fill="#B4CF52"/>
</symbol><symbol id="arrow-right" viewBox="0 0 40 40">
  <path d="M40 0L0 0L0 40L40 40L40 0Z" fill="#000102"/>
  <path d="M8.13672 31.8632L20.0001 19.9998L8.13672 8.13647L20.0001 8.13647L31.8634 19.9998L20.0001 31.8632H8.13672Z" fill="#B4CF52"/>
</symbol><symbol id="minus" viewBox="0 0 60 62">
  <path d="M30 61.0909C46.5685 61.0909 60 47.4152 60 30.5455C60 13.6757 46.5685 0 30 0C13.4315 0 0 13.6757 0 30.5455C0 47.4152 13.4315 61.0909 30 61.0909Z" fill="#70B42D"/>
  <path d="M47.4541 30.2725L13.0905 30.2725" stroke="white" stroke-width="6" stroke-linecap="square"/>
</symbol><symbol id="plus" viewBox="0 0 60 62">
  <path d="M30 61.5011C46.5685 61.5011 60 47.8254 60 30.9556C60 14.0858 46.5685 0.410156 30 0.410156C13.4315 0.410156 0 14.0858 0 30.9556C0 47.8254 13.4315 61.5011 30 61.5011Z" fill="black"/>
  <path d="M30.2725 13.501V47.8646" stroke="white" stroke-width="6" stroke-linecap="square"/>
  <path d="M47.4541 30.6826L13.0905 30.6826" stroke="white" stroke-width="6" stroke-linecap="square"/>
</symbol></svg>