<svg width="160" height="546" viewBox="0 0 160 546" fill="none" xmlns="http://www.w3.org/2000/svg">
<path d="M-2.22526e-05 385.039L80.0099 305.049L160 385.039L160 305.049L80.0099 225.039L-1.87561e-05 305.049L-2.22526e-05 385.039Z" fill="#70B42D"/>
<path d="M-2.22535e-05 545.06L80.0099 465.05L160 545.06L160 465.05L80.0099 385.04L-1.87561e-05 465.05L-2.22535e-05 545.06Z" fill="#70B42D"/>
<path d="M-2.22535e-05 225.039L80.0099 145.029L160 225.039L160 145.029L80.0099 65.0195L-1.87561e-05 145.029L-2.22535e-05 225.039Z" fill="#70B42D"/>
<path d="M-2.22535e-05 65.0198L80.0099 -14.9901L160 65.0198L160 -14.9901L80.0099 -95L-1.87561e-05 -14.9901L-2.22535e-05 65.0198Z" fill="#70B42D"/>
</svg>
