<svg xmlns="http://www.w3.org/2000/svg" width="42" height="42" viewBox="0 0 42 42" fill="none">
  <rect width="42" height="42" fill="#70B42D"/>
  <path d="M10.2185 36.4088C9.36979 36.4088 8.64326 36.1066 8.03888 35.5023C7.43451 34.8979 7.13232 34.1713 7.13232 33.3227V11.7195C7.13232 10.8708 7.43451 10.1443 8.03888 9.5399C8.64326 8.93553 9.36979 8.63334 10.2185 8.63334H11.7616V5.54718H14.8477V8.63334H27.1924V5.54718H30.2786V8.63334H31.8216C32.6703 8.63334 33.3969 8.93553 34.0012 9.5399C34.6056 10.1443 34.9078 10.8708 34.9078 11.7195V33.3227C34.9078 34.1713 34.6056 34.8979 34.0012 35.5023C33.3969 36.1066 32.6703 36.4088 31.8216 36.4088H10.2185ZM10.2185 33.3227H31.8216V17.8918H10.2185V33.3227ZM10.2185 14.8057H31.8216V11.7195H10.2185V14.8057ZM21.0201 24.0642C20.5829 24.0642 20.2164 23.9163 19.9206 23.6205C19.6249 23.3248 19.477 22.9583 19.477 22.5211C19.477 22.0839 19.6249 21.7174 19.9206 21.4216C20.2164 21.1259 20.5829 20.978 21.0201 20.978C21.4573 20.978 21.8237 21.1259 22.1195 21.4216C22.4153 21.7174 22.5631 22.0839 22.5631 22.5211C22.5631 22.9583 22.4153 23.3248 22.1195 23.6205C21.8237 23.9163 21.4573 24.0642 21.0201 24.0642ZM14.8477 24.0642C14.4105 24.0642 14.044 23.9163 13.7483 23.6205C13.4525 23.3248 13.3047 22.9583 13.3047 22.5211C13.3047 22.0839 13.4525 21.7174 13.7483 21.4216C14.044 21.1259 14.4105 20.978 14.8477 20.978C15.2849 20.978 15.6514 21.1259 15.9472 21.4216C16.2429 21.7174 16.3908 22.0839 16.3908 22.5211C16.3908 22.9583 16.2429 23.3248 15.9472 23.6205C15.6514 23.9163 15.2849 24.0642 14.8477 24.0642ZM27.1924 24.0642C26.7552 24.0642 26.3887 23.9163 26.0929 23.6205C25.7972 23.3248 25.6493 22.9583 25.6493 22.5211C25.6493 22.0839 25.7972 21.7174 26.0929 21.4216C26.3887 21.1259 26.7552 20.978 27.1924 20.978C27.6296 20.978 27.9961 21.1259 28.2918 21.4216C28.5876 21.7174 28.7355 22.0839 28.7355 22.5211C28.7355 22.9583 28.5876 23.3248 28.2918 23.6205C27.9961 23.9163 27.6296 24.0642 27.1924 24.0642ZM21.0201 30.2365C20.5829 30.2365 20.2164 30.0886 19.9206 29.7929C19.6249 29.4971 19.477 29.1306 19.477 28.6934C19.477 28.2562 19.6249 27.8897 19.9206 27.594C20.2164 27.2982 20.5829 27.1503 21.0201 27.1503C21.4573 27.1503 21.8237 27.2982 22.1195 27.594C22.4153 27.8897 22.5631 28.2562 22.5631 28.6934C22.5631 29.1306 22.4153 29.4971 22.1195 29.7929C21.8237 30.0886 21.4573 30.2365 21.0201 30.2365ZM14.8477 30.2365C14.4105 30.2365 14.044 30.0886 13.7483 29.7929C13.4525 29.4971 13.3047 29.1306 13.3047 28.6934C13.3047 28.2562 13.4525 27.8897 13.7483 27.594C14.044 27.2982 14.4105 27.1503 14.8477 27.1503C15.2849 27.1503 15.6514 27.2982 15.9472 27.594C16.2429 27.8897 16.3908 28.2562 16.3908 28.6934C16.3908 29.1306 16.2429 29.4971 15.9472 29.7929C15.6514 30.0886 15.2849 30.2365 14.8477 30.2365ZM27.1924 30.2365C26.7552 30.2365 26.3887 30.0886 26.0929 29.7929C25.7972 29.4971 25.6493 29.1306 25.6493 28.6934C25.6493 28.2562 25.7972 27.8897 26.0929 27.594C26.3887 27.2982 26.7552 27.1503 27.1924 27.1503C27.6296 27.1503 27.9961 27.2982 28.2918 27.594C28.5876 27.8897 28.7355 28.2562 28.7355 28.6934C28.7355 29.1306 28.5876 29.4971 28.2918 29.7929C27.9961 30.0886 27.6296 30.2365 27.1924 30.2365Z" fill="white"/>
</svg>