<svg xmlns="http://www.w3.org/2000/svg" width="32" height="32" viewBox="0 0 32 32" fill="none">
  <rect width="32" height="32" fill="black"/>
  <path d="M7.78544 27.7402C7.13882 27.7402 6.58527 27.51 6.12479 27.0495C5.66432 26.589 5.43408 26.0355 5.43408 25.3888V8.92929C5.43408 8.28266 5.66432 7.72911 6.12479 7.26864C6.58527 6.80816 7.13882 6.57793 7.78544 6.57793H8.96113V4.22656H11.3125V6.57793H20.7179V4.22656H23.0693V6.57793H24.245C24.8916 6.57793 25.4452 6.80816 25.9056 7.26864C26.3661 7.72911 26.5963 8.28266 26.5963 8.92929V25.3888C26.5963 26.0355 26.3661 26.589 25.9056 27.0495C25.4452 27.51 24.8916 27.7402 24.245 27.7402H7.78544ZM7.78544 25.3888H24.245V13.632H7.78544V25.3888ZM7.78544 11.2807H24.245V8.92929H7.78544V11.2807ZM16.0152 18.3347C15.6821 18.3347 15.4029 18.2221 15.1775 17.9967C14.9522 17.7714 14.8395 17.4922 14.8395 17.1591C14.8395 16.8259 14.9522 16.5467 15.1775 16.3214C15.4029 16.096 15.6821 15.9834 16.0152 15.9834C16.3483 15.9834 16.6275 16.096 16.8529 16.3214C17.0782 16.5467 17.1909 16.8259 17.1909 17.1591C17.1909 17.4922 17.0782 17.7714 16.8529 17.9967C16.6275 18.2221 16.3483 18.3347 16.0152 18.3347ZM11.3125 18.3347C10.9794 18.3347 10.7002 18.2221 10.4748 17.9967C10.2495 17.7714 10.1368 17.4922 10.1368 17.1591C10.1368 16.8259 10.2495 16.5467 10.4748 16.3214C10.7002 16.096 10.9794 15.9834 11.3125 15.9834C11.6456 15.9834 11.9248 16.096 12.1502 16.3214C12.3755 16.5467 12.4882 16.8259 12.4882 17.1591C12.4882 17.4922 12.3755 17.7714 12.1502 17.9967C11.9248 18.2221 11.6456 18.3347 11.3125 18.3347ZM20.7179 18.3347C20.3848 18.3347 20.1056 18.2221 19.8803 17.9967C19.6549 17.7714 19.5423 17.4922 19.5423 17.1591C19.5423 16.8259 19.6549 16.5467 19.8803 16.3214C20.1056 16.096 20.3848 15.9834 20.7179 15.9834C21.051 15.9834 21.3303 16.096 21.5556 16.3214C21.781 16.5467 21.8936 16.8259 21.8936 17.1591C21.8936 17.4922 21.781 17.7714 21.5556 17.9967C21.3303 18.2221 21.051 18.3347 20.7179 18.3347ZM16.0152 23.0375C15.6821 23.0375 15.4029 22.9248 15.1775 22.6995C14.9522 22.4741 14.8395 22.1949 14.8395 21.8618C14.8395 21.5287 14.9522 21.2494 15.1775 21.0241C15.4029 20.7988 15.6821 20.6861 16.0152 20.6861C16.3483 20.6861 16.6275 20.7988 16.8529 21.0241C17.0782 21.2494 17.1909 21.5287 17.1909 21.8618C17.1909 22.1949 17.0782 22.4741 16.8529 22.6995C16.6275 22.9248 16.3483 23.0375 16.0152 23.0375ZM11.3125 23.0375C10.9794 23.0375 10.7002 22.9248 10.4748 22.6995C10.2495 22.4741 10.1368 22.1949 10.1368 21.8618C10.1368 21.5287 10.2495 21.2494 10.4748 21.0241C10.7002 20.7988 10.9794 20.6861 11.3125 20.6861C11.6456 20.6861 11.9248 20.7988 12.1502 21.0241C12.3755 21.2494 12.4882 21.5287 12.4882 21.8618C12.4882 22.1949 12.3755 22.4741 12.1502 22.6995C11.9248 22.9248 11.6456 23.0375 11.3125 23.0375ZM20.7179 23.0375C20.3848 23.0375 20.1056 22.9248 19.8803 22.6995C19.6549 22.4741 19.5423 22.1949 19.5423 21.8618C19.5423 21.5287 19.6549 21.2494 19.8803 21.0241C20.1056 20.7988 20.3848 20.6861 20.7179 20.6861C21.051 20.6861 21.3303 20.7988 21.5556 21.0241C21.781 21.2494 21.8936 21.5287 21.8936 21.8618C21.8936 22.1949 21.781 22.4741 21.5556 22.6995C21.3303 22.9248 21.051 23.0375 20.7179 23.0375Z" fill="#70B42D"/>
</svg>