<svg xmlns="http://www.w3.org/2000/svg" width="32" height="67" viewBox="0 0 32 67" fill="none">
  <g clip-path="url(#clip0_2_984)">
    <mask id="mask0_2_984" style="mask-type:luminance" maskUnits="userSpaceOnUse" x="0" y="58" width="32" height="9">
      <path d="M29.6734 65.5115H31.1244V63.8954H29.6734V65.5115ZM0.00689697 58.5063V65.5115H1.61607V59.861H2.55131V65.5115H4.15819V58.5063H0.00689697ZM11.2482 62.4123H11.6172C11.741 62.4123 11.8396 62.4398 11.9152 62.4948C11.9909 62.5499 12.0482 62.6209 12.0848 62.708C12.1238 62.7951 12.149 62.896 12.1628 63.0106C12.1765 63.1252 12.1811 63.2421 12.1811 63.3659C12.1811 63.5401 12.1742 63.6891 12.1628 63.8083C12.149 63.9275 12.1238 64.0261 12.0848 64.0994C12.0459 64.1751 11.9863 64.2301 11.9106 64.2645C11.8327 64.3012 11.7249 64.3172 11.5897 64.3172H11.2482V62.4077V62.4123ZM9.64128 58.5063V65.5115H11.9313C12.2888 65.5115 12.5868 65.4519 12.8275 65.3373C13.0682 65.2203 13.2585 65.0645 13.4029 64.8696C13.545 64.6748 13.6459 64.4456 13.7055 64.182C13.7651 63.9183 13.7926 63.641 13.7926 63.3499C13.7926 62.6943 13.5977 62.1831 13.208 61.8209C12.8184 61.4565 12.2659 61.2754 11.553 61.2754H11.2505V59.8633H13.4029V58.5086H9.64357L9.64128 58.5063ZM14.4413 58.5063V65.5115H18.1043V64.1567H16.0482V62.598H17.7811V61.2433H16.0482V59.861H18.0264V58.5063H14.4413ZM20.7725 63.2811C20.8207 62.9304 20.8619 62.5544 20.894 62.151C20.9261 61.7476 20.9536 61.335 20.9719 60.9086C20.9926 60.4822 21.0063 60.0788 21.0201 59.696H21.7994V64.1567H20.5823C20.6602 63.9229 20.7244 63.6318 20.7725 63.2811ZM19.5393 58.5063C19.5255 58.9739 19.5164 59.4736 19.5095 60.0077C19.5026 60.5395 19.4843 61.0645 19.4568 61.5802C19.427 62.096 19.3788 62.5797 19.31 63.0312C19.2413 63.4828 19.1427 63.8587 19.0143 64.1567H18.6155V66.7974H19.9702V65.5115H22.5078V66.7974H23.8579V64.1567H23.4086V58.5063H19.5393ZM26.5972 59.5974H26.6178L26.9983 63.0175H26.1891L26.5994 59.5974H26.5972ZM25.5358 58.5063L24.2407 65.5115H25.859L26.0241 64.2645H27.1542L27.3009 65.5115H28.9949L27.6791 58.5063H25.5358ZM29.678 58.5063V61.2433L30.008 63.4828H30.7966L31.1267 61.2433V58.5063H29.6757H29.678ZM6.63154 64.308C6.56736 64.2599 6.51922 64.2003 6.49171 64.1338C6.46191 64.065 6.44587 63.994 6.44357 63.9183C6.44128 63.8427 6.43899 63.7831 6.43899 63.7373V60.2782C6.43899 60.2209 6.43899 60.1544 6.44357 60.0788C6.44816 60.0054 6.4642 59.9344 6.49171 59.8702C6.52151 59.806 6.56736 59.751 6.63154 59.7052C6.69801 59.6593 6.78741 59.6364 6.90432 59.6364C7.02122 59.6364 7.11062 59.6593 7.17251 59.7052C7.2344 59.751 7.28025 59.806 7.31005 59.8702C7.33985 59.9344 7.35589 60.0054 7.36277 60.0788C7.36965 60.1544 7.37194 60.2209 7.37194 60.2782V63.7373C7.37194 63.7831 7.36965 63.8427 7.36277 63.9183C7.35589 63.994 7.33756 64.065 7.31005 64.1338C7.28025 64.2026 7.2344 64.2599 7.17251 64.308C7.11062 64.3562 7.02122 64.3814 6.90432 64.3814C6.78741 64.3814 6.69572 64.3562 6.63154 64.308ZM6.07681 58.5155C5.82466 58.6003 5.6046 58.7241 5.41893 58.8914C5.23326 59.0565 5.08884 59.2696 4.98569 59.5241C4.88254 59.7808 4.82982 60.0788 4.82982 60.4158V63.602C4.82982 64.2324 5.01549 64.7275 5.38455 65.0874C5.7536 65.4473 6.26019 65.6284 6.90432 65.6284C7.54844 65.6284 8.06191 65.4473 8.42867 65.0874C8.79544 64.7275 8.97882 64.2324 8.97882 63.602V60.4158C8.97882 60.0788 8.9261 59.7808 8.82294 59.5241C8.71979 59.2673 8.57538 59.0565 8.3897 58.8914C8.20403 58.7264 7.98627 58.6003 7.73183 58.5155C7.47738 58.4307 7.20231 58.3894 6.90432 58.3894C6.60632 58.3894 6.32896 58.4307 6.07681 58.5155Z" fill="white"/>
    </mask>
    <g mask="url(#mask0_2_984)">
      <path d="M31.1244 58.3894H0.00689697V66.7951H31.1244V58.3894Z" fill="url(#paint0_linear_2_984)"/>
    </g>
    <mask id="mask1_2_984" style="mask-type:luminance" maskUnits="userSpaceOnUse" x="0" y="0" width="32" height="56">
      <path d="M3.36711 52.8169C3.2227 52.7046 3.15164 52.4593 3.15164 52.0765V49.8255C3.15164 49.445 3.2227 49.1974 3.36711 49.0851C3.51152 48.9728 3.68803 48.9178 3.89892 48.9178C4.09605 48.9178 4.26797 48.9751 4.41926 49.0851C4.56826 49.1974 4.6439 49.4427 4.6439 49.8255V52.0765C4.6439 52.4593 4.56826 52.7046 4.41926 52.8169C4.26797 52.9292 4.09376 52.9842 3.89892 52.9842C3.69032 52.9842 3.51152 52.9269 3.36711 52.8169ZM3.36711 46.355C3.2227 46.245 3.15164 45.9997 3.15164 45.6192V44.3241C3.15164 43.9436 3.2227 43.6983 3.36711 43.5883C3.51152 43.4759 3.68803 43.4209 3.89892 43.4209C4.09605 43.4209 4.26797 43.4759 4.41926 43.5883C4.56826 43.7006 4.6439 43.9458 4.6439 44.3241V45.6192C4.6439 45.9997 4.56826 46.245 4.41926 46.355C4.26797 46.4673 4.09376 46.5224 3.89892 46.5224C3.69032 46.5224 3.51152 46.4673 3.36711 46.355ZM1.70751 41.4358C1.18946 41.7109 0.81353 42.0387 0.577426 42.4192C0.341323 42.7997 0.203788 43.1894 0.164819 43.5883C0.125851 43.9871 0.10522 44.3126 0.10522 44.5602V45.5229C0.10522 45.6926 0.128143 45.8805 0.173988 46.0822C0.219833 46.2862 0.302355 46.488 0.41926 46.692C0.536166 46.896 0.69204 47.0817 0.880005 47.2513C1.07026 47.4209 1.30866 47.5653 1.59748 47.6822C1.20551 47.8381 0.900636 48.0352 0.685163 48.2713C0.46969 48.5075 0.311524 48.7619 0.212957 49.037C0.114389 49.312 0.0570826 49.5917 0.0364523 49.8713C0.0158219 50.1533 0.00665283 50.4192 0.00665283 50.6668V51.845C0.00665283 52.9315 0.336739 53.7934 0.999203 54.4284C1.65937 55.0633 2.62671 55.382 3.89662 55.382C5.16654 55.382 6.13158 55.0656 6.79405 54.4284C7.45422 53.7934 7.7866 52.9315 7.7866 51.845V50.6668C7.7866 50.3138 7.77284 49.986 7.74763 49.6834C7.72241 49.3831 7.65135 49.1034 7.54132 48.849C7.4313 48.5946 7.26625 48.3699 7.05078 48.1797C6.83531 47.9894 6.53044 47.8244 6.13846 47.6799C6.42499 47.563 6.67256 47.414 6.87427 47.2375C7.07599 47.061 7.23645 46.8754 7.35565 46.6782C7.47485 46.4811 7.55966 46.2817 7.61238 46.0777C7.66511 45.8759 7.69032 45.688 7.69032 45.5183V44.5556C7.69032 44.308 7.67198 43.9825 7.63072 43.5837C7.59175 43.1848 7.45422 42.7951 7.21811 42.4146C6.98201 42.0341 6.60608 41.7086 6.08803 41.4312C5.56998 41.1562 4.84104 41.0186 3.89892 41.0186C2.9568 41.0186 2.22556 41.1562 1.7098 41.4312M13.6915 20.5556C13.1092 21.8278 12.0961 21.1745 11.1791 21.9424C10.5877 22.4398 10.5006 23.0702 10.5006 23.0702C10.5006 23.0702 10.7551 23.006 10.9797 22.9556C10.872 23.0519 10.0582 24.6381 10.0353 24.6771C10.0101 24.7183 11.17 23.4255 13.327 22.0226C14.1018 21.5183 14.7024 21.3006 14.7024 21.3006C14.2531 20.8513 14.0674 20.1269 14.0674 20.1269C14.0674 20.1269 13.8244 20.2736 13.6938 20.5556M11.6307 16.4731C11.7201 16.3745 11.8875 16.3149 11.9402 16.3057C11.9929 16.2966 12.0021 16.3126 12.0021 16.3126C11.9975 16.3309 11.9906 16.347 11.986 16.3653C11.986 16.3653 11.7958 16.4364 11.7201 16.5143C11.6422 16.5923 11.5963 16.645 11.5826 16.6863C11.5711 16.7275 11.562 16.7527 11.562 16.7527C11.562 16.7527 11.539 16.5762 11.6307 16.4754M12.2175 15.9183C11.6032 15.7831 11.4084 16.1934 11.4084 16.1934C11.6559 16.1017 11.8645 15.9894 12.0777 16.1499C11.9356 16.1636 11.6536 16.2095 11.5001 16.3883C11.2983 16.6267 11.374 16.9246 11.3832 17.1172C11.3832 17.1493 11.4886 16.982 11.5963 16.9544C11.5757 16.8811 11.578 16.8559 11.6055 16.7757C11.6422 16.6496 11.7522 16.5556 11.8531 16.5258C11.8416 16.6794 11.9127 16.6542 12.0594 16.6771C12.0479 16.6931 12.0342 16.7069 12.0227 16.7206C12.0044 16.7206 11.9837 16.7206 11.9654 16.7206C11.9287 16.7206 11.8897 16.7206 11.8531 16.7298C11.8026 16.7413 11.7453 16.7527 11.6995 16.8169C11.837 16.7963 11.9287 16.8261 11.9241 16.9269C12.2496 16.7115 12.4078 16.5395 12.3253 16.1774C12.4216 16.0398 12.4834 15.939 12.4949 15.7671C12.394 15.8679 12.362 15.9344 12.2153 15.9206M21.4691 44.8032C21.4691 44.8032 21.884 45.4037 22.1339 45.8622C22.5029 46.5407 22.6817 46.7447 23.3006 48.1155C23.6353 48.8582 24.0708 49.5825 24.4078 50.0135C24.5132 50.1487 24.6049 50.2542 24.6737 50.339L25.0015 50.6782L24.2313 50.8845C24.2061 50.8937 24.1809 50.9006 24.1534 50.9097C23.5963 51.0931 23.6147 51.437 23.6261 51.7579C23.6376 52.0673 23.7316 52.5006 22.9339 53.8003C23.2227 48.8123 22.0857 46.5636 21.4691 44.8032ZM12.1671 52.8215C12.0227 52.7092 11.9516 52.4639 11.9516 52.0834V44.3287C11.9516 43.9481 12.0227 43.7029 12.1671 43.5905C12.3115 43.4782 12.488 43.4232 12.6966 43.4232C12.8938 43.4232 13.0657 43.4782 13.217 43.5905C13.366 43.7029 13.4439 43.9481 13.4439 44.3287V52.0834C13.4439 52.4639 13.3683 52.7092 13.217 52.8215C13.0657 52.9338 12.8915 52.9888 12.6966 52.9888C12.488 52.9888 12.3115 52.9338 12.1671 52.8215ZM26.2164 49.3006C26.033 48.6152 25.7144 47.5653 25.2422 46.5522C24.4972 44.9522 24.582 45.0484 24.2542 44.2989C24.1992 44.1728 23.8256 43.2628 23.9012 43.3797C24.4078 44.1613 25.0313 45.2341 25.6938 46.4261C25.9299 46.8479 26.5419 47.8954 26.8834 48.5739C27.0187 48.8421 27.6261 48.8513 27.7041 48.8421C28.8548 48.684 29.2399 48.6427 30.1247 49.0851C30.1247 49.0851 30.0422 49.0736 29.9276 49.0622C29.7786 49.0484 29.5791 49.0324 29.4393 49.0438C28.8342 49.0897 28.6989 49.0484 27.8026 49.445C27.6743 49.5023 27.4267 49.6123 27.1746 49.7269C27.0668 49.7751 26.9545 49.8003 26.8445 49.8003C26.5671 49.8003 26.3104 49.6421 26.221 49.3052M11.8668 39.8771C10.8032 37.7567 9.8015 35.7556 9.30637 33.4381C9.12757 32.5946 9.03588 31.4393 8.99233 30.7034C8.98316 30.0983 8.97399 29.3281 9.17571 28.6863C9.23531 28.4983 9.40035 28.0971 9.58602 27.7693C9.77399 27.4438 10.0055 27.2352 10.1362 27.1046C10.276 26.9648 10.8949 26.4765 11.9883 26.3779C13.1115 26.2771 13.7579 26.6576 14.0949 26.7768C14.4227 26.8914 15.7728 27.5928 16.9373 29.8209C17.2147 30.3504 17.3453 31.1481 17.5356 32.0284C15.4703 29.7522 13.6433 28.3264 13.5769 28.4318C13.4989 28.551 15.6926 30.8295 15.8622 31.0427C15.9608 31.1665 17.3385 32.5808 18.292 34.3596C18.292 34.3619 18.2943 34.3665 18.2966 34.3711C18.3425 34.4628 18.3906 34.5522 18.441 34.6416C19.2204 36.0009 19.8187 37.3029 20.2748 38.5292C19.727 37.61 19.0554 36.7711 18.2462 36.1269C15.4382 33.8851 14.2943 33.1012 13.3453 31.7923C12.7975 31.0335 12.5751 30.3321 12.5751 30.3321C12.5408 30.9487 12.7333 31.7304 13.2559 32.6954C14.0514 34.1648 15.5161 34.9693 16.9579 36.7527C18.2966 38.41 18.3608 38.6049 19.0897 39.8748C19.3488 40.3287 19.5161 41.0095 19.8049 41.0095C19.97 41.0095 19.8783 39.5401 20.0021 39.5676C20.0731 39.5837 20.1213 39.6868 20.1488 39.7441C20.3024 40.0605 20.3734 40.4272 20.4468 40.7665C20.5568 41.2799 20.6416 41.798 20.7195 42.3183C20.7998 42.8662 20.8685 43.414 20.9236 43.9642C20.9304 44.0307 20.9373 44.0971 20.9419 44.1613C20.9465 44.214 20.9373 44.3057 20.9579 44.3539C20.3001 42.9327 19.5918 41.6215 19.2227 41.0072C18.4983 39.7991 17.0542 38.1258 16.7952 37.8163C15.8233 36.6519 14.2301 35.4897 13.2009 34.5109C12.4605 33.8072 13.4508 35.2261 13.923 35.7304C14.5877 36.4433 16.119 37.8736 17.4279 39.8908C17.7992 40.4639 17.7786 40.6725 17.2514 40.0742C16.3367 39.0335 13.8978 37.312 14.5786 38.0639C14.5786 38.0639 15.0072 38.4169 15.3556 38.8318C18.4273 42.4834 18.5969 46.7149 18.5969 48.1246C18.6107 50.4215 18.2508 53.5642 16.6599 54.5842C15.8966 55.0748 14.8605 55.0519 14.6726 55.0427C15.0279 54.8914 15.335 54.692 15.5963 54.4421C16.2565 53.8072 16.5866 52.9453 16.5866 51.8587V44.5716C16.5866 43.4851 16.2565 42.6232 15.5963 41.9883C14.9339 41.3533 13.9688 41.037 12.6989 41.037C12.6118 41.037 12.527 41.0415 12.4422 41.0461C12.2496 40.6564 12.0571 40.2691 11.8645 39.884M12.3505 23.9367C13.2422 23.0083 13.8794 23.0312 13.8794 23.0312C13.8794 23.0312 13.437 23.7418 13.3293 24.2163C13.2353 24.6312 13.3155 24.943 13.7442 25.0874C14.237 25.2547 14.331 25.4771 14.331 25.4771C14.331 25.4771 12.0181 25.1585 11.3763 25.5321C11.3763 25.5321 12.2726 25.7155 12.99 26.1969C12.9373 26.1877 12.511 26.0433 11.7797 26.1418C11.076 26.2381 10.6084 26.4742 10.3379 26.6484C10.3218 26.6576 10.3081 26.6645 10.2966 26.6645C10.166 26.6645 10.4617 25.8989 12.3482 23.9367M24.3918 20.5671C24.2955 20.4983 24.1557 20.4387 23.9883 20.3905C24.7493 20.4799 25.4439 20.6083 26.0124 20.755C26.5648 20.8971 27.7293 21.3395 28.8823 21.8966C28.9557 21.9309 29.1367 22.0295 29.2628 22.096C28.9855 22.1281 28.6554 22.3229 28.6554 22.3229C28.6554 22.3229 26.8261 21.335 25.2261 21.1607C23.9035 21.0186 22.2003 21.1332 22.2003 21.1332C22.2003 21.1332 22.9912 20.7779 24.3918 20.5693M7.00035 21.3304L7.02556 20.9522L7.20207 20.9178L7.24104 20.4456C7.29605 20.4249 7.38316 20.3928 7.42442 20.3791C7.67657 20.3103 7.8141 20.4387 7.8141 20.4387L7.7843 20.8811L7.83703 20.9155C7.83703 20.9155 7.81869 21.3648 7.80264 21.3991C7.80264 21.4014 7.79118 21.4014 7.77284 21.4014C7.63072 21.4014 6.99806 21.3281 6.99806 21.3281M6.93158 20.1476C6.91554 19.9871 6.98889 19.9436 6.98889 19.9436C6.98889 19.9436 7.08287 19.8427 7.29605 19.8519C7.43817 19.8587 7.45651 19.9229 7.45651 19.9802C7.45651 20.0628 7.37628 20.143 7.27084 20.1613C7.16998 20.1774 6.99806 20.2301 6.99576 20.2805C6.97284 20.253 6.93846 20.2049 6.93158 20.1476ZM6.85823 19.7923C6.78488 19.5447 7.08058 19.4484 7.14018 19.4438C7.18831 19.4393 7.26396 19.4186 7.30293 19.4943C7.31897 19.5264 7.35336 19.6547 7.20207 19.7258C7.05766 19.7946 7.01181 19.806 6.96138 19.8679C6.94992 19.8817 6.92929 19.9138 6.92929 19.9229C6.90178 19.9023 6.88115 19.8748 6.85823 19.7923ZM6.77341 19.3499C6.71382 19.1138 6.99806 19.045 7.07141 19.0381C7.12184 19.0335 7.1929 19.0381 7.23645 19.1C7.25479 19.1252 7.26854 19.1779 7.24104 19.2284C7.20895 19.2834 7.14935 19.2673 7.08516 19.2903C6.96367 19.3361 6.88115 19.4118 6.83989 19.4553C6.8078 19.4255 6.778 19.3705 6.77341 19.3499ZM10.8697 15.9963C11.0072 15.8587 11.3006 15.7762 11.3006 15.7762C11.3006 15.7762 11.3144 15.6341 11.429 15.5814C11.5138 15.5424 11.6353 15.5103 11.6353 15.5103C11.6353 15.5103 11.6445 15.3292 11.7499 15.249C11.8554 15.1688 11.915 15.1527 11.9998 15.1344C12.2244 14.8891 12.4834 14.5361 12.8387 14.504C13.1069 14.4788 13.3774 14.4444 13.5012 14.4215C13.5333 14.4146 13.7832 14.3802 13.8152 14.449C13.6021 14.449 13.3339 14.4605 13.084 14.5476C12.8777 14.6186 12.8708 14.6989 12.8135 14.7562C12.7562 14.8135 12.6347 14.8777 12.5774 14.8983C12.5201 14.9212 12.4559 14.9556 12.4261 15.006C12.3986 15.0565 12.4124 15.0863 12.339 15.1206C12.268 15.1573 12.174 15.3246 12.174 15.3246C12.174 15.3246 12.5453 15.2215 12.7471 15.2261C13.0198 15.233 13.1849 15.382 13.1757 15.6066C13.1711 15.7281 13.0244 15.9206 12.6829 15.8771C12.6829 15.8771 12.6393 16.0261 12.6737 16.1269C12.7058 16.2186 12.77 16.4456 12.8044 16.5693C12.8089 16.5923 12.8158 16.6152 12.8227 16.6381C12.8227 16.6473 12.8273 16.6519 12.8273 16.6519C12.8387 16.6885 12.8502 16.7252 12.8617 16.755C12.8708 16.7871 12.8456 16.7688 12.8044 16.7504C12.7493 16.7275 12.6645 16.7046 12.5843 16.7848L12.4445 16.8903C12.3757 16.9499 12.2542 17.0461 12.2771 17.0943C12.3001 17.1424 12.3299 17.1653 12.3963 17.1745C12.4582 17.1837 12.7952 17.1814 12.8938 17.1745C12.919 17.1745 12.9419 17.1768 12.9648 17.1791C12.9648 17.1791 12.9763 17.2387 12.9923 17.3212C12.8708 17.2524 12.6439 17.2501 12.637 17.2547C12.5728 17.2547 12.5155 17.2754 12.4536 17.3075C12.3505 17.3602 12.2336 17.5252 12.1969 17.6903C12.1281 18.002 12.1946 18.1052 12.5499 18.0868C12.5499 18.0868 12.5499 18.0868 12.5522 18.0868C12.7173 18.096 12.7998 18.0868 12.9259 18.0868C12.9373 18.0868 12.9488 18.0868 12.9602 18.0822C12.88 18.1969 12.7814 18.2542 12.7814 18.2542C12.7814 18.2542 12.7012 18.2565 12.6691 18.2587C12.582 18.2633 12.5155 18.2633 12.4651 18.2587C12.3872 18.2565 12.3482 18.2519 12.339 18.2794C12.2703 18.4834 12.3711 18.4582 12.4766 18.433C12.5499 18.4146 12.6301 18.3986 12.6554 18.4582C12.6829 18.5224 12.6393 18.6668 12.5843 18.7539C12.5591 18.7928 12.4651 18.786 12.3734 18.7768C12.2955 18.7699 12.2175 18.763 12.1809 18.786C12.0112 18.8914 12.0961 18.9373 12.3688 19.0931C12.5614 19.2032 13.0932 19.4118 13.2078 19.492C13.3224 19.5722 13.9046 19.8725 13.962 19.8587C14.143 19.8106 14.645 19.3246 14.6588 19.3109C14.9843 18.9808 15.8577 18.4467 16.1236 18.316C16.3413 18.2106 16.9809 17.8782 17.4966 17.5917C17.3912 17.7842 17.2812 18.1166 17.233 18.6897C17.194 19.21 17.1665 19.6593 17.0084 19.4805C16.6164 19.0312 16.637 18.5132 16.5637 18.6438C16.3665 18.9923 16.3436 19.1779 16.3918 19.4553C16.4812 19.9619 16.8525 20.1178 16.6806 20.1201C16.0479 20.1269 15.8508 19.9871 15.4886 19.6112C15.2594 19.3705 14.8399 19.4828 14.8399 19.4828C14.8399 19.4828 15.1952 19.7991 15.6651 20.2003C16.2657 20.7138 17.2995 20.849 17.9826 20.9636C19.1356 21.1562 19.4771 21.5688 19.4771 21.5688C19.4771 21.5688 16.5293 21.3716 16.284 21.1699L16.4995 21.4519C15.2938 21.4198 14.1958 19.9871 14.1958 19.9871C14.1958 19.9871 14.3287 20.5052 14.5511 20.7871C14.8628 21.186 15.2617 21.4519 15.7453 21.7315C16.7356 22.3046 18.7574 22.4375 19.8508 22.3665C20.2771 22.339 20.7402 22.3092 21.0496 22.3023C22.2324 22.2771 22.5144 22.5567 22.5144 22.5567C22.5144 22.5567 19.9837 22.4857 18.7665 23.3315C18.6267 23.4301 19.3236 23.2903 19.8554 23.2054C21.0909 23.006 22.5694 23.288 23.7339 23.7395C24.5201 24.0444 25.123 23.9917 25.8955 23.9367C26.3539 23.9046 26.872 23.8725 27.5207 23.916C29.0726 24.0192 29.013 24.7115 29.013 24.7115C29.013 24.7115 28.3528 24.2209 27.3855 24.7986C26.7963 25.1493 26.1705 25.6903 26.1705 25.6903C26.1705 25.6903 25.9092 25.4702 24.1671 25.147C23.0599 24.943 18.3402 24.5487 15.1746 21.7201C15.1081 21.6605 15.0485 21.6054 14.9935 21.5573C14.1958 21.8576 13.3293 22.6438 12.566 23.2994C11.8829 23.8885 11.3029 24.661 10.613 25.2822C10.613 25.2822 9.55164 26.2014 9.23989 26.7768C9.16654 26.9097 8.88688 27.4691 8.72184 28.1384C8.72184 27.8427 8.74476 27.5378 8.80207 27.2467C8.86625 26.9258 8.93273 26.6438 8.98774 26.3986C9.05651 26.096 9.14132 25.7682 9.21468 25.4954C9.39806 25.1309 9.8588 24.2003 9.78086 24.1888C9.61811 24.1682 9.3545 24.1522 9.11382 24.2163C9.00608 24.2461 8.91668 24.2805 8.84333 24.3149C8.86396 24.1659 8.90981 24.0077 9.00608 23.8404C9.11382 23.6524 9.3843 23.2788 9.3843 23.2788C9.3843 23.2788 8.98087 23.0381 8.84333 22.582C8.71955 22.1716 8.66224 21.6421 8.61869 21.2547C8.5843 20.9292 8.56597 20.7711 8.527 20.6931C8.46052 20.5602 8.37112 20.4433 8.1717 20.4731C8.15336 20.4754 8.13044 20.4799 8.10981 20.4822C8.13044 20.4547 8.14877 20.4272 8.14877 20.4066C8.15336 20.2461 7.96998 20.143 7.95164 20.065C7.93101 19.9711 7.93789 19.7831 7.9631 19.6799C8.04791 19.3361 7.66281 19.4278 7.49548 19.1367C7.33731 18.857 7.3717 18.5842 7.08746 18.7401C6.98201 18.7997 6.78717 18.9029 6.70694 18.9602C6.63129 18.7493 6.71382 18.6759 6.87657 18.5499C6.91095 18.5269 6.95221 18.5017 6.97513 18.488C7.19978 18.3619 7.53445 18.3206 7.67198 18.3481C7.88975 18.3917 8.02499 18.6691 8.01811 18.8158C8.01353 18.9602 8.0227 19.1458 8.09376 19.304C8.16253 19.4599 8.1694 19.6249 8.18774 19.712C8.20608 19.7991 8.28172 19.8335 8.28172 19.8335C8.48574 19.5447 8.62786 19.4049 8.87542 19.3522C9.01296 19.3613 9.12528 19.3315 9.41181 19.7441C9.46683 19.8244 9.74419 20.2072 9.94132 20.5327C10.1385 20.8605 10.4089 21.5321 10.4089 21.5321L11.6147 20.9613C11.6147 20.9613 11.4771 19.8427 11.4726 19.5791C11.4611 18.8937 11.3786 18.5774 11.3786 18.5774C11.3786 18.5774 11.225 18.6163 11.1493 18.5705C11.115 18.5499 11.037 18.5224 11.0026 18.3527C10.9155 17.9378 11.115 17.743 11.115 17.743C10.9958 17.6398 10.9339 17.4175 10.9751 17.1332C11.0049 16.9292 10.8628 17.0714 10.778 17.2479C10.7482 17.2066 10.7505 17.1355 10.7872 17.0461C10.9408 16.6633 11.1631 16.3287 11.2938 15.9344C11.2938 15.9344 11.2135 15.9527 11.1379 15.9848C11.0645 16.0169 10.9683 16.1155 10.8766 16.2484C10.8147 16.3401 10.6657 16.4479 10.5832 16.5671C10.5809 16.5556 10.5809 16.2828 10.8674 15.9963M29.774 10.8089C29.774 10.8089 30.1774 10.6759 30.3837 10.6095C30.911 10.4398 30.9522 10.4398 30.9728 10.4948C30.9981 10.5567 30.8651 10.6118 30.794 10.6393C30.6198 10.7057 29.7373 10.9739 29.625 11.0106C29.6892 10.9395 29.7075 10.8868 29.774 10.8112M17.7327 18.5865C17.6571 18.0914 17.6846 17.6788 17.7098 17.4748C17.7969 17.4244 17.8794 17.3785 17.9482 17.335C18.4548 17.0278 18.7826 16.8169 19.2869 16.4845C19.6491 16.2461 20.0892 15.8862 20.6004 15.4691C20.8181 15.2903 21.0473 15.1023 21.2834 14.9143C22.0399 14.3115 22.9889 13.8095 23.0049 13.8003C23.2181 13.6696 23.5138 13.4885 23.8485 13.2822C24.2932 13.0072 24.8089 12.6885 25.2926 12.3974C26.0284 11.9527 26.6061 11.4622 26.6313 11.4416L26.6657 11.3957C26.7459 11.2146 26.8834 11.0037 26.9408 10.9441C27.0783 10.802 27.4015 10.6416 27.5849 10.5636L27.6857 10.5224C27.8966 10.433 28.1579 10.3229 28.2794 10.2152C28.4032 10.1075 28.7998 9.77049 28.8869 9.69943C28.9992 9.60774 29.1711 9.50688 29.2193 9.52751C29.2238 9.52751 29.2926 9.56419 29.2101 9.64671C29.2055 9.649 28.8342 9.96992 28.7104 10.0593C28.6508 10.1029 28.6003 10.151 28.5522 10.2037C28.5041 10.2473 28.4582 10.2908 28.4261 10.3321C28.213 10.6003 28.0754 10.6576 28.0983 10.6736C28.2886 10.8043 28.5408 10.9418 28.5408 10.9418C28.7264 11.061 28.9327 11.0381 29.0771 10.99C28.9098 11.1734 28.6554 11.3017 28.5064 11.3224C28.2634 11.3567 28.135 11.4072 27.9998 11.4782C27.6284 11.6708 27.3373 11.8496 27.2456 11.8633C26.7688 11.9298 26.7734 12.1178 26.3929 12.4662C26.2347 12.6106 23.9769 14.3573 23.2548 14.8295C22.5327 15.3017 21.194 16.3928 21.0496 16.4845C20.7425 16.6794 20.4697 17.2295 20.041 17.6971C19.3877 18.41 18.5969 19.0817 18.5281 19.1527C18.4846 19.1986 18.4021 19.2284 18.3058 19.2284C18.0926 19.2284 17.8107 19.0748 17.735 18.5888M5.98946 17.8163C6.05135 17.7911 7.66281 17.3395 7.66281 17.3395L10.6909 0.862755L11.0003 0.459317L10.8674 0.789403L7.9035 17.6742L8.63703 17.2868L10.1499 17.7774L9.95278 18.3688L7.76597 18.2198L6.01697 18.3046C6.01009 18.2083 5.99405 17.9057 5.98946 17.7934M11.1012 0.202583V0.207168L11.0943 0.211752L10.6107 0.858171L7.54132 17.1928L5.83817 17.7017L5.87714 18.3665L6.10866 18.5361L6.11554 18.5407L6.72069 18.5613C6.66568 18.5911 6.58774 18.6461 6.57857 18.7424C6.56711 18.8387 6.56023 19.0198 6.62671 19.0702C6.69319 19.1183 6.7184 19.1161 6.7184 19.1161C6.7184 19.1161 6.63129 19.2444 6.68172 19.3797C6.72986 19.5149 6.79863 19.5653 6.79863 19.5653C6.79863 19.5653 6.72299 19.6501 6.76883 19.7877C6.81468 19.9275 6.87198 19.9619 6.87198 19.9619C6.87198 19.9619 6.80321 20.1659 6.88574 20.2691C6.97055 20.3745 7.12642 20.4203 7.12642 20.4203L7.08746 20.7963L6.88803 20.8375L6.84218 21.3785L7.08287 21.4794L8.03645 21.5527L8.08688 20.9842C8.08688 20.9842 7.99978 20.9246 7.98373 20.8948C7.96769 20.865 7.96768 20.8054 7.97227 20.755C8.01582 20.7458 8.09605 20.7275 8.1717 20.7183C8.22442 20.7115 8.25193 20.7229 8.27256 20.7756C8.31611 20.943 8.33903 21.3327 8.37112 21.6307C8.41238 21.9997 8.4972 22.3458 8.59347 22.6828C8.59806 22.7011 8.76081 23.1436 9.00379 23.3499C8.93731 23.437 8.84333 23.5699 8.77227 23.6937C8.41468 24.3195 8.59118 24.8582 8.74476 25.186C8.79519 25.3052 8.8525 25.4244 8.91439 25.5436C8.80207 25.9837 8.60035 26.8616 8.53617 27.1779C8.40322 27.8427 8.44218 28.5556 8.51554 29.1011C8.53387 29.3075 8.56597 29.5183 8.61869 29.7063C8.65078 29.8599 8.67829 29.9653 8.68746 30.0043C8.69433 30.2014 8.76539 32.1957 9.04046 33.4817C9.54247 35.8335 10.5534 37.8484 11.6238 39.9848C11.8003 40.3355 11.9769 40.6885 12.1511 41.0438C11.1448 41.1241 10.3585 41.4335 9.79462 41.9722C9.13215 42.6072 8.80207 43.4691 8.80207 44.5556V51.8427C8.80207 52.9292 9.13215 53.7911 9.79462 54.4261C10.4548 55.061 11.4221 55.3797 12.692 55.3797C13.3132 55.3797 13.8611 55.3017 14.3356 55.1504L14.3035 55.2857H14.574C14.574 55.2857 14.5557 55.2903 14.5465 55.2926C14.5465 55.2926 19.1493 55.3178 23.4428 55.3407L30.2897 55.382C30.2897 55.382 30.3012 55.3797 30.3081 55.3774C30.4983 55.3774 30.629 55.3774 30.684 55.3774C30.684 55.3774 29.3476 52.0032 29.7809 50.9648C29.9551 50.5522 31.5986 50.5705 31.28 49.9883C30.9316 49.3464 27.782 45.4702 26.5855 43.1825C26.5511 43.1183 23.6399 37.2639 21.4462 34.6943C20.6645 33.7797 18.7551 30.9739 18.1637 29.814C17.8909 29.39 18.1224 29.3143 18.3035 29.2501C18.4708 29.1883 19.3236 28.739 19.3992 28.5441C19.4748 28.347 19.2433 27.9458 19.2204 27.7395C19.17 27.2696 19.7499 27.084 20.0594 27.3567C20.4926 27.7373 21.1069 28.3562 21.9895 28.6175C22.7482 28.8398 24.6393 29.0691 25.8909 28.7734C26.4846 28.6335 27.076 28.2668 27.2112 28.1476C27.5138 27.8771 27.578 27.6089 27.3717 27.3705C27.3511 27.3476 27.2135 27.4049 27.0393 27.4622C26.794 27.5424 26.4754 27.6226 26.2966 27.4782C25.7969 27.0725 26.2714 26.6736 26.315 26.6461C26.6519 26.4352 27.1241 26.4513 27.7155 26.1602C28.3505 25.8461 28.637 25.4725 28.7195 25.351C28.974 24.9751 28.9671 24.8559 29.0382 24.7986C29.0794 24.7642 29.1551 24.7665 29.2353 24.7688C29.3706 24.7734 29.5264 24.7756 29.5746 24.6129C29.6204 24.4593 29.6044 24.214 29.4187 23.9871C29.2605 23.7923 29.1138 23.7969 29.0359 23.5768C28.9052 23.1986 29.311 22.8135 29.4691 22.6324C29.6112 22.4673 29.6365 22.2931 29.5746 22.19C29.5746 22.19 29.5402 21.9928 28.4261 21.5298C27.8485 21.2891 26.723 20.7917 25.4668 20.4868C24.3138 20.2072 23.0531 20.0994 22.2141 20.1132C20.8731 20.1338 20.0823 20.3951 20.0823 20.3951L19.7453 19.6799C19.7453 19.6799 21.0405 18.3665 21.2628 18.0135C21.4852 17.6582 21.5379 17.5413 21.5379 17.5413C21.5379 17.5413 22.4181 16.8719 22.7711 16.6885C23.1264 16.5052 24.1488 15.9527 24.5958 15.4668C25.0428 14.9808 25.8955 14.0501 26.2095 13.7338C26.5259 13.4198 26.8789 13.1172 26.9981 13.037C27.1173 12.959 27.3167 12.7229 27.4382 12.6519C27.7316 12.4799 28.2794 12.4295 28.6852 12.2072C29.0932 11.9848 29.5104 11.8863 29.6502 11.8519C29.9986 11.7625 30.9201 11.492 31.3717 11.3384C31.7797 11.1986 31.9516 11.2536 31.9631 11.0908C31.986 10.7516 31.0141 11.0656 30.8789 11.0931C31.0026 11.0267 31.115 10.9693 31.1585 10.9464C31.3281 10.8616 31.4771 10.7883 31.5551 10.747C31.8004 10.6118 31.8714 10.5774 31.9012 10.4811C31.9264 10.4009 31.8829 10.316 31.7912 10.2725C31.7087 10.2335 31.5276 10.3 31.3786 10.3665C31.2548 10.4215 31.1539 10.4765 31.1539 10.4719C31.1425 10.3802 31.0897 10.3092 30.9728 10.3069C30.833 10.3069 30.6565 10.3596 30.4021 10.4444C30.1683 10.5246 29.9344 10.598 29.8817 10.6118C30.0124 10.4559 30.0491 10.3963 30.0491 10.3963C30.0491 10.3963 30.1728 10.2542 30.1087 10.1648C30.0903 10.1395 30.0468 10.1258 29.994 10.1441C29.8817 10.1831 29.68 10.3596 29.3362 10.6782C29.2926 10.7172 29.2743 10.7516 29.2078 10.7951C29.0771 10.8295 28.8387 10.8501 28.7127 10.8158C28.6118 10.7883 28.5453 10.7493 28.5018 10.7149C28.5087 10.7057 28.6439 10.4054 28.8525 10.2542C28.9855 10.1579 29.3522 9.84155 29.3843 9.80946C29.5127 9.67651 29.492 9.57336 29.4806 9.5023C29.4691 9.41748 29.421 9.34184 29.3568 9.29599C29.1344 9.14241 28.7516 9.44499 28.7081 9.47937C28.621 9.55043 28.2198 9.88969 28.0938 9.99972C28.0021 10.0777 27.7408 10.1877 27.5688 10.2633L27.4657 10.3069C27.2502 10.4009 26.9774 10.5407 26.778 10.7126C26.6405 10.8295 26.4754 11.1321 26.4227 11.2467C26.3104 11.3407 25.7809 11.7739 25.1413 12.159C24.6577 12.4501 24.1419 12.7688 23.6972 13.0438C23.3648 13.2501 23.0714 13.4312 22.8628 13.5573C22.8238 13.5779 21.884 14.0777 21.1069 14.6943C20.8708 14.8822 20.6416 15.0702 20.4216 15.249C20.2382 15.398 20.0685 15.5378 19.9035 15.6685C19.445 16.0444 18.4089 16.7069 18.2943 16.7894C18.1408 16.8857 17.9826 16.9842 17.7992 17.0943C17.3087 17.3923 16.2748 17.9309 15.9883 18.0708C15.876 18.1258 15.6743 18.2404 15.4496 18.3802C15.4428 18.3848 15.4336 18.3894 15.4267 18.3917H15.4221C15.3625 18.3321 15.3052 18.245 15.2983 18.1946C15.2548 17.9195 15.6376 17.8874 16.0433 17.7842C16.3138 17.7155 16.5362 17.5825 16.5339 17.4152C16.5339 17.2593 16.4422 17.2845 16.4124 17.1722C16.3459 16.9086 16.6875 16.8857 16.7333 16.7642C16.7493 16.7229 16.7425 16.6358 16.6347 16.5991C16.527 16.5648 16.4743 16.5693 16.3253 16.6129C16.2473 16.6358 16.1877 16.4914 16.2817 16.3905C16.3757 16.2897 16.417 16.2576 16.3872 16.1499C16.3459 15.9986 16.2519 15.9756 16.1946 16.0123C16.1373 16.0467 16.0892 16.1476 15.9746 16.1338C15.8599 16.1201 15.8072 16.049 15.5207 16.0467C15.4634 16.0467 15.4084 16.065 15.3556 16.0811C15.2525 16.1155 15.1562 16.1476 15.0462 16.0536C14.9453 15.9665 14.8124 15.6937 14.5075 15.6089C14.276 15.5424 14.1637 15.4163 14.1637 15.4163C14.1637 15.4163 14.4479 15.3269 14.5373 15.2375C14.7024 15.0702 14.6909 15.0267 14.7184 14.9097C14.7299 14.8616 14.7757 14.4926 14.574 14.5201C14.5213 14.5269 14.3448 14.6989 14.2301 14.7057C14.1155 14.7126 14.0972 14.6759 14.1155 14.6118C14.1545 14.4742 14.1132 14.394 14.017 14.3252C13.884 14.2289 13.5241 14.316 13.2147 14.3481C12.9098 14.3779 12.6714 14.3481 12.3872 14.5315C12.1396 14.6897 11.9218 14.9969 11.9218 14.9969C11.9218 14.9969 11.7041 15.0129 11.5665 15.21C11.4978 15.3086 11.4978 15.3957 11.4978 15.3957C11.4978 15.3957 11.2938 15.4049 11.1975 15.5791C11.1448 15.6754 11.1471 15.6914 11.1471 15.6914C11.1471 15.6914 10.7551 15.7991 10.6198 16.0398C10.4731 16.3034 10.37 16.5625 10.5006 16.8192C10.6084 17.0324 10.6634 17.0645 10.6634 17.0645C10.6634 17.0645 10.574 17.2754 10.6267 17.4862C10.6863 17.7269 10.794 17.8049 10.8101 17.8255C10.794 17.8805 10.7001 18.1831 10.8147 18.5338C10.9935 19.0748 11.2663 19.0748 11.2663 19.0748C11.2663 19.0748 11.3075 19.7235 11.3373 20.1178C11.3671 20.5097 11.374 20.7871 11.374 20.7871C11.3694 20.7871 10.6703 21.1424 10.6703 21.1424C10.6703 21.1424 10.5786 20.9361 10.5075 20.8238C10.2393 20.3928 9.86568 20.0307 9.70981 19.8152C9.55164 19.5997 9.34304 19.3407 9.21009 19.2398C9.18029 19.2077 9.12757 19.1596 9.03359 19.0977C8.80665 18.9464 8.65766 18.6118 8.65766 18.6118L10.1958 18.5246L10.425 17.8622L10.1545 17.6398L8.78144 17.1997C9.01754 15.6433 11.3236 0.876509 11.3236 0.876509L11.0897 0.202583L11.1012 0.202583Z" fill="white"/>
    </mask>
    <g mask="url(#mask1_2_984)">
      <path d="M31.9998 0.202583H0.00665283V55.3797H31.9998V0.202583Z" fill="url(#paint1_linear_2_984)"/>
    </g>
    <path d="M0 55.1458V55.2559V55.657H31.1496V55.2559V55.1458H0Z" fill="black"/>
    <path d="M0 55.657V55.7647V56.1659H31.1496V55.7647V55.657H0Z" fill="#F7A413"/>
    <path d="M0 56.6771V56.7871V57.1882H31.1496V56.7871V56.6771H0Z" fill="#F7A413"/>
    <path d="M0 56.1659V56.2759V56.6771H31.1496V56.2759V56.1659H0Z" fill="black"/>
    <path d="M0 57.1883V57.2983V57.6994H31.1496V57.2983V57.1883H0Z" fill="black"/>
  </g>
  <defs>
    <linearGradient id="paint0_linear_2_984" x1="-0.0171718" y1="62.2891" x2="31.1003" y2="62.2891" gradientUnits="userSpaceOnUse">
      <stop stop-color="#EA6511"/>
      <stop offset="0.05" stop-color="#EA6511"/>
      <stop offset="0.18" stop-color="#E8531A"/>
      <stop offset="0.38" stop-color="#E53E27"/>
      <stop offset="0.51" stop-color="#E5362C"/>
      <stop offset="0.66" stop-color="#E0322B"/>
      <stop offset="0.83" stop-color="#D32828"/>
      <stop offset="1" stop-color="#BE1825"/>
    </linearGradient>
    <linearGradient id="paint1_linear_2_984" x1="-0.0762813" y1="27.4179" x2="31.8939" y2="27.4179" gradientUnits="userSpaceOnUse">
      <stop stop-color="#EA6511"/>
      <stop offset="0.51" stop-color="#E5362C"/>
      <stop offset="0.66" stop-color="#E0322B"/>
      <stop offset="0.83" stop-color="#D32828"/>
      <stop offset="1" stop-color="#BE1825"/>
    </linearGradient>
    <clipPath id="clip0_2_984">
      <rect width="32" height="66.5948" fill="white" transform="translate(0 0.202583)"/>
    </clipPath>
  </defs>
</svg>