<svg xmlns="http://www.w3.org/2000/svg" version="1.1" xmlns:xlink="http://www.w3.org/1999/xlink" width="1000" height="1000"><style>
    #light-icon {
      display: inline;
    }
    #dark-icon {
      display: none;
    }

    @media (prefers-color-scheme: dark) {
      #light-icon {
        display: none;
      }
      #dark-icon {
        display: inline;
      }
    }
  </style><g id="light-icon"><svg xmlns="http://www.w3.org/2000/svg" version="1.1" xmlns:xlink="http://www.w3.org/1999/xlink" width="1000" height="1000"><g><g transform="matrix(8.333333333333334,0,0,8.333333333333334,-5.684341886080802e-14,-5.684341886080802e-14)"><svg xmlns="http://www.w3.org/2000/svg" version="1.1" xmlns:xlink="http://www.w3.org/1999/xlink" width="120" height="120"><svg width="120" height="120" viewBox="0 0 120 120" fill="none" xmlns="http://www.w3.org/2000/svg">
<rect width="120" height="120" fill="#BBCE00"></rect>
<path d="M36.9508 45.0101V39.018H44.7466V46.2036C44.7466 56.5716 40.0842 65.9699 32.5891 72.8074C28.4781 76.5369 23.5148 79.5205 18 81.435V73.7025C21.3841 72.2107 24.4423 70.1967 27.0743 67.8098C33.1656 62.2653 36.9257 54.6322 36.9257 46.2284V45.035L36.9508 45.0101ZM75.2032 45.0101V39.018H82.9991V46.2036C82.9991 54.6074 86.7842 62.2404 92.8505 67.785C95.5076 70.1967 98.5909 72.2107 101.975 73.7025V81.435C96.4351 79.5205 91.4467 76.5617 87.3357 72.8074C79.8406 65.9948 75.1782 56.5716 75.1782 46.2036V45.0101H75.2032ZM18 94.1153C26.974 91.803 34.9955 87.4022 41.4127 81.5593C46.2507 77.1585 50.1611 71.9372 52.8935 66.144C54.6732 70.9178 57.0295 75.3683 59.9624 79.5702C62.795 75.9402 65.051 71.1913 67.0815 66.144C69.8138 71.9372 73.7243 77.1585 78.5622 81.5344C84.9794 87.3773 93.0009 91.7781 101.975 94.0904V86.6563C95.1817 84.5678 89.0653 81.062 84.077 76.512C75.7296 68.9038 70.5407 58.4363 70.5407 46.8997V15H62.7449V46.9246C62.7449 52.5437 61.7672 59.0828 59.9875 64.1798C58.1826 59.0828 57.2301 52.5437 57.2301 46.9246V15H49.4342V46.9246C49.4342 58.4363 44.2453 68.9287 35.8979 76.5369C30.9096 81.062 24.7932 84.5926 18 86.6812V94.1153ZM52.2668 77.2828C50.2614 79.8934 48.0304 82.3301 45.5739 84.5678C38.0788 91.3803 28.6034 96.3779 18 98.715V106C30.7592 103.539 42.1647 97.6956 51.0886 89.5653C52.9937 87.8249 54.7735 85.985 56.453 84.0456L56.1773 83.6478C54.7735 81.5842 53.4449 79.4459 52.2668 77.2331M63.7977 84.2943C65.402 86.1342 67.1065 87.8746 68.9364 89.5404C77.8353 97.6459 89.2659 103.489 102 105.95V98.6653C91.4217 96.3033 81.9212 91.3306 74.4512 84.518C72.0949 82.3798 69.9391 80.0426 67.9839 77.5563C66.8308 79.6448 65.5774 81.6836 64.2238 83.6478C64.0734 83.8716 63.923 84.0705 63.7726 84.2943" fill="white"></path>
</svg></svg></g></g></svg></g><g id="dark-icon"><svg xmlns="http://www.w3.org/2000/svg" version="1.1" xmlns:xlink="http://www.w3.org/1999/xlink" width="1000" height="1000"><g><g transform="matrix(8.333333333333334,0,0,8.333333333333334,-5.684341886080802e-14,-5.684341886080802e-14)"><svg xmlns="http://www.w3.org/2000/svg" version="1.1" xmlns:xlink="http://www.w3.org/1999/xlink" width="120" height="120"><svg width="120" height="120" viewBox="0 0 120 120" fill="none" xmlns="http://www.w3.org/2000/svg">
<rect width="120" height="120" fill="black"></rect>
<path d="M36.9508 45.0101V39.018H44.7466V46.2036C44.7466 56.5716 40.0842 65.9699 32.5891 72.8074C28.4781 76.5369 23.5148 79.5205 18 81.435V73.7025C21.3841 72.2107 24.4423 70.1967 27.0743 67.8098C33.1656 62.2653 36.9257 54.6322 36.9257 46.2284V45.035L36.9508 45.0101ZM75.2032 45.0101V39.018H82.9991V46.2036C82.9991 54.6074 86.7842 62.2404 92.8505 67.785C95.5076 70.1967 98.5909 72.2107 101.975 73.7025V81.435C96.4351 79.5205 91.4467 76.5617 87.3357 72.8074C79.8406 65.9948 75.1782 56.5716 75.1782 46.2036V45.0101H75.2032ZM18 94.1153C26.974 91.803 34.9955 87.4022 41.4127 81.5593C46.2507 77.1585 50.1611 71.9372 52.8935 66.144C54.6732 70.9178 57.0295 75.3683 59.9624 79.5702C62.795 75.9402 65.051 71.1913 67.0815 66.144C69.8138 71.9372 73.7243 77.1585 78.5622 81.5344C84.9794 87.3773 93.0009 91.7781 101.975 94.0904V86.6563C95.1817 84.5678 89.0653 81.062 84.077 76.512C75.7296 68.9038 70.5407 58.4363 70.5407 46.8997V15H62.7449V46.9246C62.7449 52.5437 61.7672 59.0828 59.9875 64.1798C58.1826 59.0828 57.2301 52.5437 57.2301 46.9246V15H49.4342V46.9246C49.4342 58.4363 44.2453 68.9287 35.8979 76.5369C30.9096 81.062 24.7932 84.5926 18 86.6812V94.1153ZM52.2668 77.2828C50.2614 79.8934 48.0304 82.3301 45.5739 84.5678C38.0788 91.3803 28.6034 96.3779 18 98.715V106C30.7592 103.539 42.1647 97.6956 51.0886 89.5653C52.9937 87.8249 54.7735 85.985 56.453 84.0456L56.1773 83.6478C54.7735 81.5842 53.4449 79.4459 52.2668 77.2331M63.7977 84.2943C65.402 86.1342 67.1065 87.8746 68.9364 89.5404C77.8353 97.6459 89.2659 103.489 102 105.95V98.6653C91.4217 96.3033 81.9212 91.3306 74.4512 84.518C72.0949 82.3798 69.9391 80.0426 67.9839 77.5563C66.8308 79.6448 65.5774 81.6836 64.2238 83.6478C64.0734 83.8716 63.923 84.0705 63.7726 84.2943" fill="white"></path>
</svg></svg></g></g></svg></g></svg>