<svg xmlns="http://www.w3.org/2000/svg" width="39" height="39" viewBox="0 0 39 39" fill="none">
  <g transform="translate(-61,0)">
    <path
      fill-rule="evenodd"
      clip-rule="evenodd"
      d="M63.6712 2.67119C61 5.34238 61 9.64155 61 18.24V19.76C61 28.3584 61 32.6576 63.6712 35.3288C66.3424 38 70.6415 38 79.24 38H80.76C89.3585 38 93.6572 38 96.3286 35.3288C99 32.6576 99 28.3584 99 19.76V18.24C99 9.64155 99 5.34238 96.3286 2.67119C93.6572 0 89.3585 0 80.76 0H79.24C70.6415 0 66.3424 0 63.6712 2.67119ZM67.4125 11.5577C67.6184 21.4377 72.5583 27.3752 81.2191 27.3752H81.7101V21.7227C84.8925 22.0393 87.2988 24.3668 88.265 27.3752H92.7613C91.5263 22.8786 88.2812 20.3927 86.2538 19.4427C88.2812 18.2711 91.1311 15.4211 91.8113 11.5577H87.7264C86.84 14.6927 84.2114 17.5427 81.7101 17.8118V11.5577H77.6249V22.5143C75.0916 21.8811 71.8934 18.8093 71.7509 11.5577H67.4125Z"
      fill="#BBCE00"
    />
  </g>
</svg>
