<svg xmlns="http://www.w3.org/2000/svg" width="136" height="75" viewBox="0 0 136 75" fill="none">
  <path d="M16.8718 28.5926V16.9673H28.4939V11.7161H16.8718V0.0908203H11.6221V11.7161H0V16.9673H11.6221V28.5926H16.8718Z" fill="#70B42D"/>
  <path d="M70.352 28.5926V16.9673H81.9741V11.7161H70.352V0.0908203H65.1023V11.7161H53.4802V16.9673H65.1023V28.5926H70.352Z" fill="#70B42D"/>
  <path d="M123.832 28.5926V16.9673H135.454V11.7161H123.832V0.0908203H118.582V11.7161H106.96V16.9673H118.582V28.5926H123.832Z" fill="#70B42D"/>
  <path d="M16.8718 74.5906V62.9653H28.4939V57.7142H16.8718V46.0889H11.6221V57.7142H0V62.9653H11.6221V74.5906H16.8718Z" fill="#70B42D"/>
  <path d="M70.352 74.5906V62.9653H81.9741V57.7142H70.352V46.0889H65.1023V57.7142H53.4802V62.9653H65.1023V74.5906H70.352Z" fill="#70B42D"/>
  <path d="M123.832 74.5906V62.9653H135.454V57.7142H123.832V46.0889H118.582V57.7142H106.96V62.9653H118.582V74.5906H123.832Z" fill="#70B42D"/>
</svg>