<svg width="300" height="71" viewBox="0 0 300 71" fill="none" xmlns="http://www.w3.org/2000/svg">
<path d="M14.2905 7.10195C14.2905 11.0254 11.0926 14.204 7.14525 14.204C3.19788 14.204 0 11.0254 0 7.10195C0 3.17848 3.19788 0 7.14525 0C11.0926 0 14.2905 3.17848 14.2905 7.10195Z" fill="white"/>
<path d="M64.2971 14.204C68.2433 14.204 71.4423 11.0243 71.4423 7.10195C71.4423 3.17963 68.2433 0 64.2971 0C60.3509 0 57.1519 3.17963 57.1519 7.10195C57.1519 11.0243 60.3509 14.204 64.2971 14.204Z" fill="white"/>
<path d="M128.574 7.10195C128.574 11.0254 125.377 14.204 121.429 14.204C117.482 14.204 114.284 11.0254 114.284 7.10195C114.284 3.17848 117.482 0 121.429 0C125.377 0 128.574 3.17848 128.574 7.10195Z" fill="white"/>
<path d="M185.716 7.10195C185.716 11.0254 182.518 14.204 178.571 14.204C174.624 14.204 171.426 11.0254 171.426 7.10195C171.426 3.17848 174.624 0 178.571 0C182.518 0 185.716 3.17848 185.716 7.10195Z" fill="white"/>
<path d="M235.713 14.204C239.659 14.204 242.858 11.0243 242.858 7.10195C242.858 3.17963 239.659 0 235.713 0C231.767 0 228.568 3.17963 228.568 7.10195C228.568 11.0243 231.767 14.204 235.713 14.204Z" fill="white"/>
<path d="M300 7.10195C300 11.0254 296.802 14.204 292.855 14.204C288.907 14.204 285.709 11.0254 285.709 7.10195C285.709 3.17848 288.907 0 292.855 0C296.802 0 300 3.17848 300 7.10195Z" fill="white"/>
<path d="M7.155 70.9999C11.1012 70.9999 14.3002 67.8202 14.3002 63.8979C14.3002 59.9755 11.1012 56.7959 7.155 56.7959C3.20879 56.7959 0.00976562 59.9755 0.00976562 63.8979C0.00976562 67.8202 3.20879 70.9999 7.155 70.9999Z" fill="white"/>
<path d="M64.2971 70.9999C68.2433 70.9999 71.4423 67.8202 71.4423 63.8979C71.4423 59.9755 68.2433 56.7959 64.2971 56.7959C60.3509 56.7959 57.1519 59.9755 57.1519 63.8979C57.1519 67.8202 60.3509 70.9999 64.2971 70.9999Z" fill="white"/>
<path d="M121.429 70.9999C125.376 70.9999 128.575 67.8202 128.575 63.8979C128.575 59.9755 125.376 56.7959 121.429 56.7959C117.483 56.7959 114.284 59.9755 114.284 63.8979C114.284 67.8202 117.483 70.9999 121.429 70.9999Z" fill="white"/>
<path d="M178.571 70.9999C182.517 70.9999 185.716 67.8202 185.716 63.8979C185.716 59.9755 182.517 56.7959 178.571 56.7959C174.625 56.7959 171.426 59.9755 171.426 63.8979C171.426 67.8202 174.625 70.9999 178.571 70.9999Z" fill="white"/>
<path d="M235.713 70.9999C239.659 70.9999 242.858 67.8202 242.858 63.8979C242.858 59.9755 239.659 56.7959 235.713 56.7959C231.767 56.7959 228.568 59.9755 228.568 63.8979C228.568 67.8202 231.767 70.9999 235.713 70.9999Z" fill="white"/>
<path d="M292.855 70.9999C296.801 70.9999 300 67.8202 300 63.8979C300 59.9755 296.801 56.7959 292.855 56.7959C288.908 56.7959 285.709 59.9755 285.709 63.8979C285.709 67.8202 288.908 70.9999 292.855 70.9999Z" fill="white"/>
</svg>
