<svg width="598" height="582" viewBox="0 0 598 582" fill="none" xmlns="http://www.w3.org/2000/svg"
xmlns:xlink="http://www.w3.org/1999/xlink">
      <g id="Group 37609">
         <rect id="&#208;&#161;&#208;&#189;&#208;&#184;&#208;&#188;&#208;&#190;&#208;&#186; &#209;&#141;&#208;&#186;&#209;&#128;&#208;&#176;&#208;&#189;&#208;&#176; 2025-05-04 &#208;&#178; 02.03.17 1"
         width="598" height="582" fill="url(#pattern0_104_3066)" />
         <path id="Vector 33" d="M316.178 435.663L299.665 443.485C292.457 446.899 283.966 442.594 282.46 434.763L274.318 392.424C273.63 388.85 274.575 385.155 276.893 382.349L300.317 353.994C304.576 348.837 312.194 348.071 317.395 352.276L330.768 363.089C334.386 366.014 336.026 370.743 334.994 375.281L334.596 377.033C333.971 379.785 334.319 382.669 335.581 385.193L336.512 387.057C338.161 390.354 338.23 394.22 336.701 397.574L322.057 429.698C320.862 432.318 318.78 434.431 316.178 435.663Z"
         fill="#70B42D" fill-opacity="0.5" />
         <path id="Vector 34" d="M335.621 380.442L338.619 387.295C339.045 388.267 340.421 388.271 340.852 387.302L344.322 379.496C344.499 379.096 344.449 378.631 344.191 378.279L339.464 371.833C338.848 370.993 337.531 371.261 337.292 372.275L335.551 379.673C335.491 379.93 335.515 380.2 335.621 380.442Z"
         fill="#70B42D" fill-opacity="0.5" />
         <path id="Vector 27" d="M197.108 223.381L192.087 229.478C190.794 231.049 191.167 233.397 192.883 234.489C194.685 235.636 197.085 234.849 197.859 232.859L199.446 228.779C200.199 226.843 201.774 225.343 203.745 224.686L207.144 223.553C209.959 222.615 213.051 223.057 215.49 224.745L218.314 226.7C219.086 227.235 220.07 227.357 220.949 227.027C222.707 226.368 223.365 224.224 222.28 222.692L215.725 213.439C214.629 211.891 213.929 210.098 213.686 208.217L211.615 192.17L205.779 164.581C205.297 162.299 203.053 160.843 200.772 161.332C198.387 161.843 196.932 164.266 197.602 166.611L204.435 190.526C204.747 191.617 204.905 192.745 204.905 193.878V202.135C204.905 203.613 204.636 205.079 204.112 206.462L198.8 220.465C198.399 221.523 197.827 222.508 197.108 223.381Z"
         fill="#70B42D" fill-opacity="0.5" />
         <path id="Vector 29" d="M250.319 260.428L226.76 228.455C226.102 227.561 224.929 227.213 223.889 227.603C222.332 228.186 221.778 230.105 222.783 231.43L245.779 261.717L259.115 275.609C259.98 276.51 260.978 277.273 262.075 277.871L317.676 308.199C319.472 309.179 321.717 308.674 322.921 307.018C324.384 305.007 323.719 302.166 321.515 301.013L261.465 269.584C260.77 269.221 260.112 268.791 259.5 268.302L252.52 262.717C251.69 262.053 250.95 261.283 250.319 260.428Z"
         fill="#70B42D" fill-opacity="0.5" />
         <path id="Vector 31" d="M242.883 282.614L242.286 282.017C239.243 278.973 239.456 273.977 242.749 271.204C245.793 268.64 250.326 268.968 252.97 271.943L253.531 272.574C256.05 275.407 255.989 279.694 253.391 282.455C250.56 285.462 245.804 285.534 242.883 282.614Z"
         fill="#70B42D" fill-opacity="0.5" />
         <path id="Vector 26" d="M399.813 217.501L368.303 256.064C364.498 260.722 357.866 261.911 352.679 258.867L337.687 250.068C335.099 248.548 331.995 248.175 329.121 249.038L322.424 251.046C321.832 251.224 321.427 251.769 321.427 252.387C321.427 253.159 320.801 253.786 320.028 253.786H319.292C318.113 253.786 317.157 252.83 317.157 251.651V248.925C317.157 248.111 316.953 247.311 316.563 246.597L316.392 246.282C314.776 243.321 311.106 242.17 308.088 243.678L299.466 247.99C298.334 248.556 296.985 248.472 295.931 247.77L294.768 246.994C294.287 246.674 293.661 246.674 293.18 246.994C292.586 247.39 291.791 247.288 291.317 246.754L282.383 236.704L253.111 200.406C252.371 199.488 251.139 199.127 250.02 199.5C248.931 199.863 247.731 199.53 246.984 198.659L246.683 198.307C245.485 196.91 243.413 196.674 241.932 197.765L226.255 209.317C223.483 211.359 219.617 210.975 217.301 208.428C216.013 207.011 215.391 205.112 215.591 203.207L216.31 196.383C216.433 195.207 216.386 194.019 216.168 192.857L214.666 184.849L210.132 160.48C209.903 159.245 209.865 157.981 210.021 156.735L210.833 150.235C210.948 149.318 211.166 148.417 211.484 147.549L223.262 115.419C224.244 112.739 227.206 111.354 229.892 112.319L231.492 112.894C233.316 113.549 234.26 115.562 233.598 117.383C232.92 119.246 233.924 121.299 235.809 121.909L263.985 131.024C269.67 132.864 275.851 130.315 278.587 125.003L282.952 116.53C283.782 114.918 284.962 113.511 286.404 112.412L302.763 99.948C306.828 96.8512 308.014 91.2458 305.551 86.7684C304.02 83.985 303.857 80.6515 305.108 77.7316L309.572 67.3168C311.251 63.3984 310.763 58.8877 308.285 55.4187L305.452 51.4516C303.94 49.3357 301.793 47.758 299.322 46.9485L277.456 39.7856C273.63 38.5323 273.029 33.3723 276.464 31.273C277.867 30.4156 278.723 28.8898 278.723 27.2456V27.1823C278.723 25.802 279.313 24.4875 280.345 23.5704L281.84 22.2414C283.378 20.8738 285.328 20.0561 287.382 19.9169L319.154 17.7628C319.855 17.7153 320.558 17.7284 321.257 17.8019L339.072 19.6772C341.526 19.9356 343.389 22.0301 343.389 24.4977C343.389 26.2981 342.372 27.961 340.762 28.7662C339.353 29.4708 338.384 30.8278 338.176 32.3894L336.442 45.3918C336.196 47.2359 335.532 48.9993 334.5 50.5472L331.188 55.5153L321.774 72.2517C320.747 74.078 320.207 76.1381 320.207 78.2335V81.1499C320.207 81.9534 320.286 82.7549 320.444 83.5428L322.225 92.4477C322.504 93.8447 323.026 95.1819 323.767 96.3988L330.131 106.855C330.831 108.004 331.716 109.03 332.751 109.891L396.285 162.742C398.746 164.789 400.304 167.722 400.622 170.908L402.566 190.339V209.781C402.566 212.595 401.593 215.322 399.813 217.501Z"
         fill="black" fill-opacity="0.5" />
         <path id="Vector 28" d="M188.469 204.719L186.547 206.841C181.274 212.664 183.589 222.473 191.096 220.157C193.645 219.37 196.108 217.836 198.177 215.202C200.149 212.691 201.196 210.118 201.622 207.648C202.906 200.198 193.544 199.116 188.469 204.719Z"
         fill="#70B42D" fill-opacity="0.5" />
         <path id="Vector 30" d="M208.599 226.793L207.566 226.976C205.472 227.345 203.614 228.536 202.404 230.284C200.296 233.329 200.566 237.424 203.054 240.166L229.465 269.263C232.416 272.514 237.438 272.775 240.71 269.847C243.889 267.003 244.274 262.164 241.584 258.853L218.55 230.504C216.152 227.553 212.344 226.132 208.599 226.793Z"
         fill="#70B42D" fill-opacity="0.5" />
         <path id="Vector 32" d="M296.172 298.618L267.884 283.418C263.512 281.069 258.098 282.04 254.815 285.761C252.584 288.29 251.677 291.723 252.369 295.024L265.887 359.493C266.612 362.951 269.661 365.427 273.194 365.427C275.524 365.427 277.721 364.339 279.133 362.486L302.876 331.323C304.976 328.567 305.805 325.049 305.157 321.646L302.383 307.083C301.694 303.469 299.413 300.359 296.172 298.618Z"
         fill="#70B42D" fill-opacity="0.5" />
         <path id="Vector 35" d="M300.044 445.554L295.222 447.373C289.862 449.396 286.631 454.876 287.456 460.545L290.924 484.39L295.566 552.468C296.031 559.298 302.025 564.409 308.843 563.789L310.586 563.63C317.497 563.002 322.493 556.745 321.576 549.867L313.681 490.66C313.558 489.737 313.541 488.803 313.631 487.876L316.497 458.14C317.364 449.147 308.497 442.364 300.044 445.554Z"
         fill="#70B42D" fill-opacity="0.5" />
         <g id="1">
               <circle id="Ellipse 47" cx="183" cy="208" r="9" fill="black" />
               <path id="1_2" d="M181.762 204V202.5H184.012V213H182.437V204H181.762Z"
               fill="#BBCE00" />
         </g>
         <g id="10">
               <circle id="Ellipse 47_2" cx="209" cy="213" r="9" fill="black" />
               <path id="10_2" d="M205.176 209V207.5H207.426V218H205.851V209H205.176ZM209.978 216.5H211.103V209H209.978V216.5ZM211.988 218H209.093C208.673 218 208.403 217.715 208.403 217.31V208.19C208.403 207.785 208.673 207.5 209.093 207.5H211.988C212.408 207.5 212.678 207.785 212.678 208.19V217.31C212.678 217.715 212.408 218 211.988 218Z"
               fill="#BBCE00" />
         </g>
         <g id="4">
               <circle id="Ellipse 47_3" cx="221" cy="248" r="9" fill="black" />
               <path id="4_2" d="M222.797 253H221.222V251.05H218.597V249.7L220.667 242.5H222.317L220.292 249.55H221.222V248.2L222.797 247.9V249.55H223.397V251.05H222.797V253Z"
               fill="#BBCE00" />
         </g>
         <g id="8">
               <circle id="Ellipse 47_4" cx="240" cy="284" r="9" fill="black" />
               <path id="8_2" d="M242.14 284.47V288.31C242.14 288.715 241.87 289 241.45 289H238.555C238.135 289 237.865 288.715 237.865 288.31V284.47C237.865 283.855 238.15 283.465 238.615 283.3C238.15 283.135 237.865 282.73 237.865 282.13V279.19C237.865 278.785 238.135 278.5 238.555 278.5H241.45C241.87 278.5 242.14 278.785 242.14 279.19V282.13C242.14 282.73 241.855 283.135 241.375 283.3C241.855 283.465 242.14 283.855 242.14 284.47ZM240.565 284.05H239.44V287.5H240.565V284.05ZM239.44 282.55H240.565V280H239.44V282.55Z"
               fill="#BBCE00" />
         </g>
         <g id="9">
               <circle id="Ellipse 47_5" cx="300" cy="287" r="9" fill="black" />
               <path id="9_2" d="M299.44 286H300.565V283H299.44V286ZM297.865 286.81V282.19C297.865 281.785 298.135 281.5 298.555 281.5H301.45C301.87 281.5 302.14 281.785 302.14 282.19V291.31C302.14 291.715 301.87 292 301.45 292H298.555C298.135 292 297.865 291.715 297.865 291.31V288.55H299.44V290.5H300.565V287.5H298.555C298.135 287.5 297.865 287.215 297.865 286.81Z"
               fill="#BBCE00" />
         </g>
         <g id="6">
               <circle id="Ellipse 47_6" cx="277" cy="319" r="9" fill="black" />
               <path id="6_2" d="M277.565 319.05H276.44V322.5H277.565V319.05ZM279.14 314.19V316.5H277.565V315H276.44V317.55H278.45C278.87 317.55 279.14 317.835 279.14 318.24V323.31C279.14 323.715 278.87 324 278.45 324H275.555C275.135 324 274.865 323.715 274.865 323.31V314.19C274.865 313.785 275.135 313.5 275.555 313.5H278.45C278.87 313.5 279.14 313.785 279.14 314.19Z"
               fill="#BBCE00" />
         </g>
         <g id="5">
               <circle id="Ellipse 47_7" cx="305" cy="398" r="9" fill="black" />
               <path id="5_2" d="M305.565 397.45H304.44V398.05H302.865V392.5H307.065V394H304.44V395.95H306.45C306.87 395.95 307.14 396.235 307.14 396.64V402.31C307.14 402.715 306.87 403 306.45 403H303.555C303.135 403 302.865 402.715 302.865 402.31V399.55H304.44V401.5H305.565V397.45Z"
               fill="#BBCE00" />
         </g>
         <g id="2">
               <circle id="Ellipse 47_8" cx="349" cy="379" r="9" fill="black" />
               <path id="2_2" d="M351.138 374.19V376.71L348.438 382.035V382.5H351.138V384H346.863V381.825L349.563 376.5V375H348.438V376.5H346.863V374.19C346.863 373.785 347.133 373.5 347.553 373.5H350.448C350.868 373.5 351.138 373.785 351.138 374.19Z"
               fill="#BBCE00" />
         </g>
         <g id="7">
               <circle id="Ellipse 47_9" cx="304" cy="502" r="9" fill="black" />
               <path id="7_2" d="M303.221 507V502.2L304.481 498H301.901V496.5H306.101V497.85L304.796 502.2V507H303.221Z"
               fill="#BBCE00" />
         </g>
         <g id="3">
               <rect id="Rectangle 449" x="321" y="160" width="172" height="18" fill="black"
               />
               <circle id="Ellipse 47_10" cx="321" cy="169" r="9" fill="#BBCE00" />
               <path id="3_2" d="M322.45 174H319.555C319.135 174 318.865 173.715 318.865 173.31V170.55H320.44V172.5H321.565V168.78H319.99V167.385L321.415 165H318.94V163.5H323.065V164.85L321.625 167.28H322.45C322.87 167.28 323.14 167.565 323.14 167.97V173.31C323.14 173.715 322.87 174 322.45 174Z"
               fill="black" />
               <path id="&#208;&#183;&#208;&#190;&#208;&#189;&#208;&#176; &#208;&#190;&#209;&#130;&#208;&#180;&#209;&#139;&#209;&#133;&#208;&#176; &#208;&#184; &#208;&#176;&#209;&#128;&#209;&#130;-&#208;&#191;&#208;&#181;&#209;&#128;&#209;&#132;&#208;&#190;&#208;&#188;&#208;&#176;&#208;&#189;&#209;&#129;&#208;&#190;&#208;&#178;"
               d="M337.95 169.47V173.31C337.95 173.715 337.68 174 337.26 174H333.375V170.55H334.95V172.5H336.375V169.05H334.95V167.55H336.375V165H334.95V166.5H333.375V163.5H337.26C337.68 163.5 337.95 163.785 337.95 164.19V167.13C337.95 167.73 337.665 168.135 337.185 168.3C337.665 168.465 337.95 168.855 337.95 169.47ZM340.43 172.5H342.005V165H340.43V172.5ZM342.89 174H339.545C339.125 174 338.855 173.715 338.855 173.31V164.19C338.855 163.785 339.125 163.5 339.545 163.5H342.89C343.31 163.5 343.58 163.785 343.58 164.19V173.31C343.58 173.715 343.31 174 342.89 174ZM347.78 163.5H349.355V174H347.78V169.05H346.055V174H344.48V163.5H346.055V167.55H347.78V163.5ZM350.252 163.5H354.902V174H353.327V170.55H351.827V174H350.252V163.5ZM353.327 169.05V165H351.827V169.05H353.327ZM359.927 172.5H361.502V165H359.927V172.5ZM362.387 174H359.042C358.622 174 358.352 173.715 358.352 173.31V164.19C358.352 163.785 358.622 163.5 359.042 163.5H362.387C362.807 163.5 363.077 163.785 363.077 164.19V173.31C363.077 173.715 362.807 174 362.387 174ZM363.677 165V163.5H368.252V165H366.752V174H365.177V165H363.677ZM370.377 172.5H371.562V165H370.887L370.377 172.5ZM369.402 163.5H373.137V172.5H373.662V175.38H372.087V174H369.762V175.38H368.187V172.5H368.787L369.402 163.5ZM375.836 168.9V172.5H377.036V168.9H375.836ZM380.786 174H379.211V163.5H380.786V174ZM378.611 168.09V173.31C378.611 173.715 378.341 174 377.921 174H374.261V163.5H375.836V167.4H377.921C378.341 167.4 378.611 167.685 378.611 168.09ZM383.982 170.085L382.962 174H381.387L382.992 168.465L381.492 163.5H383.067L383.982 166.875H384.027L384.957 163.5H386.532L385.032 168.465L386.637 174H385.062L384.027 170.085H383.982ZM387.239 163.5H391.889V174H390.314V170.55H388.814V174H387.239V163.5ZM390.314 169.05V165H388.814V169.05H390.314ZM400.215 174H398.64V168.12L396.915 171.735V174H395.34V163.5H396.915V168.84L398.64 165.225V163.5H400.215V174ZM403.66 163.5H408.31V174H406.735V170.55H405.235V174H403.66V163.5ZM406.735 169.05V165H405.235V169.05H406.735ZM410.787 165V169.05H412.287V165H410.787ZM413.172 170.55H410.787V174H409.212V163.5H413.172C413.592 163.5 413.862 163.785 413.862 164.19V169.86C413.862 170.265 413.592 170.55 413.172 170.55ZM414.39 165V163.5H418.965V165H417.465V174H415.89V165H414.39ZM419.5 169.26V167.94H422.5V169.26H419.5ZM423.626 163.5H428.426V174H426.851V165H425.201V174H423.626V163.5ZM429.324 174V163.5H433.224V165H430.899V167.55H433.149V169.05H430.899V172.5H433.224V174H429.324ZM435.63 165V169.05H437.13V165H435.63ZM438.015 170.55H435.63V174H434.055V163.5H438.015C438.435 163.5 438.705 163.785 438.705 164.19V169.86C438.705 170.265 438.435 170.55 438.015 170.55ZM441.034 165.75V171H442.009V165.75H441.034ZM444.559 171V165.75H443.584V171H444.559ZM442.009 172.5H440.149C439.729 172.5 439.459 172.215 439.459 171.81V164.94C439.459 164.535 439.729 164.25 440.149 164.25H442.009V163.35H443.584V164.25H445.444C445.864 164.25 446.134 164.535 446.134 164.94V171.81C446.134 172.215 445.864 172.5 445.444 172.5H443.584V174.15H442.009V172.5ZM448.536 172.5H450.111V165H448.536V172.5ZM450.996 174H447.651C447.231 174 446.961 173.715 446.961 173.31V164.19C446.961 163.785 447.231 163.5 447.651 163.5H450.996C451.416 163.5 451.686 163.785 451.686 164.19V173.31C451.686 173.715 451.416 174 450.996 174ZM455.826 169.5L457.116 163.5H459.036V174H457.461V169.5L457.716 166.5H457.641L456.546 171.9H455.076L453.951 166.5H453.876L454.161 169.5V174H452.586V163.5H454.506L455.781 169.5H455.826ZM459.939 163.5H464.589V174H463.014V170.55H461.514V174H459.939V163.5ZM463.014 169.05V165H461.514V169.05H463.014ZM468.791 163.5H470.366V174H468.791V169.05H467.066V174H465.491V163.5H467.066V167.55H468.791V163.5ZM475.838 174H471.953C471.533 174 471.263 173.715 471.263 173.31V164.19C471.263 163.785 471.533 163.5 471.953 163.5H475.838V166.5H474.263V165H472.838V172.5H474.263V170.55H475.838V174ZM478.243 172.5H479.818V165H478.243V172.5ZM480.703 174H477.358C476.938 174 476.668 173.715 476.668 173.31V164.19C476.668 163.785 476.938 163.5 477.358 163.5H480.703C481.123 163.5 481.393 163.785 481.393 164.19V173.31C481.393 173.715 481.123 174 480.703 174ZM485.293 167.55V165H483.868V167.55H485.293ZM485.293 169.05H483.868V172.5H485.293V169.05ZM486.868 164.19V167.13C486.868 167.73 486.553 168.135 486.088 168.3C486.553 168.465 486.868 168.855 486.868 169.47V173.31C486.868 173.715 486.598 174 486.178 174H482.293V163.5H486.178C486.598 163.5 486.868 163.785 486.868 164.19Z"
               fill="white" />
         </g>
      </g>
    <defs>
        <pattern id="pattern0_104_3066" patternContentUnits="objectBoundingBox"
        width="1" height="1">
            <use xlink:href="#image0_104_3066" transform="matrix(0.000792991 0 0 0.000814791 -0.236137 -0.067086)"
            />
        </pattern>
    </defs>
</svg>